u2194_noise 100 - 60.ufo
<glyph name="exclam" format="1">
  <advance width="315"/>
  <unicode hex="0021"/>
  <outline>
    <contour>
      <point x="187" y="179" type="curve" smooth="yes"/>
      <point x="227" y="279" type="line" smooth="yes"/>
      <point x="232" y="291"/>
      <point x="232" y="311"/>
      <point x="227" y="323" type="curve" smooth="yes"/>
      <point x="192" y="413" type="line"/>
      <point x="188" y="490" type="line"/>
      <point x="225" y="578" type="line" smooth="yes"/>
      <point x="231" y="594"/>
      <point x="229" y="618"/>
      <point x="220" y="632" type="curve" smooth="yes"/>
      <point x="184" y="693" type="line"/>
      <point x="248" y="759" type="line" smooth="yes"/>
      <point x="271" y="783"/>
      <point x="270" y="822"/>
      <point x="247" y="844" type="curve" smooth="yes"/>
      <point x="223" y="867"/>
      <point x="184" y="866"/>
      <point x="162" y="843" type="curve" smooth="yes"/>
      <point x="66" y="743" type="line" smooth="yes"/>
      <point x="48" y="724"/>
      <point x="45" y="692"/>
      <point x="58" y="670" type="curve" smooth="yes"/>
      <point x="102" y="596" type="line"/>
      <point x="72" y="524" type="line" smooth="yes"/>
      <point x="70" y="517"/>
      <point x="68" y="506"/>
      <point x="68" y="499" type="curve" smooth="yes"/>
      <point x="72" y="399" type="line" smooth="yes"/>
      <point x="72" y="393"/>
      <point x="74" y="384"/>
      <point x="76" y="379" type="curve" smooth="yes"/>
      <point x="106" y="301" type="line"/>
      <point x="75" y="223" type="line" smooth="yes"/>
      <point x="63" y="193"/>
      <point x="79" y="157"/>
      <point x="109" y="145" type="curve" smooth="yes"/>
      <point x="139" y="133"/>
      <point x="175" y="149"/>
    </contour>
    <contour>
      <point x="78" y="48" type="curve" smooth="yes"/>
      <point x="62" y="19"/>
      <point x="72" y="-18"/>
      <point x="100" y="-34" type="curve" smooth="yes"/>
      <point x="130" y="-51" type="line" smooth="yes"/>
      <point x="159" y="-67"/>
      <point x="196" y="-57"/>
      <point x="212" y="-29" type="curve" smooth="yes"/>
      <point x="228" y="0"/>
      <point x="218" y="37"/>
      <point x="190" y="53" type="curve" smooth="yes"/>
      <point x="160" y="70" type="line" smooth="yes"/>
      <point x="131" y="86"/>
      <point x="94" y="76"/>
    </contour>
  </outline>
</glyph>
<glyph name="numbersign" format="1">
  <advance width="840"/>
  <unicode hex="0023"/>
  <outline>
    <contour>
      <point x="425" y="308" type="curve" smooth="yes"/>
      <point x="417" y="259" type="line"/>
      <point x="300" y="259" type="line"/>
      <point x="302" y="286" type="line"/>
      <point x="338" y="377" type="line" smooth="yes"/>
      <point x="339" y="379"/>
      <point x="340" y="382"/>
      <point x="340" y="384" type="curve" smooth="yes"/>
      <point x="365" y="482" type="line"/>
      <point x="385" y="539" type="line"/>
      <point x="471" y="539" type="line"/>
      <point x="466" y="531" type="line" smooth="yes"/>
      <point x="461" y="522"/>
      <point x="457" y="506"/>
      <point x="457" y="496" type="curve" smooth="yes"/>
      <point x="461" y="409" type="line"/>
      <point x="428" y="320" type="line" smooth="yes"/>
      <point x="427" y="317"/>
      <point x="425" y="312"/>
    </contour>
    <contour>
      <point x="476" y="-17" type="curve" smooth="yes"/>
      <point x="503" y="86" type="line"/>
      <point x="516" y="139" type="line"/>
      <point x="584" y="139" type="line" smooth="yes"/>
      <point x="616" y="139"/>
      <point x="644" y="167"/>
      <point x="644" y="199" type="curve" smooth="yes"/>
      <point x="644" y="231"/>
      <point x="616" y="259"/>
      <point x="584" y="259" type="curve" smooth="yes"/>
      <point x="538" y="259" type="line"/>
      <point x="542" y="283" type="line"/>
      <point x="578" y="378" type="line" smooth="yes"/>
      <point x="581" y="384"/>
      <point x="582" y="395"/>
      <point x="582" y="402" type="curve" smooth="yes"/>
      <point x="578" y="483" type="line"/>
      <point x="612" y="539" type="line"/>
      <point x="730" y="539" type="line" smooth="yes"/>
      <point x="762" y="539"/>
      <point x="790" y="567"/>
      <point x="790" y="599" type="curve" smooth="yes"/>
      <point x="790" y="631"/>
      <point x="762" y="659"/>
      <point x="730" y="659" type="curve" smooth="yes"/>
      <point x="641" y="659" type="line"/>
      <point x="643" y="693" type="line"/>
      <point x="658" y="790" type="line" smooth="yes"/>
      <point x="663" y="822"/>
      <point x="640" y="853"/>
      <point x="608" y="858" type="curve" smooth="yes"/>
      <point x="576" y="863"/>
      <point x="545" y="840"/>
      <point x="540" y="808" type="curve" smooth="yes"/>
      <point x="524" y="708" type="line" smooth="yes"/>
      <point x="523" y="707"/>
      <point x="523" y="703"/>
      <point x="523" y="701" type="curve" smooth="yes"/>
      <point x="521" y="659" type="line"/>
      <point x="417" y="659" type="line"/>
      <point x="422" y="677" type="line"/>
      <point x="473" y="770" type="line" smooth="yes"/>
      <point x="488" y="798"/>
      <point x="477" y="836"/>
      <point x="449" y="852" type="curve" smooth="yes"/>
      <point x="421" y="867"/>
      <point x="383" y="856"/>
      <point x="367" y="828" type="curve" smooth="yes"/>
      <point x="312" y="728" type="line" smooth="yes"/>
      <point x="310" y="724"/>
      <point x="308" y="717"/>
      <point x="307" y="712" type="curve" smooth="yes"/>
      <point x="294" y="659" type="line"/>
      <point x="140" y="659" type="line" smooth="yes"/>
      <point x="108" y="659"/>
      <point x="80" y="631"/>
      <point x="80" y="599" type="curve" smooth="yes"/>
      <point x="80" y="567"/>
      <point x="108" y="539"/>
      <point x="140" y="539" type="curve" smooth="yes"/>
      <point x="257" y="539" type="line"/>
      <point x="250" y="519" type="line" smooth="yes"/>
      <point x="250" y="517"/>
      <point x="249" y="515"/>
      <point x="249" y="514" type="curve" smooth="yes"/>
      <point x="225" y="418" type="line"/>
      <point x="186" y="321" type="line" smooth="yes"/>
      <point x="184" y="316"/>
      <point x="182" y="307"/>
      <point x="182" y="301" type="curve" smooth="yes"/>
      <point x="180" y="259" type="line"/>
      <point x="110" y="259" type="line" smooth="yes"/>
      <point x="78" y="259"/>
      <point x="50" y="231"/>
      <point x="50" y="199" type="curve" smooth="yes"/>
      <point x="50" y="167"/>
      <point x="78" y="139"/>
      <point x="110" y="139" type="curve" smooth="yes"/>
      <point x="132" y="139" type="line"/>
      <point x="127" y="130" type="line" smooth="yes"/>
      <point x="118" y="116"/>
      <point x="116" y="93"/>
      <point x="122" y="78" type="curve" smooth="yes"/>
      <point x="159" y="-22" type="line" smooth="yes"/>
      <point x="170" y="-52"/>
      <point x="205" y="-69"/>
      <point x="236" y="-57" type="curve" smooth="yes"/>
      <point x="266" y="-46"/>
      <point x="283" y="-11"/>
      <point x="271" y="20" type="curve" smooth="yes"/>
      <point x="244" y="93" type="line"/>
      <point x="272" y="139" type="line"/>
      <point x="393" y="139" type="line"/>
      <point x="387" y="112" type="line"/>
      <point x="360" y="15" type="line" smooth="yes"/>
      <point x="352" y="-17"/>
      <point x="371" y="-50"/>
      <point x="402" y="-59" type="curve" smooth="yes"/>
      <point x="434" y="-67"/>
      <point x="467" y="-48"/>
    </contour>
  </outline>
</glyph>
<glyph name="dollar" format="1">
  <advance width="904"/>
  <unicode hex="0024"/>
  <outline>
    <contour>
      <point x="236" y="610" type="line" smooth="yes"/>
      <point x="232" y="626"/>
      <point x="219" y="642"/>
      <point x="204" y="650" type="curve"/>
      <point x="191" y="669" type="line"/>
      <point x="242" y="709" type="line"/>
      <point x="339" y="739" type="line"/>
      <point x="416" y="739" type="line"/>
      <point x="414" y="711" type="line"/>
      <point x="383" y="618" type="line" smooth="yes"/>
      <point x="378" y="603"/>
      <point x="381" y="581"/>
      <point x="389" y="568" type="curve" smooth="yes"/>
      <point x="427" y="505" type="line"/>
      <point x="388" y="459" type="line"/>
      <point x="273" y="464" type="line"/>
      <point x="266" y="476" type="line"/>
    </contour>
    <contour>
      <point x="505" y="81" type="line" smooth="yes"/>
      <point x="507" y="87"/>
      <point x="508" y="96"/>
      <point x="508" y="102" type="curve" smooth="yes"/>
      <point x="504" y="190" type="line"/>
      <point x="536" y="278" type="line" smooth="yes"/>
      <point x="542" y="294"/>
      <point x="539" y="317"/>
      <point x="531" y="331" type="curve" smooth="yes"/>
      <point x="526" y="339" type="line"/>
      <point x="533" y="339" type="line"/>
      <point x="585" y="334" type="line"/>
      <point x="652" y="301" type="line"/>
      <point x="684" y="185" type="line" smooth="yes"/>
      <point x="685" y="180"/>
      <point x="689" y="173"/>
      <point x="691" y="169" type="curve" smooth="yes"/>
      <point x="716" y="129" type="line"/>
      <point x="669" y="89" type="line"/>
      <point x="572" y="59" type="line"/>
      <point x="498" y="59" type="line"/>
    </contour>
    <contour>
      <point x="342" y="-61" type="curve" smooth="yes"/>
      <point x="581" y="-61" type="line" smooth="yes"/>
      <point x="586" y="-61"/>
      <point x="594" y="-60"/>
      <point x="599" y="-58" type="curve" smooth="yes"/>
      <point x="717" y="-21" type="line" smooth="yes"/>
      <point x="723" y="-19"/>
      <point x="733" y="-14"/>
      <point x="738" y="-10" type="curve" smooth="yes"/>
      <point x="833" y="72" type="line" smooth="yes"/>
      <point x="855" y="91"/>
      <point x="860" y="125"/>
      <point x="845" y="149" type="curve" smooth="yes"/>
      <point x="798" y="225" type="line"/>
      <point x="761" y="359" type="line" smooth="yes"/>
      <point x="757" y="373"/>
      <point x="743" y="390"/>
      <point x="730" y="396" type="curve" smooth="yes"/>
      <point x="628" y="447" type="line" smooth="yes"/>
      <point x="623" y="449"/>
      <point x="613" y="452"/>
      <point x="607" y="453" type="curve" smooth="yes"/>
      <point x="544" y="458" type="line"/>
      <point x="546" y="460" type="line" smooth="yes"/>
      <point x="561" y="479"/>
      <point x="564" y="510"/>
      <point x="551" y="530" type="curve" smooth="yes"/>
      <point x="506" y="606" type="line"/>
      <point x="530" y="680" type="line" smooth="yes"/>
      <point x="531" y="684"/>
      <point x="532" y="690"/>
      <point x="533" y="694" type="curve" smooth="yes"/>
      <point x="537" y="739" type="line"/>
      <point x="675" y="713" type="line"/>
      <point x="677" y="680" type="line" smooth="yes"/>
      <point x="677" y="676"/>
      <point x="678" y="670"/>
      <point x="679" y="666" type="curve" smooth="yes"/>
      <point x="702" y="583" type="line" smooth="yes"/>
      <point x="711" y="552"/>
      <point x="745" y="532"/>
      <point x="776" y="541" type="curve" smooth="yes"/>
      <point x="807" y="550"/>
      <point x="827" y="584"/>
      <point x="818" y="615" type="curve" smooth="yes"/>
      <point x="796" y="692" type="line"/>
      <point x="793" y="765" type="line" smooth="yes"/>
      <point x="792" y="792"/>
      <point x="770" y="817"/>
      <point x="744" y="822" type="curve" smooth="yes"/>
      <point x="553" y="858" type="line" smooth="yes"/>
      <point x="550" y="859"/>
      <point x="545" y="859"/>
      <point x="542" y="859" type="curve" smooth="yes"/>
      <point x="330" y="859" type="line" smooth="yes"/>
      <point x="325" y="859"/>
      <point x="317" y="858"/>
      <point x="312" y="856" type="curve" smooth="yes"/>
      <point x="196" y="820" type="line" smooth="yes"/>
      <point x="190" y="818"/>
      <point x="181" y="814"/>
      <point x="177" y="810" type="curve" smooth="yes"/>
      <point x="72" y="729" type="line" smooth="yes"/>
      <point x="48" y="710"/>
      <point x="42" y="674"/>
      <point x="60" y="648" type="curve" smooth="yes"/>
      <point x="116" y="565" type="line" smooth="yes"/>
      <point x="119" y="562"/>
      <point x="121" y="559"/>
      <point x="125" y="556" type="curve"/>
      <point x="151" y="442" type="line" smooth="yes"/>
      <point x="152" y="438"/>
      <point x="154" y="431"/>
      <point x="156" y="427" type="curve" smooth="yes"/>
      <point x="183" y="377" type="line" smooth="yes"/>
      <point x="191" y="360"/>
      <point x="214" y="346"/>
      <point x="233" y="345" type="curve" smooth="yes"/>
      <point x="383" y="339" type="line"/>
      <point x="413" y="292" type="line"/>
      <point x="387" y="220" type="line" smooth="yes"/>
      <point x="384" y="213"/>
      <point x="383" y="203"/>
      <point x="383" y="196" type="curve" smooth="yes"/>
      <point x="388" y="107" type="line"/>
      <point x="373" y="59" type="line"/>
      <point x="349" y="59" type="line"/>
      <point x="331" y="63" type="line"/>
      <point x="237" y="99" type="line"/>
      <point x="235" y="200" type="line" smooth="yes"/>
      <point x="234" y="233"/>
      <point x="206" y="260"/>
      <point x="174" y="259" type="curve" smooth="yes"/>
      <point x="141" y="258"/>
      <point x="114" y="230"/>
      <point x="115" y="198" type="curve" smooth="yes"/>
      <point x="118" y="56" type="line" smooth="yes"/>
      <point x="119" y="34"/>
      <point x="136" y="9"/>
      <point x="157" y="1" type="curve" smooth="yes"/>
      <point x="292" y="-50" type="line" smooth="yes"/>
      <point x="294" y="-51"/>
      <point x="297" y="-52"/>
      <point x="299" y="-52" type="curve" smooth="yes"/>
      <point x="328" y="-59" type="line" smooth="yes"/>
      <point x="332" y="-60"/>
      <point x="338" y="-61"/>
    </contour>
  </outline>
</glyph>
<glyph name="percent" format="1">
  <advance width="847"/>
  <unicode hex="0025"/>
  <outline>
    <contour>
      <point x="144" y="539" type="curve" smooth="yes"/>
      <point x="345" y="539" type="line" smooth="yes"/>
      <point x="375" y="539"/>
      <point x="402" y="563"/>
      <point x="405" y="593" type="curve" smooth="yes"/>
      <point x="415" y="693" type="line" smooth="yes"/>
      <point x="418" y="725"/>
      <point x="393" y="755"/>
      <point x="361" y="759" type="curve" smooth="yes"/>
      <point x="357" y="759"/>
      <point x="354" y="759"/>
      <point x="350" y="759" type="curve"/>
      <point x="364" y="774"/>
      <point x="370" y="795"/>
      <point x="364" y="816" type="curve" smooth="yes"/>
      <point x="354" y="847"/>
      <point x="320" y="866"/>
      <point x="289" y="857" type="curve" smooth="yes"/>
      <point x="165" y="820" type="line" smooth="yes"/>
      <point x="156" y="818"/>
      <point x="144" y="810"/>
      <point x="138" y="803" type="curve" smooth="yes"/>
      <point x="65" y="722" type="line" smooth="yes"/>
      <point x="51" y="707"/>
      <point x="46" y="678"/>
      <point x="54" y="659" type="curve" smooth="yes"/>
      <point x="89" y="576" type="line" smooth="yes"/>
      <point x="97" y="556"/>
      <point x="122" y="539"/>
    </contour>
    <contour>
      <point x="157" y="-42" type="curve" smooth="yes"/>
      <point x="229" y="37" type="line"/>
      <point x="309" y="117" type="line" smooth="yes"/>
      <point x="312" y="119"/>
      <point x="316" y="124"/>
      <point x="318" y="128" type="curve" smooth="yes"/>
      <point x="367" y="208" type="line" smooth="yes"/>
      <point x="372" y="215"/>
      <point x="376" y="229"/>
      <point x="376" y="238" type="curve" smooth="yes"/>
      <point x="377" y="289" type="line"/>
      <point x="456" y="352" type="line" smooth="yes"/>
      <point x="462" y="357"/>
      <point x="469" y="366"/>
      <point x="473" y="372" type="curve" smooth="yes"/>
      <point x="506" y="438" type="line"/>
      <point x="611" y="509" type="line" smooth="yes"/>
      <point x="632" y="524"/>
      <point x="642" y="556"/>
      <point x="633" y="580" type="curve" smooth="yes"/>
      <point x="621" y="614" type="line"/>
      <point x="709" y="668" type="line" smooth="yes"/>
      <point x="720" y="674"/>
      <point x="731" y="689"/>
      <point x="735" y="700" type="curve" smooth="yes"/>
      <point x="761" y="780" type="line" smooth="yes"/>
      <point x="771" y="811"/>
      <point x="753" y="846"/>
      <point x="723" y="856" type="curve" smooth="yes"/>
      <point x="692" y="866"/>
      <point x="657" y="848"/>
      <point x="647" y="818" type="curve" smooth="yes"/>
      <point x="628" y="759" type="line"/>
      <point x="516" y="690" type="line" smooth="yes"/>
      <point x="492" y="676"/>
      <point x="481" y="644"/>
      <point x="491" y="618" type="curve" smooth="yes"/>
      <point x="504" y="582" type="line"/>
      <point x="425" y="529" type="line" smooth="yes"/>
      <point x="418" y="524"/>
      <point x="409" y="514"/>
      <point x="405" y="506" type="curve" smooth="yes"/>
      <point x="371" y="438" type="line"/>
      <point x="281" y="366" type="line" smooth="yes"/>
      <point x="269" y="356"/>
      <point x="258" y="336"/>
      <point x="258" y="320" type="curve" smooth="yes"/>
      <point x="256" y="257" type="line"/>
      <point x="220" y="196" type="line"/>
      <point x="145" y="121" type="line"/>
      <point x="69" y="40" type="line" smooth="yes"/>
      <point x="47" y="16"/>
      <point x="48" y="-23"/>
      <point x="72" y="-45" type="curve" smooth="yes"/>
      <point x="96" y="-67"/>
      <point x="135" y="-66"/>
    </contour>
    <contour>
      <point x="295" y="705" type="curve" smooth="yes"/>
      <point x="291" y="659" type="line"/>
      <point x="184" y="659" type="line"/>
      <point x="179" y="670" type="line"/>
      <point x="215" y="710" type="line"/>
      <point x="309" y="737" type="line"/>
      <point x="302" y="729"/>
      <point x="297" y="717"/>
    </contour>
    <contour>
      <point x="578" y="-59" type="curve" smooth="yes"/>
      <point x="709" y="-23" type="line" smooth="yes"/>
      <point x="722" y="-19"/>
      <point x="739" y="-6"/>
      <point x="745" y="6" type="curve" smooth="yes"/>
      <point x="790" y="87" type="line" smooth="yes"/>
      <point x="801" y="106"/>
      <point x="798" y="136"/>
      <point x="785" y="153" type="curve" smooth="yes"/>
      <point x="719" y="236" type="line" smooth="yes"/>
      <point x="709" y="249"/>
      <point x="688" y="259"/>
      <point x="672" y="259" type="curve" smooth="yes"/>
      <point x="546" y="259" type="line" smooth="yes"/>
      <point x="531" y="259"/>
      <point x="510" y="249"/>
      <point x="500" y="238" type="curve" smooth="yes"/>
      <point x="416" y="138" type="line" smooth="yes"/>
      <point x="395" y="113"/>
      <point x="399" y="74"/>
      <point x="423" y="53" type="curve" smooth="yes"/>
      <point x="448" y="32"/>
      <point x="487" y="36"/>
      <point x="508" y="60" type="curve" smooth="yes"/>
      <point x="574" y="139" type="line"/>
      <point x="643" y="139" type="line"/>
      <point x="666" y="110" type="line"/>
      <point x="653" y="86" type="line"/>
      <point x="546" y="57" type="line" smooth="yes"/>
      <point x="515" y="48"/>
      <point x="496" y="14"/>
      <point x="504" y="-17" type="curve" smooth="yes"/>
      <point x="513" y="-48"/>
      <point x="547" y="-67"/>
    </contour>
  </outline>
</glyph>
<glyph name="ampersand" format="1">
  <advance width="865"/>
  <unicode hex="0026"/>
  <outline>
    <contour>
      <point x="679" y="-58" type="curve" smooth="yes"/>
      <point x="711" y="-51"/>
      <point x="732" y="-18"/>
      <point x="726" y="13" type="curve" smooth="yes"/>
      <point x="709" y="93" type="line" smooth="yes"/>
      <point x="707" y="100"/>
      <point x="703" y="111"/>
      <point x="698" y="117" type="curve" smooth="yes"/>
      <point x="644" y="190" type="line"/>
      <point x="621" y="254" type="line"/>
      <point x="663" y="282" type="line"/>
      <point x="784" y="347" type="line" smooth="yes"/>
      <point x="812" y="363"/>
      <point x="823" y="400"/>
      <point x="808" y="429" type="curve" smooth="yes"/>
      <point x="792" y="457"/>
      <point x="755" y="468"/>
      <point x="726" y="453" type="curve" smooth="yes"/>
      <point x="603" y="386" type="line" smooth="yes"/>
      <point x="602" y="386"/>
      <point x="600" y="384"/>
      <point x="598" y="383" type="curve" smooth="yes"/>
      <point x="526" y="335" type="line"/>
      <point x="498" y="353" type="line"/>
      <point x="498" y="368" type="line"/>
      <point x="564" y="411" type="line" smooth="yes"/>
      <point x="571" y="416"/>
      <point x="581" y="426"/>
      <point x="585" y="434" type="curve" smooth="yes"/>
      <point x="655" y="576" type="line" smooth="yes"/>
      <point x="658" y="583"/>
      <point x="661" y="595"/>
      <point x="661" y="603" type="curve" smooth="yes"/>
      <point x="661" y="704" type="line"/>
      <point x="657" y="803" type="line" smooth="yes"/>
      <point x="656" y="835"/>
      <point x="629" y="861"/>
      <point x="597" y="861" type="curve" smooth="yes"/>
      <point x="543" y="861" type="line"/>
      <point x="432" y="853" type="line" smooth="yes"/>
      <point x="424" y="853"/>
      <point x="412" y="849"/>
      <point x="405" y="845" type="curve" smooth="yes"/>
      <point x="317" y="793" type="line" smooth="yes"/>
      <point x="308" y="787"/>
      <point x="297" y="774"/>
      <point x="293" y="764" type="curve" smooth="yes"/>
      <point x="234" y="622" type="line" smooth="yes"/>
      <point x="229" y="610"/>
      <point x="229" y="590"/>
      <point x="234" y="577" type="curve" smooth="yes"/>
      <point x="263" y="503" type="line"/>
      <point x="240" y="455" type="line"/>
      <point x="215" y="453" type="line" smooth="yes"/>
      <point x="203" y="453"/>
      <point x="187" y="446"/>
      <point x="179" y="438" type="curve" smooth="yes"/>
      <point x="120" y="386" type="line" smooth="yes"/>
      <point x="111" y="377"/>
      <point x="102" y="360"/>
      <point x="100" y="347" type="curve" smooth="yes"/>
      <point x="86" y="214" type="line"/>
      <point x="54" y="139" type="line" smooth="yes"/>
      <point x="48" y="124"/>
      <point x="49" y="101"/>
      <point x="57" y="86" type="curve" smooth="yes"/>
      <point x="101" y="7" type="line" smooth="yes"/>
      <point x="109" y="-7"/>
      <point x="128" y="-20"/>
      <point x="143" y="-23" type="curve" smooth="yes"/>
      <point x="334" y="-58" type="line" smooth="yes"/>
      <point x="356" y="-62"/>
      <point x="383" y="-50"/>
      <point x="395" y="-32" type="curve" smooth="yes"/>
      <point x="437" y="33" type="line"/>
      <point x="488" y="97" type="line"/>
      <point x="529" y="155" type="line"/>
      <point x="535" y="141" type="line" smooth="yes"/>
      <point x="536" y="136"/>
      <point x="540" y="129"/>
      <point x="543" y="125" type="curve" smooth="yes"/>
      <point x="594" y="56" type="line"/>
      <point x="608" y="-11" type="line" smooth="yes"/>
      <point x="615" y="-43"/>
      <point x="648" y="-64"/>
    </contour>
    <contour>
      <point x="382" y="474" type="line" smooth="yes"/>
      <point x="388" y="487"/>
      <point x="389" y="508"/>
      <point x="384" y="522" type="curve" smooth="yes"/>
      <point x="355" y="598" type="line"/>
      <point x="396" y="700" type="line"/>
      <point x="454" y="735" type="line"/>
      <point x="539" y="740" type="line"/>
      <point x="541" y="700" type="line"/>
      <point x="541" y="617" type="line"/>
      <point x="484" y="502" type="line"/>
      <point x="430" y="467" type="line"/>
      <point x="376" y="461" type="line"/>
    </contour>
    <contour>
      <point x="200" y="175" type="line" smooth="yes"/>
      <point x="202" y="180"/>
      <point x="204" y="188"/>
      <point x="205" y="193" type="curve" smooth="yes"/>
      <point x="217" y="312" type="line"/>
      <point x="243" y="335" type="line"/>
      <point x="337" y="341" type="line"/>
      <point x="374" y="341" type="line" smooth="yes"/>
      <point x="375" y="341"/>
      <point x="376" y="341"/>
      <point x="377" y="341" type="curve"/>
      <point x="376" y="324" type="line" smooth="yes"/>
      <point x="375" y="305"/>
      <point x="388" y="281"/>
      <point x="404" y="270" type="curve" smooth="yes"/>
      <point x="445" y="244" type="line"/>
      <point x="440" y="236" type="line"/>
      <point x="393" y="171" type="line"/>
      <point x="341" y="105" type="line" smooth="yes"/>
      <point x="340" y="103"/>
      <point x="339" y="101"/>
      <point x="338" y="100" type="curve" smooth="yes"/>
      <point x="316" y="67" type="line"/>
      <point x="192" y="90" type="line"/>
      <point x="176" y="119" type="line"/>
    </contour>
  </outline>
</glyph>
<glyph name="asterisk" format="1">
  <advance width="687"/>
  <unicode hex="002A"/>
  <outline>
    <contour>
      <point x="580" y="277" type="curve" smooth="yes"/>
      <point x="594" y="306"/>
      <point x="581" y="343"/>
      <point x="551" y="356" type="curve" smooth="yes"/>
      <point x="423" y="416" type="line"/>
      <point x="406" y="441" type="line"/>
      <point x="406" y="442" type="line"/>
      <point x="577" y="442" type="line" smooth="yes"/>
      <point x="609" y="442"/>
      <point x="637" y="470"/>
      <point x="637" y="502" type="curve" smooth="yes"/>
      <point x="637" y="534"/>
      <point x="609" y="562"/>
      <point x="577" y="562" type="curve" smooth="yes"/>
      <point x="382" y="562" type="line"/>
      <point x="389" y="577" type="line" smooth="yes"/>
      <point x="394" y="588"/>
      <point x="395" y="606"/>
      <point x="392" y="617" type="curve" smooth="yes"/>
      <point x="366" y="717" type="line" smooth="yes"/>
      <point x="358" y="748"/>
      <point x="324" y="768"/>
      <point x="293" y="760" type="curve" smooth="yes"/>
      <point x="262" y="752"/>
      <point x="242" y="718"/>
      <point x="250" y="687" type="curve" smooth="yes"/>
      <point x="271" y="607" type="line"/>
      <point x="250" y="562" type="line"/>
      <point x="110" y="562" type="line" smooth="yes"/>
      <point x="78" y="562"/>
      <point x="50" y="534"/>
      <point x="50" y="502" type="curve" smooth="yes"/>
      <point x="50" y="470"/>
      <point x="78" y="442"/>
      <point x="110" y="442" type="curve" smooth="yes"/>
      <point x="204" y="442" type="line"/>
      <point x="202" y="439" type="line" smooth="yes"/>
      <point x="201" y="438"/>
      <point x="200" y="436"/>
      <point x="199" y="435" type="curve" smooth="yes"/>
      <point x="134" y="335" type="line" smooth="yes"/>
      <point x="116" y="308"/>
      <point x="124" y="269"/>
      <point x="151" y="252" type="curve" smooth="yes"/>
      <point x="178" y="234"/>
      <point x="217" y="242"/>
      <point x="234" y="269" type="curve" smooth="yes"/>
      <point x="298" y="367" type="line"/>
      <point x="305" y="376" type="line"/>
      <point x="332" y="336" type="line" smooth="yes"/>
      <point x="337" y="328"/>
      <point x="348" y="318"/>
      <point x="357" y="314" type="curve" smooth="yes"/>
      <point x="501" y="248" type="line" smooth="yes"/>
      <point x="530" y="234"/>
      <point x="567" y="247"/>
    </contour>
  </outline>
</glyph>
<glyph name="plus" format="1">
  <advance width="647"/>
  <unicode hex="002B"/>
  <outline>
    <contour>
      <point x="364" y="68" type="curve" smooth="yes"/>
      <point x="393" y="83"/>
      <point x="405" y="120"/>
      <point x="391" y="149" type="curve" smooth="yes"/>
      <point x="352" y="226" type="line"/>
      <point x="366" y="262" type="line"/>
      <point x="537" y="262" type="line" smooth="yes"/>
      <point x="569" y="262"/>
      <point x="597" y="290"/>
      <point x="597" y="322" type="curve" smooth="yes"/>
      <point x="597" y="354"/>
      <point x="569" y="382"/>
      <point x="537" y="382" type="curve" smooth="yes"/>
      <point x="352" y="382" type="line"/>
      <point x="317" y="426" type="line"/>
      <point x="359" y="489" type="line" smooth="yes"/>
      <point x="377" y="516"/>
      <point x="369" y="554"/>
      <point x="342" y="572" type="curve" smooth="yes"/>
      <point x="315" y="590"/>
      <point x="277" y="582"/>
      <point x="259" y="555" type="curve" smooth="yes"/>
      <point x="192" y="455" type="line" smooth="yes"/>
      <point x="178" y="435"/>
      <point x="180" y="403"/>
      <point x="196" y="384" type="curve" smooth="yes"/>
      <point x="197" y="382" type="line"/>
      <point x="110" y="382" type="line" smooth="yes"/>
      <point x="78" y="382"/>
      <point x="50" y="354"/>
      <point x="50" y="322" type="curve" smooth="yes"/>
      <point x="50" y="290"/>
      <point x="78" y="262"/>
      <point x="110" y="262" type="curve" smooth="yes"/>
      <point x="238" y="262" type="line"/>
      <point x="231" y="243" type="line" smooth="yes"/>
      <point x="226" y="229"/>
      <point x="227" y="208"/>
      <point x="233" y="195" type="curve" smooth="yes"/>
      <point x="283" y="95" type="line" smooth="yes"/>
      <point x="298" y="66"/>
      <point x="335" y="54"/>
    </contour>
  </outline>
</glyph>
<glyph name="comma" format="1">
  <advance width="367"/>
  <unicode hex="002C"/>
  <outline>
    <contour>
      <point x="110" y="-118" type="curve" smooth="yes"/>
      <point x="257" y="-118" type="line" smooth="yes"/>
      <point x="294" y="-118"/>
      <point x="321" y="-87"/>
      <point x="316" y="-50" type="curve" smooth="yes"/>
      <point x="303" y="50" type="line" smooth="yes"/>
      <point x="303" y="54"/>
      <point x="301" y="60"/>
      <point x="300" y="63" type="curve" smooth="yes"/>
      <point x="262" y="163" type="line" smooth="yes"/>
      <point x="251" y="194"/>
      <point x="215" y="210"/>
      <point x="185" y="198" type="curve" smooth="yes"/>
      <point x="154" y="187"/>
      <point x="138" y="151"/>
      <point x="150" y="121" type="curve" smooth="yes"/>
      <point x="185" y="27" type="line"/>
      <point x="189" y="2" type="line"/>
      <point x="110" y="2" type="line" smooth="yes"/>
      <point x="78" y="2"/>
      <point x="50" y="-26"/>
      <point x="50" y="-58" type="curve" smooth="yes"/>
      <point x="50" y="-90"/>
      <point x="78" y="-118"/>
    </contour>
  </outline>
</glyph>
<glyph name="hyphen" format="1">
  <advance width="385"/>
  <unicode hex="002D"/>
  <outline>
    <contour>
      <point x="110" y="236" type="curve" smooth="yes"/>
      <point x="275" y="236" type="line" smooth="yes"/>
      <point x="307" y="236"/>
      <point x="335" y="264"/>
      <point x="335" y="296" type="curve" smooth="yes"/>
      <point x="335" y="328"/>
      <point x="307" y="356"/>
      <point x="275" y="356" type="curve" smooth="yes"/>
      <point x="110" y="356" type="line" smooth="yes"/>
      <point x="78" y="356"/>
      <point x="50" y="328"/>
      <point x="50" y="296" type="curve" smooth="yes"/>
      <point x="50" y="264"/>
      <point x="78" y="236"/>
    </contour>
  </outline>
</glyph>
<glyph name="period" format="1">
  <advance width="234"/>
  <unicode hex="002E"/>
  <outline>
    <contour>
      <point x="175" y="43" type="curve" smooth="yes"/>
      <point x="157" y="70"/>
      <point x="119" y="78"/>
      <point x="92" y="60" type="curve" smooth="yes"/>
      <point x="77" y="50" type="line" smooth="yes"/>
      <point x="50" y="32"/>
      <point x="42" y="-6"/>
      <point x="60" y="-33" type="curve" smooth="yes"/>
      <point x="78" y="-60"/>
      <point x="116" y="-68"/>
      <point x="143" y="-50" type="curve" smooth="yes"/>
      <point x="158" y="-40" type="line" smooth="yes"/>
      <point x="185" y="-22"/>
      <point x="193" y="16"/>
    </contour>
  </outline>
</glyph>
<glyph name="slash" format="1">
  <advance width="814"/>
  <unicode hex="002F"/>
  <outline>
    <contour>
      <point x="144" y="-48" type="curve" smooth="yes"/>
      <point x="261" y="32" type="line" smooth="yes"/>
      <point x="264" y="35"/>
      <point x="270" y="40"/>
      <point x="272" y="43" type="curve" smooth="yes"/>
      <point x="341" y="123" type="line" smooth="yes"/>
      <point x="351" y="134"/>
      <point x="357" y="154"/>
      <point x="356" y="169" type="curve" smooth="yes"/>
      <point x="351" y="208" type="line"/>
      <point x="467" y="269" type="line" smooth="yes"/>
      <point x="474" y="273"/>
      <point x="484" y="281"/>
      <point x="488" y="288" type="curve" smooth="yes"/>
      <point x="544" y="368" type="line" smooth="yes"/>
      <point x="553" y="380"/>
      <point x="557" y="403"/>
      <point x="553" y="418" type="curve" smooth="yes"/>
      <point x="542" y="458" type="line"/>
      <point x="618" y="513" type="line" smooth="yes"/>
      <point x="632" y="523"/>
      <point x="643" y="545"/>
      <point x="643" y="562" type="curve" smooth="yes"/>
      <point x="643" y="610" type="line"/>
      <point x="735" y="672" type="line" smooth="yes"/>
      <point x="749" y="682"/>
      <point x="760" y="703"/>
      <point x="761" y="720" type="curve" smooth="yes"/>
      <point x="764" y="800" type="line" smooth="yes"/>
      <point x="765" y="832"/>
      <point x="739" y="861"/>
      <point x="706" y="862" type="curve" smooth="yes"/>
      <point x="674" y="863"/>
      <point x="645" y="837"/>
      <point x="644" y="804" type="curve" smooth="yes"/>
      <point x="642" y="755" type="line"/>
      <point x="549" y="692" type="line" smooth="yes"/>
      <point x="535" y="682"/>
      <point x="523" y="660"/>
      <point x="523" y="642" type="curve" smooth="yes"/>
      <point x="523" y="593" type="line"/>
      <point x="438" y="531" type="line" smooth="yes"/>
      <point x="419" y="517"/>
      <point x="409" y="488"/>
      <point x="415" y="466" type="curve" smooth="yes"/>
      <point x="430" y="413" type="line"/>
      <point x="398" y="368" type="line"/>
      <point x="259" y="295" type="line" smooth="yes"/>
      <point x="239" y="285"/>
      <point x="225" y="258"/>
      <point x="227" y="235" type="curve" smooth="yes"/>
      <point x="233" y="181" type="line"/>
      <point x="187" y="127" type="line"/>
      <point x="76" y="52" type="line" smooth="yes"/>
      <point x="49" y="33"/>
      <point x="42" y="-5"/>
      <point x="60" y="-32" type="curve" smooth="yes"/>
      <point x="79" y="-59"/>
      <point x="117" y="-66"/>
    </contour>
  </outline>
</glyph>
<glyph name="zero" format="1">
  <advance width="880"/>
  <unicode hex="0030"/>
  <outline>
    <contour>
      <point x="340" y="-58" type="curve" smooth="yes"/>
      <point x="573" y="-58" type="line" smooth="yes"/>
      <point x="582" y="-58"/>
      <point x="596" y="-54"/>
      <point x="604" y="-50" type="curve" smooth="yes"/>
      <point x="664" y="-13" type="line" smooth="yes"/>
      <point x="668" y="-11"/>
      <point x="674" y="-6"/>
      <point x="678" y="-3" type="curve" smooth="yes"/>
      <point x="752" y="78" type="line" smooth="yes"/>
      <point x="766" y="93"/>
      <point x="771" y="121"/>
      <point x="764" y="140" type="curve" smooth="yes"/>
      <point x="742" y="196" type="line"/>
      <point x="787" y="272" type="line" smooth="yes"/>
      <point x="793" y="283"/>
      <point x="796" y="303"/>
      <point x="793" y="315" type="curve" smooth="yes"/>
      <point x="772" y="409" type="line"/>
      <point x="770" y="486" type="line"/>
      <point x="822" y="571" type="line" smooth="yes"/>
      <point x="835" y="592"/>
      <point x="832" y="623"/>
      <point x="816" y="642" type="curve" smooth="yes"/>
      <point x="772" y="692" type="line"/>
      <point x="765" y="702" type="line"/>
      <point x="780" y="726"/>
      <point x="776" y="759"/>
      <point x="754" y="779" type="curve" smooth="yes"/>
      <point x="739" y="793"/>
      <point x="717" y="797"/>
      <point x="697" y="791" type="curve"/>
      <point x="692" y="797"/>
      <point x="684" y="803"/>
      <point x="678" y="805" type="curve" smooth="yes"/>
      <point x="559" y="857" type="line" smooth="yes"/>
      <point x="553" y="860"/>
      <point x="542" y="862"/>
      <point x="535" y="862" type="curve" smooth="yes"/>
      <point x="293" y="862" type="line" smooth="yes"/>
      <point x="289" y="862"/>
      <point x="283" y="861"/>
      <point x="279" y="860" type="curve" smooth="yes"/>
      <point x="127" y="824" type="line" smooth="yes"/>
      <point x="98" y="817"/>
      <point x="78" y="787"/>
      <point x="82" y="758" type="curve" smooth="yes"/>
      <point x="93" y="677" type="line" smooth="yes"/>
      <point x="93" y="675"/>
      <point x="94" y="672"/>
      <point x="94" y="670" type="curve" smooth="yes"/>
      <point x="109" y="612" type="line"/>
      <point x="59" y="534" type="line" smooth="yes"/>
      <point x="53" y="524"/>
      <point x="49" y="506"/>
      <point x="51" y="494" type="curve" smooth="yes"/>
      <point x="65" y="394" type="line" smooth="yes"/>
      <point x="65" y="392"/>
      <point x="65" y="390"/>
      <point x="66" y="388" type="curve" smooth="yes"/>
      <point x="86" y="305" type="line"/>
      <point x="56" y="222" type="line" smooth="yes"/>
      <point x="52" y="210"/>
      <point x="53" y="190"/>
      <point x="58" y="179" type="curve" smooth="yes"/>
      <point x="93" y="95" type="line" smooth="yes"/>
      <point x="96" y="89"/>
      <point x="102" y="80"/>
      <point x="107" y="75" type="curve" smooth="yes"/>
      <point x="111" y="71" type="line"/>
      <point x="105" y="47"/>
      <point x="115" y="19"/>
      <point x="137" y="5" type="curve" smooth="yes"/>
      <point x="152" y="-4"/>
      <point x="171" y="-6"/>
      <point x="187" y="-1" type="curve"/>
      <point x="193" y="-6" type="line" smooth="yes"/>
      <point x="196" y="-9"/>
      <point x="201" y="-13"/>
      <point x="205" y="-15" type="curve" smooth="yes"/>
      <point x="271" y="-51" type="line" smooth="yes"/>
      <point x="286" y="-59"/>
      <point x="304" y="-60"/>
      <point x="320" y="-54" type="curve"/>
      <point x="326" y="-57"/>
      <point x="333" y="-58"/>
    </contour>
    <contour>
      <point x="211" y="238" type="curve" smooth="yes"/>
      <point x="183" y="192" type="line"/>
      <point x="177" y="204" type="line"/>
      <point x="205" y="282" type="line" smooth="yes"/>
      <point x="208" y="291"/>
      <point x="209" y="307"/>
      <point x="206" y="316" type="curve" smooth="yes"/>
      <point x="183" y="413" type="line"/>
      <point x="172" y="488" type="line"/>
      <point x="225" y="570" type="line" smooth="yes"/>
      <point x="232" y="582"/>
      <point x="236" y="603"/>
      <point x="232" y="617" type="curve" smooth="yes"/>
      <point x="211" y="697" type="line"/>
      <point x="208" y="720" type="line"/>
      <point x="300" y="742" type="line"/>
      <point x="523" y="742" type="line"/>
      <point x="607" y="705" type="line"/>
      <point x="605" y="703" type="line"/>
      <point x="510" y="631" type="line" smooth="yes"/>
      <point x="508" y="630"/>
      <point x="505" y="627"/>
      <point x="503" y="625" type="curve" smooth="yes"/>
      <point x="429" y="550" type="line" smooth="yes"/>
      <point x="427" y="549"/>
      <point x="425" y="546"/>
      <point x="424" y="544" type="curve" smooth="yes"/>
      <point x="367" y="469" type="line"/>
      <point x="309" y="394" type="line" smooth="yes"/>
      <point x="299" y="381"/>
      <point x="294" y="359"/>
      <point x="298" y="343" type="curve" smooth="yes"/>
      <point x="306" y="309" type="line"/>
      <point x="229" y="256" type="line" smooth="yes"/>
      <point x="223" y="252"/>
      <point x="215" y="244"/>
    </contour>
    <contour>
      <point x="267" y="100" type="line"/>
      <point x="307" y="164" type="line"/>
      <point x="408" y="232" type="line" smooth="yes"/>
      <point x="427" y="245"/>
      <point x="438" y="274"/>
      <point x="433" y="296" type="curve" smooth="yes"/>
      <point x="421" y="343" type="line"/>
      <point x="462" y="396" type="line"/>
      <point x="517" y="469" type="line"/>
      <point x="585" y="538" type="line"/>
      <point x="682" y="611" type="line" smooth="yes"/>
      <point x="682" y="611"/>
      <point x="683" y="611"/>
      <point x="683" y="611" type="curve"/>
      <point x="697" y="596" type="line"/>
      <point x="659" y="533" type="line" smooth="yes"/>
      <point x="654" y="525"/>
      <point x="650" y="510"/>
      <point x="650" y="501" type="curve" smooth="yes"/>
      <point x="652" y="401" type="line" smooth="yes"/>
      <point x="652" y="397"/>
      <point x="653" y="392"/>
      <point x="654" y="389" type="curve" smooth="yes"/>
      <point x="671" y="312" type="line"/>
      <point x="624" y="232" type="line" smooth="yes"/>
      <point x="616" y="219"/>
      <point x="614" y="196"/>
      <point x="620" y="181" type="curve" smooth="yes"/>
      <point x="638" y="132" type="line"/>
      <point x="595" y="85" type="line"/>
      <point x="556" y="62" type="line"/>
      <point x="340" y="62" type="line" smooth="yes"/>
      <point x="333" y="62"/>
      <point x="327" y="61"/>
      <point x="321" y="59" type="curve"/>
      <point x="269" y="87" type="line"/>
      <point x="263" y="93" type="line"/>
    </contour>
  </outline>
</glyph>
<glyph name="one" format="1">
  <advance width="858"/>
  <unicode hex="0031"/>
  <outline>
    <contour>
      <point x="110" y="-59" type="curve" smooth="yes"/>
      <point x="748" y="-59" type="line" smooth="yes"/>
      <point x="780" y="-59"/>
      <point x="808" y="-31"/>
      <point x="808" y="1" type="curve" smooth="yes"/>
      <point x="808" y="33"/>
      <point x="780" y="61"/>
      <point x="748" y="61" type="curve" smooth="yes"/>
      <point x="441" y="61" type="line"/>
      <point x="471" y="178" type="line"/>
      <point x="526" y="270" type="line" smooth="yes"/>
      <point x="531" y="278"/>
      <point x="535" y="292"/>
      <point x="535" y="302" type="curve" smooth="yes"/>
      <point x="534" y="402" type="line" smooth="yes"/>
      <point x="534" y="405"/>
      <point x="533" y="411"/>
      <point x="533" y="414" type="curve" smooth="yes"/>
      <point x="511" y="510" type="line"/>
      <point x="503" y="606" type="line" smooth="yes"/>
      <point x="502" y="611"/>
      <point x="501" y="618"/>
      <point x="499" y="623" type="curve" smooth="yes"/>
      <point x="484" y="662" type="line"/>
      <point x="483" y="671"/>
      <point x="481" y="678"/>
      <point x="478" y="685" type="curve" smooth="yes"/>
      <point x="458" y="727" type="line" smooth="yes"/>
      <point x="426" y="795"/>
      <point x="326" y="754"/>
      <point x="346" y="686" type="curve"/>
      <point x="308" y="666" type="line"/>
      <point x="263" y="661" type="line"/>
      <point x="194" y="661" type="line" smooth="yes"/>
      <point x="162" y="661"/>
      <point x="134" y="633"/>
      <point x="134" y="601" type="curve" smooth="yes"/>
      <point x="134" y="569"/>
      <point x="162" y="541"/>
      <point x="194" y="541" type="curve" smooth="yes"/>
      <point x="267" y="541" type="line" smooth="yes"/>
      <point x="269" y="541"/>
      <point x="272" y="541"/>
      <point x="274" y="541" type="curve" smooth="yes"/>
      <point x="333" y="548" type="line" smooth="yes"/>
      <point x="340" y="549"/>
      <point x="349" y="552"/>
      <point x="354" y="555" type="curve" smooth="yes"/>
      <point x="385" y="571" type="line"/>
      <point x="392" y="496" type="line" smooth="yes"/>
      <point x="392" y="494"/>
      <point x="393" y="490"/>
      <point x="393" y="488" type="curve" smooth="yes"/>
      <point x="414" y="394" type="line"/>
      <point x="415" y="317" type="line"/>
      <point x="364" y="232" type="line" smooth="yes"/>
      <point x="361" y="228"/>
      <point x="358" y="221"/>
      <point x="357" y="216" type="curve" smooth="yes"/>
      <point x="323" y="82" type="line"/>
      <point x="313" y="65" type="line"/>
      <point x="277" y="61" type="line"/>
      <point x="110" y="61" type="line" smooth="yes"/>
      <point x="78" y="61"/>
      <point x="50" y="33"/>
      <point x="50" y="1" type="curve" smooth="yes"/>
      <point x="50" y="-31"/>
      <point x="78" y="-59"/>
    </contour>
  </outline>
</glyph>
<glyph name="two" format="1">
  <advance width="887"/>
  <unicode hex="0032"/>
  <outline>
    <contour>
      <point x="127" y="-60" type="curve" smooth="yes"/>
      <point x="777" y="-60" type="line" smooth="yes"/>
      <point x="809" y="-60"/>
      <point x="837" y="-32"/>
      <point x="837" y="0" type="curve" smooth="yes"/>
      <point x="837" y="32"/>
      <point x="809" y="60"/>
      <point x="777" y="60" type="curve" smooth="yes"/>
      <point x="202" y="60" type="line"/>
      <point x="208" y="87" type="line" smooth="yes"/>
      <point x="209" y="89"/>
      <point x="210" y="93"/>
      <point x="210" y="96" type="curve" smooth="yes"/>
      <point x="217" y="192" type="line"/>
      <point x="240" y="316" type="line"/>
      <point x="256" y="336" type="line"/>
      <point x="306" y="340" type="line"/>
      <point x="487" y="340" type="line"/>
      <point x="606" y="347" type="line" smooth="yes"/>
      <point x="612" y="347"/>
      <point x="622" y="350"/>
      <point x="628" y="353" type="curve" smooth="yes"/>
      <point x="737" y="404" type="line" smooth="yes"/>
      <point x="750" y="411"/>
      <point x="765" y="428"/>
      <point x="769" y="442" type="curve" smooth="yes"/>
      <point x="809" y="584" type="line" smooth="yes"/>
      <point x="815" y="606"/>
      <point x="805" y="635"/>
      <point x="787" y="648" type="curve" smooth="yes"/>
      <point x="733" y="688" type="line"/>
      <point x="711" y="765" type="line" smooth="yes"/>
      <point x="707" y="781"/>
      <point x="690" y="798"/>
      <point x="675" y="804" type="curve" smooth="yes"/>
      <point x="536" y="856" type="line" smooth="yes"/>
      <point x="530" y="858"/>
      <point x="521" y="860"/>
      <point x="515" y="860" type="curve" smooth="yes"/>
      <point x="296" y="860" type="line" smooth="yes"/>
      <point x="292" y="860"/>
      <point x="284" y="859"/>
      <point x="280" y="858" type="curve" smooth="yes"/>
      <point x="255" y="851" type="line" smooth="yes"/>
      <point x="252" y="850"/>
      <point x="247" y="848"/>
      <point x="244" y="847" type="curve" smooth="yes"/>
      <point x="141" y="795" type="line" smooth="yes"/>
      <point x="130" y="790"/>
      <point x="117" y="776"/>
      <point x="113" y="764" type="curve" smooth="yes"/>
      <point x="54" y="623" type="line" smooth="yes"/>
      <point x="42" y="593"/>
      <point x="57" y="557"/>
      <point x="87" y="544" type="curve" smooth="yes"/>
      <point x="117" y="532"/>
      <point x="153" y="547"/>
      <point x="166" y="577" type="curve" smooth="yes"/>
      <point x="215" y="698" type="line"/>
      <point x="292" y="737" type="line"/>
      <point x="304" y="740" type="line"/>
      <point x="504" y="740" type="line"/>
      <point x="604" y="703" type="line"/>
      <point x="623" y="635" type="line" smooth="yes"/>
      <point x="626" y="625"/>
      <point x="636" y="610"/>
      <point x="645" y="604" type="curve" smooth="yes"/>
      <point x="682" y="576" type="line"/>
      <point x="661" y="501" type="line"/>
      <point x="587" y="466" type="line"/>
      <point x="487" y="460" type="line"/>
      <point x="303" y="460" type="line" smooth="yes"/>
      <point x="302" y="460"/>
      <point x="299" y="460"/>
      <point x="298" y="460" type="curve" smooth="yes"/>
      <point x="219" y="453" type="line" smooth="yes"/>
      <point x="205" y="452"/>
      <point x="186" y="441"/>
      <point x="177" y="430" type="curve" smooth="yes"/>
      <point x="137" y="379" type="line" smooth="yes"/>
      <point x="132" y="372"/>
      <point x="127" y="361"/>
      <point x="125" y="353" type="curve" smooth="yes"/>
      <point x="98" y="211" type="line" smooth="yes"/>
      <point x="98" y="209"/>
      <point x="97" y="206"/>
      <point x="97" y="204" type="curve" smooth="yes"/>
      <point x="90" y="109" type="line"/>
      <point x="69" y="13" type="line" smooth="yes"/>
      <point x="59" y="-26"/>
      <point x="86" y="-60"/>
    </contour>
  </outline>
</glyph>
<glyph name="three" format="1">
  <advance width="913"/>
  <unicode hex="0033"/>
  <outline>
    <contour>
      <point x="366" y="-59" type="curve" smooth="yes"/>
      <point x="590" y="-59" type="line" smooth="yes"/>
      <point x="592" y="-59"/>
      <point x="595" y="-59"/>
      <point x="597" y="-59" type="curve" smooth="yes"/>
      <point x="660" y="-52" type="line" smooth="yes"/>
      <point x="670" y="-51"/>
      <point x="685" y="-44"/>
      <point x="693" y="-37" type="curve" smooth="yes"/>
      <point x="752" y="14" type="line" smooth="yes"/>
      <point x="755" y="18"/>
      <point x="760" y="24"/>
      <point x="763" y="28" type="curve" smooth="yes"/>
      <point x="850" y="170" type="line" smooth="yes"/>
      <point x="862" y="189"/>
      <point x="861" y="219"/>
      <point x="847" y="237" type="curve" smooth="yes"/>
      <point x="798" y="302" type="line"/>
      <point x="803" y="359" type="line" smooth="yes"/>
      <point x="806" y="390"/>
      <point x="784" y="419"/>
      <point x="754" y="424" type="curve" smooth="yes"/>
      <point x="744" y="426" type="line"/>
      <point x="808" y="467" type="line" smooth="yes"/>
      <point x="818" y="473"/>
      <point x="829" y="487"/>
      <point x="833" y="499" type="curve" smooth="yes"/>
      <point x="861" y="582" type="line" smooth="yes"/>
      <point x="866" y="598"/>
      <point x="863" y="621"/>
      <point x="853" y="635" type="curve" smooth="yes"/>
      <point x="759" y="773" type="line"/>
      <point x="735" y="821" type="line" smooth="yes"/>
      <point x="726" y="838"/>
      <point x="704" y="853"/>
      <point x="684" y="854" type="curve" smooth="yes"/>
      <point x="533" y="861" type="line" smooth="yes"/>
      <point x="532" y="861"/>
      <point x="531" y="861"/>
      <point x="530" y="861" type="curve" smooth="yes"/>
      <point x="316" y="861" type="line" smooth="yes"/>
      <point x="312" y="861"/>
      <point x="305" y="860"/>
      <point x="302" y="859" type="curve" smooth="yes"/>
      <point x="156" y="823" type="line" smooth="yes"/>
      <point x="117" y="813"/>
      <point x="99" y="774"/>
      <point x="117" y="738" type="curve" smooth="yes"/>
      <point x="139" y="693" type="line"/>
      <point x="94" y="640" type="line" smooth="yes"/>
      <point x="72" y="616"/>
      <point x="75" y="577"/>
      <point x="100" y="556" type="curve" smooth="yes"/>
      <point x="124" y="534"/>
      <point x="163" y="537"/>
      <point x="184" y="562" type="curve" smooth="yes"/>
      <point x="256" y="645" type="line" smooth="yes"/>
      <point x="271" y="662"/>
      <point x="275" y="692"/>
      <point x="265" y="711" type="curve" smooth="yes"/>
      <point x="258" y="725" type="line"/>
      <point x="323" y="741" type="line"/>
      <point x="529" y="741" type="line"/>
      <point x="643" y="736" type="line"/>
      <point x="653" y="716" type="line" smooth="yes"/>
      <point x="654" y="714"/>
      <point x="656" y="711"/>
      <point x="657" y="709" type="curve" smooth="yes"/>
      <point x="738" y="592" type="line"/>
      <point x="726" y="557" type="line"/>
      <point x="618" y="488" type="line"/>
      <point x="570" y="461" type="line"/>
      <point x="483" y="461" type="line"/>
      <point x="483" y="341" type="line"/>
      <point x="524" y="341" type="line"/>
      <point x="679" y="315" type="line"/>
      <point x="676" y="290" type="line" smooth="yes"/>
      <point x="675" y="277"/>
      <point x="680" y="259"/>
      <point x="688" y="248" type="curve" smooth="yes"/>
      <point x="726" y="198" type="line"/>
      <point x="666" y="98" type="line"/>
      <point x="628" y="66" type="line"/>
      <point x="587" y="61" type="line"/>
      <point x="372" y="61" type="line"/>
      <point x="230" y="89" type="line"/>
      <point x="220" y="131" type="line" smooth="yes"/>
      <point x="219" y="136"/>
      <point x="216" y="145"/>
      <point x="213" y="149" type="curve" smooth="yes"/>
      <point x="161" y="233" type="line" smooth="yes"/>
      <point x="144" y="260"/>
      <point x="106" y="269"/>
      <point x="78" y="252" type="curve" smooth="yes"/>
      <point x="51" y="235"/>
      <point x="42" y="197"/>
      <point x="59" y="169" type="curve" smooth="yes"/>
      <point x="106" y="94" type="line"/>
      <point x="122" y="24" type="line" smooth="yes"/>
      <point x="127" y="3"/>
      <point x="148" y="-18"/>
      <point x="169" y="-22" type="curve" smooth="yes"/>
      <point x="355" y="-58" type="line" smooth="yes"/>
      <point x="358" y="-59"/>
      <point x="363" y="-59"/>
    </contour>
  </outline>
</glyph>
<glyph name="four" format="1">
  <advance width="894"/>
  <unicode hex="0034"/>
  <outline>
    <contour>
      <point x="778" y="-14" type="curve" smooth="yes"/>
      <point x="804" y="86" type="line" smooth="yes"/>
      <point x="806" y="91"/>
      <point x="806" y="100"/>
      <point x="806" y="106" type="curve" smooth="yes"/>
      <point x="806" y="109" type="line"/>
      <point x="833" y="150" type="line" smooth="yes"/>
      <point x="853" y="180"/>
      <point x="843" y="218"/>
      <point x="813" y="236" type="curve" smooth="yes"/>
      <point x="805" y="240" type="line"/>
      <point x="814" y="287" type="line"/>
      <point x="841" y="384" type="line" smooth="yes"/>
      <point x="845" y="399"/>
      <point x="841" y="421"/>
      <point x="833" y="434" type="curve" smooth="yes"/>
      <point x="782" y="509" type="line"/>
      <point x="807" y="580" type="line" smooth="yes"/>
      <point x="818" y="610"/>
      <point x="802" y="645"/>
      <point x="771" y="656" type="curve" smooth="yes"/>
      <point x="741" y="667"/>
      <point x="706" y="651"/>
      <point x="695" y="620" type="curve" smooth="yes"/>
      <point x="659" y="521" type="line" smooth="yes"/>
      <point x="653" y="505"/>
      <point x="656" y="480"/>
      <point x="665" y="466" type="curve" smooth="yes"/>
      <point x="718" y="390" type="line"/>
      <point x="697" y="317" type="line" smooth="yes"/>
      <point x="697" y="315"/>
      <point x="696" y="313"/>
      <point x="696" y="311" type="curve" smooth="yes"/>
      <point x="694" y="302" type="line"/>
      <point x="670" y="316" type="line"/>
      <point x="608" y="352" type="line" smooth="yes"/>
      <point x="600" y="356"/>
      <point x="587" y="360"/>
      <point x="578" y="360" type="curve" smooth="yes"/>
      <point x="217" y="360" type="line"/>
      <point x="275" y="428" type="line" smooth="yes"/>
      <point x="276" y="430"/>
      <point x="279" y="433"/>
      <point x="280" y="435" type="curve" smooth="yes"/>
      <point x="327" y="512" type="line"/>
      <point x="410" y="590" type="line" smooth="yes"/>
      <point x="411" y="591"/>
      <point x="414" y="593"/>
      <point x="415" y="595" type="curve" smooth="yes"/>
      <point x="485" y="678" type="line" smooth="yes"/>
      <point x="486" y="679"/>
      <point x="488" y="681"/>
      <point x="489" y="683" type="curve" smooth="yes"/>
      <point x="546" y="766" type="line" smooth="yes"/>
      <point x="564" y="793"/>
      <point x="557" y="831"/>
      <point x="530" y="850" type="curve" smooth="yes"/>
      <point x="503" y="868"/>
      <point x="465" y="861"/>
      <point x="446" y="834" type="curve" smooth="yes"/>
      <point x="391" y="753" type="line"/>
      <point x="325" y="675" type="line"/>
      <point x="239" y="594" type="line" smooth="yes"/>
      <point x="236" y="591"/>
      <point x="231" y="585"/>
      <point x="229" y="581" type="curve" smooth="yes"/>
      <point x="180" y="502" type="line"/>
      <point x="112" y="422" type="line" smooth="yes"/>
      <point x="110" y="420"/>
      <point x="107" y="416"/>
      <point x="106" y="413" type="curve" smooth="yes"/>
      <point x="59" y="329" type="line" smooth="yes"/>
      <point x="34" y="286"/>
      <point x="61" y="240"/>
      <point x="111" y="240" type="curve" smooth="yes"/>
      <point x="562" y="240" type="line"/>
      <point x="611" y="212" type="line"/>
      <point x="679" y="173" type="line"/>
      <point x="682" y="140" type="line"/>
      <point x="678" y="133" type="line" smooth="yes"/>
      <point x="665" y="114"/>
      <point x="666" y="90"/>
      <point x="676" y="71" type="curve"/>
      <point x="662" y="16" type="line" smooth="yes"/>
      <point x="654" y="-15"/>
      <point x="674" y="-49"/>
      <point x="705" y="-57" type="curve" smooth="yes"/>
      <point x="736" y="-65"/>
      <point x="770" y="-45"/>
    </contour>
  </outline>
</glyph>
<glyph name="five" format="1">
  <advance width="886"/>
  <unicode hex="0035"/>
  <outline>
    <contour>
      <point x="309" y="-59" type="curve" smooth="yes"/>
      <point x="581" y="-59" type="line" smooth="yes"/>
      <point x="594" y="-59"/>
      <point x="611" y="-52"/>
      <point x="622" y="-42" type="curve"/>
      <point x="736" y="4" type="line" smooth="yes"/>
      <point x="751" y="10"/>
      <point x="767" y="27"/>
      <point x="772" y="43" type="curve" smooth="yes"/>
      <point x="813" y="184" type="line" smooth="yes"/>
      <point x="816" y="196"/>
      <point x="815" y="214"/>
      <point x="810" y="225" type="curve" smooth="yes"/>
      <point x="774" y="308" type="line" smooth="yes"/>
      <point x="773" y="310"/>
      <point x="772" y="312"/>
      <point x="771" y="314" type="curve" smooth="yes"/>
      <point x="726" y="394" type="line" smooth="yes"/>
      <point x="720" y="405"/>
      <point x="706" y="417"/>
      <point x="695" y="421" type="curve" smooth="yes"/>
      <point x="599" y="457" type="line" smooth="yes"/>
      <point x="594" y="459"/>
      <point x="584" y="461"/>
      <point x="578" y="461" type="curve" smooth="yes"/>
      <point x="192" y="461" type="line"/>
      <point x="195" y="497" type="line" smooth="yes"/>
      <point x="195" y="502"/>
      <point x="194" y="510"/>
      <point x="193" y="516" type="curve" smooth="yes"/>
      <point x="173" y="598" type="line"/>
      <point x="194" y="661" type="line"/>
      <point x="220" y="711" type="line"/>
      <point x="380" y="741" type="line"/>
      <point x="776" y="741" type="line" smooth="yes"/>
      <point x="808" y="741"/>
      <point x="836" y="769"/>
      <point x="836" y="801" type="curve" smooth="yes"/>
      <point x="836" y="833"/>
      <point x="808" y="861"/>
      <point x="776" y="861" type="curve" smooth="yes"/>
      <point x="375" y="861" type="line" smooth="yes"/>
      <point x="372" y="861"/>
      <point x="367" y="861"/>
      <point x="364" y="860" type="curve" smooth="yes"/>
      <point x="168" y="824" type="line" smooth="yes"/>
      <point x="152" y="821"/>
      <point x="133" y="807"/>
      <point x="126" y="792" type="curve" smooth="yes"/>
      <point x="85" y="711" type="line" smooth="yes"/>
      <point x="84" y="709"/>
      <point x="83" y="706"/>
      <point x="82" y="704" type="curve" smooth="yes"/>
      <point x="53" y="621" type="line" smooth="yes"/>
      <point x="50" y="611"/>
      <point x="49" y="596"/>
      <point x="52" y="586" type="curve" smooth="yes"/>
      <point x="74" y="496" type="line"/>
      <point x="68" y="405" type="line" smooth="yes"/>
      <point x="66" y="370"/>
      <point x="93" y="341"/>
      <point x="128" y="341" type="curve" smooth="yes"/>
      <point x="567" y="341" type="line"/>
      <point x="632" y="316" type="line"/>
      <point x="665" y="258" type="line"/>
      <point x="691" y="197" type="line"/>
      <point x="664" y="104" type="line"/>
      <point x="564" y="64" type="line" smooth="yes"/>
      <point x="562" y="63"/>
      <point x="561" y="62"/>
      <point x="559" y="61" type="curve"/>
      <point x="317" y="61" type="line"/>
      <point x="211" y="88" type="line"/>
      <point x="199" y="118" type="line"/>
      <point x="223" y="179" type="line" smooth="yes"/>
      <point x="235" y="209"/>
      <point x="219" y="245"/>
      <point x="189" y="257" type="curve" smooth="yes"/>
      <point x="159" y="269"/>
      <point x="123" y="253"/>
      <point x="111" y="223" type="curve" smooth="yes"/>
      <point x="78" y="140" type="line" smooth="yes"/>
      <point x="73" y="127"/>
      <point x="73" y="107"/>
      <point x="79" y="95" type="curve" smooth="yes"/>
      <point x="112" y="14" type="line" smooth="yes"/>
      <point x="118" y="-1"/>
      <point x="136" y="-17"/>
      <point x="153" y="-21" type="curve" smooth="yes"/>
      <point x="294" y="-57" type="line" smooth="yes"/>
      <point x="298" y="-58"/>
      <point x="305" y="-59"/>
    </contour>
  </outline>
</glyph>
<glyph name="six" format="1">
  <advance width="893"/>
  <unicode hex="0036"/>
  <outline>
    <contour>
      <point x="328" y="-59" type="curve" smooth="yes"/>
      <point x="525" y="-59" type="line"/>
      <point x="686" y="-52" type="line" smooth="yes"/>
      <point x="704" y="-51"/>
      <point x="725" y="-38"/>
      <point x="735" y="-23" type="curve" smooth="yes"/>
      <point x="766" y="28" type="line" smooth="yes"/>
      <point x="770" y="34"/>
      <point x="774" y="45"/>
      <point x="775" y="53" type="curve" smooth="yes"/>
      <point x="791" y="194" type="line" smooth="yes"/>
      <point x="791" y="199"/>
      <point x="791" y="207"/>
      <point x="790" y="212" type="curve" smooth="yes"/>
      <point x="774" y="296" type="line" smooth="yes"/>
      <point x="773" y="303"/>
      <point x="768" y="314"/>
      <point x="763" y="320" type="curve" smooth="yes"/>
      <point x="704" y="401" type="line" smooth="yes"/>
      <point x="697" y="410"/>
      <point x="683" y="420"/>
      <point x="672" y="423" type="curve" smooth="yes"/>
      <point x="544" y="459" type="line" smooth="yes"/>
      <point x="540" y="460"/>
      <point x="533" y="461"/>
      <point x="528" y="461" type="curve" smooth="yes"/>
      <point x="409" y="461" type="line"/>
      <point x="240" y="493" type="line"/>
      <point x="212" y="520" type="line"/>
      <point x="249" y="559" type="line" smooth="yes"/>
      <point x="273" y="584"/>
      <point x="272" y="623"/>
      <point x="246" y="645" type="curve" smooth="yes"/>
      <point x="217" y="672" type="line"/>
      <point x="283" y="709" type="line"/>
      <point x="411" y="741" type="line"/>
      <point x="580" y="741" type="line"/>
      <point x="625" y="737" type="line"/>
      <point x="630" y="722" type="line" smooth="yes"/>
      <point x="632" y="718"/>
      <point x="635" y="712"/>
      <point x="637" y="709" type="curve" smooth="yes"/>
      <point x="735" y="567" type="line" smooth="yes"/>
      <point x="753" y="540"/>
      <point x="791" y="533"/>
      <point x="818" y="552" type="curve" smooth="yes"/>
      <point x="845" y="570"/>
      <point x="852" y="608"/>
      <point x="833" y="635" type="curve" smooth="yes"/>
      <point x="741" y="770" type="line"/>
      <point x="725" y="814" type="line" smooth="yes"/>
      <point x="718" y="834"/>
      <point x="695" y="852"/>
      <point x="673" y="854" type="curve" smooth="yes"/>
      <point x="587" y="861" type="line" smooth="yes"/>
      <point x="585" y="861"/>
      <point x="583" y="861"/>
      <point x="582" y="861" type="curve" smooth="yes"/>
      <point x="404" y="861" type="line" smooth="yes"/>
      <point x="400" y="861"/>
      <point x="393" y="860"/>
      <point x="389" y="859" type="curve" smooth="yes"/>
      <point x="247" y="823" type="line" smooth="yes"/>
      <point x="243" y="822"/>
      <point x="236" y="820"/>
      <point x="233" y="818" type="curve" smooth="yes"/>
      <point x="85" y="737" type="line" smooth="yes"/>
      <point x="47" y="716"/>
      <point x="41" y="670"/>
      <point x="74" y="640" type="curve" smooth="yes"/>
      <point x="110" y="607" type="line"/>
      <point x="84" y="561" type="line"/>
      <point x="67" y="543" type="line" smooth="yes"/>
      <point x="52" y="527"/>
      <point x="46" y="498"/>
      <point x="54" y="478" type="curve" smooth="yes"/>
      <point x="86" y="401" type="line"/>
      <point x="54" y="324" type="line" smooth="yes"/>
      <point x="49" y="311"/>
      <point x="49" y="291"/>
      <point x="54" y="278" type="curve" smooth="yes"/>
      <point x="86" y="202" type="line"/>
      <point x="60" y="141" type="line" smooth="yes"/>
      <point x="50" y="118"/>
      <point x="58" y="86"/>
      <point x="79" y="70" type="curve" smooth="yes"/>
      <point x="184" y="-11" type="line" smooth="yes"/>
      <point x="188" y="-14"/>
      <point x="196" y="-18"/>
      <point x="201" y="-20" type="curve" smooth="yes"/>
      <point x="309" y="-56" type="line" smooth="yes"/>
      <point x="314" y="-58"/>
      <point x="323" y="-59"/>
    </contour>
    <contour>
      <point x="519" y="61" type="line"/>
      <point x="338" y="61" type="line"/>
      <point x="249" y="91" type="line"/>
      <point x="189" y="137" type="line"/>
      <point x="206" y="177" type="line" smooth="yes"/>
      <point x="212" y="190"/>
      <point x="212" y="211"/>
      <point x="207" y="224" type="curve" smooth="yes"/>
      <point x="175" y="301" type="line"/>
      <point x="206" y="377" type="line"/>
      <point x="392" y="342" type="line" smooth="yes"/>
      <point x="395" y="341"/>
      <point x="400" y="341"/>
      <point x="403" y="341" type="curve" smooth="yes"/>
      <point x="520" y="341" type="line"/>
      <point x="620" y="313" type="line"/>
      <point x="659" y="260" type="line"/>
      <point x="670" y="199" type="line"/>
      <point x="657" y="79" type="line"/>
      <point x="649" y="67" type="line"/>
    </contour>
  </outline>
</glyph>
<glyph name="seven" format="1">
  <advance width="821"/>
  <unicode hex="0037"/>
  <outline>
    <contour>
      <point x="329" y="-47" type="curve" smooth="yes"/>
      <point x="423" y="38" type="line" smooth="yes"/>
      <point x="429" y="44"/>
      <point x="436" y="54"/>
      <point x="439" y="61" type="curve" smooth="yes"/>
      <point x="468" y="137" type="line"/>
      <point x="536" y="215" type="line" smooth="yes"/>
      <point x="542" y="222"/>
      <point x="549" y="235"/>
      <point x="550" y="244" type="curve" smooth="yes"/>
      <point x="563" y="325" type="line"/>
      <point x="585" y="388" type="line"/>
      <point x="690" y="462" type="line" smooth="yes"/>
      <point x="695" y="466"/>
      <point x="702" y="473"/>
      <point x="705" y="478" type="curve" smooth="yes"/>
      <point x="761" y="564" type="line" smooth="yes"/>
      <point x="769" y="577"/>
      <point x="773" y="599"/>
      <point x="769" y="613" type="curve" smooth="yes"/>
      <point x="745" y="697" type="line" smooth="yes"/>
      <point x="744" y="699"/>
      <point x="743" y="702"/>
      <point x="742" y="704" type="curve" smooth="yes"/>
      <point x="708" y="784" type="line" smooth="yes"/>
      <point x="702" y="799"/>
      <point x="685" y="814"/>
      <point x="670" y="818" type="curve" smooth="yes"/>
      <point x="548" y="855" type="line" smooth="yes"/>
      <point x="543" y="856"/>
      <point x="536" y="857"/>
      <point x="531" y="857" type="curve" smooth="yes"/>
      <point x="110" y="857" type="line" smooth="yes"/>
      <point x="78" y="857"/>
      <point x="50" y="829"/>
      <point x="50" y="797" type="curve" smooth="yes"/>
      <point x="50" y="765"/>
      <point x="78" y="737"/>
      <point x="110" y="737" type="curve" smooth="yes"/>
      <point x="522" y="737" type="line"/>
      <point x="609" y="711" type="line"/>
      <point x="631" y="660" type="line"/>
      <point x="646" y="607" type="line"/>
      <point x="611" y="554" type="line"/>
      <point x="499" y="475" type="line" smooth="yes"/>
      <point x="491" y="468"/>
      <point x="481" y="455"/>
      <point x="477" y="445" type="curve" smooth="yes"/>
      <point x="448" y="359" type="line" smooth="yes"/>
      <point x="447" y="357"/>
      <point x="446" y="352"/>
      <point x="446" y="350" type="curve" smooth="yes"/>
      <point x="435" y="281" type="line"/>
      <point x="371" y="208" type="line" smooth="yes"/>
      <point x="367" y="204"/>
      <point x="362" y="195"/>
      <point x="360" y="190" type="curve" smooth="yes"/>
      <point x="332" y="117" type="line"/>
      <point x="249" y="41" type="line" smooth="yes"/>
      <point x="225" y="20"/>
      <point x="223" y="-19"/>
      <point x="245" y="-43" type="curve" smooth="yes"/>
      <point x="266" y="-67"/>
      <point x="305" y="-69"/>
    </contour>
  </outline>
</glyph>
<glyph name="eight" format="1">
  <advance width="859"/>
  <unicode hex="0038"/>
  <outline>
    <contour>
      <point x="309" y="-60" type="curve" smooth="yes"/>
      <point x="542" y="-60" type="line" smooth="yes"/>
      <point x="544" y="-60"/>
      <point x="546" y="-60"/>
      <point x="548" y="-60" type="curve" smooth="yes"/>
      <point x="621" y="-53" type="line" smooth="yes"/>
      <point x="630" y="-52"/>
      <point x="642" y="-47"/>
      <point x="649" y="-43" type="curve" smooth="yes"/>
      <point x="725" y="9" type="line" smooth="yes"/>
      <point x="740" y="19"/>
      <point x="751" y="42"/>
      <point x="751" y="60" type="curve" smooth="yes"/>
      <point x="747" y="192" type="line"/>
      <point x="769" y="267" type="line" smooth="yes"/>
      <point x="769" y="269"/>
      <point x="770" y="272"/>
      <point x="770" y="273" type="curve" smooth="yes"/>
      <point x="784" y="354" type="line" smooth="yes"/>
      <point x="787" y="374"/>
      <point x="780" y="393"/>
      <point x="767" y="407" type="curve"/>
      <point x="786" y="418"/>
      <point x="799" y="443"/>
      <point x="796" y="466" type="curve" smooth="yes"/>
      <point x="780" y="593" type="line"/>
      <point x="806" y="662" type="line" smooth="yes"/>
      <point x="810" y="673"/>
      <point x="811" y="691"/>
      <point x="807" y="701" type="curve" smooth="yes"/>
      <point x="782" y="782" type="line" smooth="yes"/>
      <point x="776" y="802"/>
      <point x="754" y="820"/>
      <point x="734" y="823" type="curve" smooth="yes"/>
      <point x="498" y="859" type="line" smooth="yes"/>
      <point x="496" y="860"/>
      <point x="492" y="860"/>
      <point x="489" y="860" type="curve" smooth="yes"/>
      <point x="314" y="860" type="line" smooth="yes"/>
      <point x="309" y="860"/>
      <point x="302" y="859"/>
      <point x="298" y="858" type="curve" smooth="yes"/>
      <point x="273" y="851" type="line"/>
      <point x="110" y="799" type="line" smooth="yes"/>
      <point x="80" y="789"/>
      <point x="62" y="757"/>
      <point x="70" y="727" type="curve" smooth="yes"/>
      <point x="99" y="611" type="line"/>
      <point x="60" y="549" type="line" smooth="yes"/>
      <point x="43" y="523"/>
      <point x="49" y="487"/>
      <point x="74" y="469" type="curve" smooth="yes"/>
      <point x="157" y="407" type="line"/>
      <point x="134" y="390" type="line" smooth="yes"/>
      <point x="123" y="383"/>
      <point x="113" y="367"/>
      <point x="110" y="354" type="curve" smooth="yes"/>
      <point x="80" y="212" type="line" smooth="yes"/>
      <point x="79" y="206"/>
      <point x="79" y="194"/>
      <point x="80" y="187" type="curve" smooth="yes"/>
      <point x="98" y="104" type="line" smooth="yes"/>
      <point x="100" y="96"/>
      <point x="105" y="85"/>
      <point x="110" y="79" type="curve" smooth="yes"/>
      <point x="173" y="-1" type="line" smooth="yes"/>
      <point x="179" y="-8"/>
      <point x="190" y="-16"/>
      <point x="198" y="-19" type="curve" smooth="yes"/>
      <point x="286" y="-56" type="line" smooth="yes"/>
      <point x="292" y="-58"/>
      <point x="303" y="-60"/>
    </contour>
    <contour>
      <point x="520" y="459" type="line" smooth="yes"/>
      <point x="517" y="460"/>
      <point x="513" y="460"/>
      <point x="510" y="460" type="curve" smooth="yes"/>
      <point x="324" y="460" type="line"/>
      <point x="247" y="489" type="line"/>
      <point x="191" y="531" type="line"/>
      <point x="214" y="567" type="line" smooth="yes"/>
      <point x="222" y="580"/>
      <point x="226" y="601"/>
      <point x="222" y="615" type="curve" smooth="yes"/>
      <point x="200" y="702" type="line"/>
      <point x="306" y="735" type="line"/>
      <point x="322" y="740" type="line"/>
      <point x="484" y="740" type="line"/>
      <point x="679" y="710" type="line"/>
      <point x="687" y="685" type="line"/>
      <point x="663" y="621" type="line" smooth="yes"/>
      <point x="660" y="613"/>
      <point x="658" y="601"/>
      <point x="659" y="592" type="curve" smooth="yes"/>
      <point x="672" y="496" type="line"/>
      <point x="601" y="465" type="line"/>
      <point x="560" y="459" type="line" smooth="yes"/>
      <point x="555" y="459"/>
      <point x="550" y="457"/>
      <point x="545" y="455" type="curve"/>
    </contour>
    <contour>
      <point x="629" y="217" type="line" smooth="yes"/>
      <point x="628" y="212"/>
      <point x="627" y="203"/>
      <point x="627" y="198" type="curve" smooth="yes"/>
      <point x="630" y="90" type="line"/>
      <point x="594" y="65" type="line"/>
      <point x="539" y="60" type="line"/>
      <point x="321" y="60" type="line"/>
      <point x="258" y="86" type="line"/>
      <point x="213" y="143" type="line"/>
      <point x="200" y="200" type="line"/>
      <point x="223" y="307" type="line"/>
      <point x="261" y="334" type="line"/>
      <point x="354" y="340" type="line"/>
      <point x="505" y="340" type="line"/>
      <point x="655" y="315" type="line"/>
      <point x="652" y="297" type="line"/>
    </contour>
  </outline>
</glyph>
<glyph name="nine" format="1">
  <advance width="902"/>
  <unicode hex="0039"/>
  <outline>
    <contour>
      <point x="565" y="458" type="line" smooth="yes"/>
      <point x="561" y="459"/>
      <point x="555" y="460"/>
      <point x="551" y="460" type="curve" smooth="yes"/>
      <point x="384" y="460" type="line"/>
      <point x="238" y="492" type="line"/>
      <point x="175" y="541" type="line"/>
      <point x="184" y="589" type="line"/>
      <point x="208" y="703" type="line"/>
      <point x="260" y="734" type="line"/>
      <point x="376" y="740" type="line"/>
      <point x="461" y="740" type="line"/>
      <point x="520" y="740" type="line"/>
      <point x="660" y="711" type="line"/>
      <point x="674" y="682" type="line"/>
      <point x="650" y="623" type="line" smooth="yes"/>
      <point x="645" y="611"/>
      <point x="644" y="592"/>
      <point x="649" y="580" type="curve" smooth="yes"/>
      <point x="684" y="483" type="line"/>
      <point x="698" y="427" type="line"/>
    </contour>
    <contour>
      <point x="358" y="-60" type="line"/>
      <point x="505" y="-60" type="line" smooth="yes"/>
      <point x="508" y="-60"/>
      <point x="514" y="-59"/>
      <point x="517" y="-59" type="curve" smooth="yes"/>
      <point x="692" y="-23" type="line" smooth="yes"/>
      <point x="699" y="-21"/>
      <point x="709" y="-17"/>
      <point x="715" y="-13" type="curve" smooth="yes"/>
      <point x="827" y="68" type="line" smooth="yes"/>
      <point x="848" y="83"/>
      <point x="858" y="115"/>
      <point x="847" y="140" type="curve" smooth="yes"/>
      <point x="821" y="202" type="line"/>
      <point x="849" y="280" type="line" smooth="yes"/>
      <point x="852" y="290"/>
      <point x="853" y="305"/>
      <point x="850" y="315" type="curve" smooth="yes"/>
      <point x="824" y="415" type="line"/>
      <point x="799" y="515" type="line" smooth="yes"/>
      <point x="799" y="516"/>
      <point x="798" y="519"/>
      <point x="797" y="520" type="curve" smooth="yes"/>
      <point x="769" y="598" type="line"/>
      <point x="795" y="660" type="line" smooth="yes"/>
      <point x="801" y="674"/>
      <point x="801" y="696"/>
      <point x="794" y="709" type="curve" smooth="yes"/>
      <point x="756" y="790" type="line" smooth="yes"/>
      <point x="749" y="805"/>
      <point x="730" y="819"/>
      <point x="714" y="823" type="curve" smooth="yes"/>
      <point x="538" y="859" type="line" smooth="yes"/>
      <point x="535" y="859"/>
      <point x="529" y="860"/>
      <point x="526" y="860" type="curve" smooth="yes"/>
      <point x="370" y="860" type="line"/>
      <point x="239" y="853" type="line" smooth="yes"/>
      <point x="231" y="853"/>
      <point x="219" y="849"/>
      <point x="212" y="845" type="curve" smooth="yes"/>
      <point x="125" y="793" type="line" smooth="yes"/>
      <point x="112" y="786"/>
      <point x="99" y="768"/>
      <point x="96" y="754" type="curve" smooth="yes"/>
      <point x="66" y="611" type="line"/>
      <point x="51" y="527" type="line" smooth="yes"/>
      <point x="47" y="508"/>
      <point x="57" y="482"/>
      <point x="73" y="470" type="curve" smooth="yes"/>
      <point x="174" y="389" type="line" smooth="yes"/>
      <point x="180" y="384"/>
      <point x="191" y="379"/>
      <point x="199" y="377" type="curve" smooth="yes"/>
      <point x="365" y="341" type="line" smooth="yes"/>
      <point x="369" y="341"/>
      <point x="374" y="340"/>
      <point x="378" y="340" type="curve" smooth="yes"/>
      <point x="544" y="340" type="line"/>
      <point x="649" y="315" type="line"/>
      <point x="656" y="274" type="line" smooth="yes"/>
      <point x="657" y="270"/>
      <point x="658" y="263"/>
      <point x="660" y="260" type="curve" smooth="yes"/>
      <point x="696" y="176" type="line" smooth="yes"/>
      <point x="699" y="168"/>
      <point x="704" y="162"/>
      <point x="710" y="156" type="curve"/>
      <point x="718" y="137" type="line"/>
      <point x="655" y="92" type="line"/>
      <point x="499" y="60" type="line"/>
      <point x="358" y="60" type="line"/>
      <point x="278" y="65" type="line"/>
      <point x="259" y="84" type="line"/>
      <point x="253" y="203" type="line" smooth="yes"/>
      <point x="251" y="235"/>
      <point x="222" y="262"/>
      <point x="190" y="260" type="curve" smooth="yes"/>
      <point x="158" y="258"/>
      <point x="131" y="229"/>
      <point x="133" y="197" type="curve" smooth="yes"/>
      <point x="140" y="55" type="line" smooth="yes"/>
      <point x="141" y="43"/>
      <point x="149" y="25"/>
      <point x="158" y="16" type="curve" smooth="yes"/>
      <point x="209" y="-36" type="line" smooth="yes"/>
      <point x="218" y="-44"/>
      <point x="235" y="-52"/>
      <point x="248" y="-53" type="curve" smooth="yes"/>
    </contour>
  </outline>
</glyph>
<glyph name="colon" format="1">
  <advance width="281"/>
  <unicode hex="003A"/>
  <outline>
    <contour>
      <point x="230" y="573" type="curve" smooth="yes"/>
      <point x="236" y="604"/>
      <point x="213" y="636"/>
      <point x="181" y="642" type="curve" smooth="yes"/>
      <point x="130" y="651" type="line" smooth="yes"/>
      <point x="99" y="657"/>
      <point x="67" y="634"/>
      <point x="61" y="602" type="curve" smooth="yes"/>
      <point x="55" y="571"/>
      <point x="78" y="539"/>
      <point x="110" y="533" type="curve" smooth="yes"/>
      <point x="161" y="524" type="line" smooth="yes"/>
      <point x="192" y="518"/>
      <point x="224" y="541"/>
    </contour>
    <contour>
      <point x="50" y="-4" type="curve" smooth="yes"/>
      <point x="53" y="-36"/>
      <point x="83" y="-61"/>
      <point x="115" y="-59" type="curve" smooth="yes"/>
      <point x="163" y="-55" type="line" smooth="yes"/>
      <point x="195" y="-52"/>
      <point x="220" y="-22"/>
      <point x="218" y="10" type="curve" smooth="yes"/>
      <point x="215" y="42"/>
      <point x="185" y="67"/>
      <point x="153" y="65" type="curve" smooth="yes"/>
      <point x="105" y="61" type="line" smooth="yes"/>
      <point x="73" y="58"/>
      <point x="48" y="28"/>
    </contour>
  </outline>
</glyph>
<glyph name="semicolon" format="1">
  <advance width="362"/>
  <unicode hex="003B"/>
  <outline>
    <contour>
      <point x="172" y="555" type="curve" smooth="yes"/>
      <point x="187" y="526"/>
      <point x="224" y="515"/>
      <point x="253" y="530" type="curve" smooth="yes"/>
      <point x="270" y="539" type="line" smooth="yes"/>
      <point x="299" y="554"/>
      <point x="310" y="591"/>
      <point x="295" y="620" type="curve" smooth="yes"/>
      <point x="280" y="649"/>
      <point x="243" y="660"/>
      <point x="214" y="645" type="curve" smooth="yes"/>
      <point x="197" y="636" type="line" smooth="yes"/>
      <point x="168" y="621"/>
      <point x="157" y="584"/>
    </contour>
    <contour>
      <point x="110" y="-68" type="curve" smooth="yes"/>
      <point x="233" y="-68" type="line" smooth="yes"/>
      <point x="269" y="-68"/>
      <point x="296" y="-38"/>
      <point x="293" y="-2" type="curve" smooth="yes"/>
      <point x="284" y="86" type="line"/>
      <point x="310" y="175" type="line" smooth="yes"/>
      <point x="319" y="206"/>
      <point x="300" y="241"/>
      <point x="269" y="250" type="curve" smooth="yes"/>
      <point x="238" y="259"/>
      <point x="203" y="240"/>
      <point x="194" y="209" type="curve" smooth="yes"/>
      <point x="165" y="109" type="line" smooth="yes"/>
      <point x="164" y="103"/>
      <point x="163" y="92"/>
      <point x="163" y="86" type="curve" smooth="yes"/>
      <point x="167" y="52" type="line"/>
      <point x="110" y="52" type="line" smooth="yes"/>
      <point x="78" y="52"/>
      <point x="50" y="24"/>
      <point x="50" y="-8" type="curve" smooth="yes"/>
      <point x="50" y="-40"/>
      <point x="78" y="-68"/>
    </contour>
  </outline>
</glyph>
<glyph name="less" format="1">
  <advance width="601"/>
  <unicode hex="003C"/>
  <outline>
    <contour>
      <point x="499" y="67" type="curve" smooth="yes"/>
      <point x="518" y="93"/>
      <point x="513" y="132"/>
      <point x="487" y="151" type="curve" smooth="yes"/>
      <point x="420" y="201" type="line" smooth="yes"/>
      <point x="417" y="204"/>
      <point x="411" y="207"/>
      <point x="407" y="208" type="curve" smooth="yes"/>
      <point x="293" y="256" type="line"/>
      <point x="219" y="303" type="line"/>
      <point x="194" y="319" type="line"/>
      <point x="243" y="348" type="line"/>
      <point x="391" y="396" type="line" smooth="yes"/>
      <point x="393" y="396"/>
      <point x="395" y="397"/>
      <point x="396" y="398" type="curve" smooth="yes"/>
      <point x="515" y="448" type="line" smooth="yes"/>
      <point x="545" y="460"/>
      <point x="560" y="496"/>
      <point x="547" y="526" type="curve" smooth="yes"/>
      <point x="535" y="556"/>
      <point x="499" y="571"/>
      <point x="469" y="558" type="curve" smooth="yes"/>
      <point x="352" y="509" type="line"/>
      <point x="200" y="460" type="line" smooth="yes"/>
      <point x="196" y="459"/>
      <point x="191" y="457"/>
      <point x="188" y="455" type="curve" smooth="yes"/>
      <point x="103" y="405" type="line" smooth="yes"/>
      <point x="94" y="399"/>
      <point x="83" y="388"/>
      <point x="78" y="378" type="curve" smooth="yes"/>
      <point x="55" y="328" type="line" smooth="yes"/>
      <point x="44" y="302"/>
      <point x="53" y="269"/>
      <point x="77" y="253" type="curve" smooth="yes"/>
      <point x="153" y="203" type="line"/>
      <point x="233" y="152" type="line" smooth="yes"/>
      <point x="235" y="151"/>
      <point x="239" y="149"/>
      <point x="242" y="148" type="curve" smooth="yes"/>
      <point x="354" y="101" type="line"/>
      <point x="415" y="55" type="line" smooth="yes"/>
      <point x="441" y="36"/>
      <point x="480" y="41"/>
    </contour>
  </outline>
</glyph>
<glyph name="equal" format="1">
  <advance width="880"/>
  <unicode hex="003D"/>
  <outline>
    <contour>
      <point x="110" y="378" type="curve" smooth="yes"/>
      <point x="770" y="378" type="line" smooth="yes"/>
      <point x="802" y="378"/>
      <point x="830" y="406"/>
      <point x="830" y="438" type="curve" smooth="yes"/>
      <point x="830" y="470"/>
      <point x="802" y="498"/>
      <point x="770" y="498" type="curve" smooth="yes"/>
      <point x="110" y="498" type="line" smooth="yes"/>
      <point x="78" y="498"/>
      <point x="50" y="470"/>
      <point x="50" y="438" type="curve" smooth="yes"/>
      <point x="50" y="406"/>
      <point x="78" y="378"/>
    </contour>
    <contour>
      <point x="128" y="78" type="curve" smooth="yes"/>
      <point x="692" y="78" type="line" smooth="yes"/>
      <point x="724" y="78"/>
      <point x="752" y="106"/>
      <point x="752" y="138" type="curve" smooth="yes"/>
      <point x="752" y="170"/>
      <point x="724" y="198"/>
      <point x="692" y="198" type="curve" smooth="yes"/>
      <point x="128" y="198" type="line" smooth="yes"/>
      <point x="96" y="198"/>
      <point x="68" y="170"/>
      <point x="68" y="138" type="curve" smooth="yes"/>
      <point x="68" y="106"/>
      <point x="96" y="78"/>
    </contour>
  </outline>
</glyph>
<glyph name="greater" format="1">
  <advance width="635"/>
  <unicode hex="003E"/>
  <outline>
    <contour>
      <point x="195" y="75" type="curve" smooth="yes"/>
      <point x="245" y="117" type="line"/>
      <point x="378" y="163" type="line" smooth="yes"/>
      <point x="389" y="167"/>
      <point x="402" y="178"/>
      <point x="409" y="188" type="curve" smooth="yes"/>
      <point x="430" y="221" type="line"/>
      <point x="543" y="264" type="line" smooth="yes"/>
      <point x="596" y="284"/>
      <point x="600" y="348"/>
      <point x="549" y="374" type="curve" smooth="yes"/>
      <point x="457" y="420" type="line"/>
      <point x="408" y="464" type="line" smooth="yes"/>
      <point x="403" y="469"/>
      <point x="394" y="475"/>
      <point x="387" y="477" type="curve" smooth="yes"/>
      <point x="240" y="526" type="line"/>
      <point x="135" y="574" type="line" smooth="yes"/>
      <point x="106" y="588"/>
      <point x="69" y="575"/>
      <point x="56" y="545" type="curve" smooth="yes"/>
      <point x="42" y="516"/>
      <point x="55" y="479"/>
      <point x="85" y="466" type="curve" smooth="yes"/>
      <point x="193" y="416" type="line" smooth="yes"/>
      <point x="194" y="415"/>
      <point x="197" y="414"/>
      <point x="199" y="413" type="curve" smooth="yes"/>
      <point x="337" y="367" type="line"/>
      <point x="378" y="330" type="line"/>
      <point x="369" y="326" type="line" smooth="yes"/>
      <point x="358" y="322"/>
      <point x="345" y="312"/>
      <point x="339" y="302" type="curve" smooth="yes"/>
      <point x="319" y="270" type="line"/>
      <point x="194" y="227" type="line" smooth="yes"/>
      <point x="188" y="225"/>
      <point x="180" y="220"/>
      <point x="175" y="215" type="curve" smooth="yes"/>
      <point x="117" y="165" type="line" smooth="yes"/>
      <point x="92" y="144"/>
      <point x="89" y="105"/>
      <point x="111" y="81" type="curve" smooth="yes"/>
      <point x="132" y="56"/>
      <point x="171" y="53"/>
    </contour>
  </outline>
</glyph>
<glyph name="question" format="1">
  <advance width="738"/>
  <unicode hex="003F"/>
  <outline>
    <contour>
      <point x="359" y="151" type="curve" smooth="yes"/>
      <point x="385" y="170"/>
      <point x="392" y="209"/>
      <point x="373" y="235" type="curve" smooth="yes"/>
      <point x="322" y="305" type="line"/>
      <point x="338" y="339" type="line"/>
      <point x="373" y="339" type="line"/>
      <point x="482" y="346" type="line" smooth="yes"/>
      <point x="492" y="347"/>
      <point x="506" y="353"/>
      <point x="514" y="359" type="curve" smooth="yes"/>
      <point x="581" y="411" type="line" smooth="yes"/>
      <point x="587" y="415"/>
      <point x="595" y="424"/>
      <point x="598" y="431" type="curve" smooth="yes"/>
      <point x="670" y="573" type="line" smooth="yes"/>
      <point x="673" y="578"/>
      <point x="676" y="586"/>
      <point x="676" y="592" type="curve" smooth="yes"/>
      <point x="688" y="675" type="line" smooth="yes"/>
      <point x="690" y="692"/>
      <point x="682" y="716"/>
      <point x="669" y="727" type="curve" smooth="yes"/>
      <point x="583" y="808" type="line" smooth="yes"/>
      <point x="577" y="813"/>
      <point x="566" y="820"/>
      <point x="558" y="822" type="curve" smooth="yes"/>
      <point x="425" y="858" type="line" smooth="yes"/>
      <point x="420" y="859"/>
      <point x="413" y="860"/>
      <point x="409" y="860" type="curve" smooth="yes"/>
      <point x="327" y="860" type="line"/>
      <point x="231" y="853" type="line" smooth="yes"/>
      <point x="220" y="852"/>
      <point x="205" y="846"/>
      <point x="197" y="839" type="curve" smooth="yes"/>
      <point x="136" y="787" type="line" smooth="yes"/>
      <point x="130" y="782"/>
      <point x="123" y="773"/>
      <point x="120" y="766" type="curve" smooth="yes"/>
      <point x="55" y="624" type="line" smooth="yes"/>
      <point x="42" y="594"/>
      <point x="56" y="558"/>
      <point x="85" y="544" type="curve" smooth="yes"/>
      <point x="115" y="531"/>
      <point x="151" y="545"/>
      <point x="165" y="574" type="curve" smooth="yes"/>
      <point x="223" y="704" type="line"/>
      <point x="260" y="735" type="line"/>
      <point x="327" y="740" type="line"/>
      <point x="401" y="740" type="line"/>
      <point x="512" y="710" type="line"/>
      <point x="565" y="661" type="line"/>
      <point x="559" y="618" type="line"/>
      <point x="498" y="497" type="line"/>
      <point x="455" y="465" type="line"/>
      <point x="373" y="459" type="line"/>
      <point x="301" y="459" type="line" smooth="yes"/>
      <point x="280" y="459"/>
      <point x="256" y="444"/>
      <point x="247" y="426" type="curve" smooth="yes"/>
      <point x="198" y="326" type="line" smooth="yes"/>
      <point x="189" y="308"/>
      <point x="192" y="280"/>
      <point x="203" y="264" type="curve" smooth="yes"/>
      <point x="275" y="165" type="line" smooth="yes"/>
      <point x="294" y="139"/>
      <point x="333" y="132"/>
    </contour>
    <contour>
      <point x="239" y="-25" type="curve" smooth="yes"/>
      <point x="253" y="-54"/>
      <point x="290" y="-68"/>
      <point x="319" y="-55" type="curve" smooth="yes"/>
      <point x="343" y="-44" type="line" smooth="yes"/>
      <point x="372" y="-30"/>
      <point x="386" y="7"/>
      <point x="373" y="36" type="curve" smooth="yes"/>
      <point x="359" y="65"/>
      <point x="322" y="79"/>
      <point x="293" y="66" type="curve" smooth="yes"/>
      <point x="269" y="55" type="line" smooth="yes"/>
      <point x="240" y="41"/>
      <point x="226" y="4"/>
    </contour>
  </outline>
</glyph>
<glyph name="at" format="1">
  <advance width="872"/>
  <unicode hex="0040"/>
  <outline>
    <contour>
      <point x="330" y="-102" type="curve" smooth="yes"/>
      <point x="472" y="-102" type="line" smooth="yes"/>
      <point x="504" y="-102"/>
      <point x="532" y="-74"/>
      <point x="532" y="-42" type="curve" smooth="yes"/>
      <point x="532" y="-10"/>
      <point x="504" y="18"/>
      <point x="472" y="18" type="curve" smooth="yes"/>
      <point x="336" y="18" type="line"/>
      <point x="201" y="47" type="line"/>
      <point x="188" y="73" type="line"/>
      <point x="218" y="130" type="line" smooth="yes"/>
      <point x="226" y="144"/>
      <point x="226" y="168"/>
      <point x="220" y="182" type="curve" smooth="yes"/>
      <point x="186" y="258" type="line"/>
      <point x="222" y="334" type="line" smooth="yes"/>
      <point x="228" y="346"/>
      <point x="229" y="365"/>
      <point x="226" y="377" type="curve" smooth="yes"/>
      <point x="170" y="569" type="line"/>
      <point x="173" y="613" type="line"/>
      <point x="244" y="667" type="line"/>
      <point x="365" y="698" type="line"/>
      <point x="494" y="698" type="line"/>
      <point x="599" y="670" type="line"/>
      <point x="625" y="630" type="line"/>
      <point x="615" y="590" type="line"/>
      <point x="604" y="608"/>
      <point x="584" y="619"/>
      <point x="563" y="618" type="curve" smooth="yes"/>
      <point x="533" y="617" type="line"/>
      <point x="524" y="619"/>
      <point x="514" y="618"/>
      <point x="505" y="616" type="curve"/>
      <point x="391" y="611" type="line" smooth="yes"/>
      <point x="359" y="610"/>
      <point x="333" y="583"/>
      <point x="334" y="550" type="curve" smooth="yes"/>
      <point x="334" y="515" type="line"/>
      <point x="260" y="388" type="line" smooth="yes"/>
      <point x="259" y="387"/>
      <point x="259" y="385"/>
      <point x="258" y="384" type="curve" smooth="yes"/>
      <point x="233" y="332" type="line" smooth="yes"/>
      <point x="224" y="314"/>
      <point x="227" y="287"/>
      <point x="238" y="271" type="curve" smooth="yes"/>
      <point x="308" y="175" type="line" smooth="yes"/>
      <point x="314" y="165"/>
      <point x="329" y="155"/>
      <point x="340" y="152" type="curve" smooth="yes"/>
      <point x="436" y="125" type="line"/>
      <point x="448" y="107"/>
      <point x="470" y="96"/>
      <point x="493" y="98" type="curve" smooth="yes"/>
      <point x="500" y="99"/>
      <point x="506" y="101"/>
      <point x="512" y="104" type="curve"/>
      <point x="527" y="100" type="line" smooth="yes"/>
      <point x="532" y="99"/>
      <point x="541" y="98"/>
      <point x="547" y="98" type="curve" smooth="yes"/>
      <point x="651" y="105" type="line" smooth="yes"/>
      <point x="687" y="108"/>
      <point x="712" y="140"/>
      <point x="705" y="176" type="curve" smooth="yes"/>
      <point x="701" y="199" type="line"/>
      <point x="808" y="319" type="line" smooth="yes"/>
      <point x="821" y="334"/>
      <point x="826" y="362"/>
      <point x="819" y="381" type="curve" smooth="yes"/>
      <point x="780" y="480" type="line" smooth="yes"/>
      <point x="779" y="482"/>
      <point x="778" y="486"/>
      <point x="777" y="488" type="curve" smooth="yes"/>
      <point x="733" y="566" type="line"/>
      <point x="748" y="627" type="line" smooth="yes"/>
      <point x="751" y="641"/>
      <point x="748" y="662"/>
      <point x="740" y="675" type="curve" smooth="yes"/>
      <point x="686" y="755" type="line" smooth="yes"/>
      <point x="679" y="766"/>
      <point x="664" y="777"/>
      <point x="652" y="780" type="curve" smooth="yes"/>
      <point x="518" y="816" type="line" smooth="yes"/>
      <point x="513" y="817"/>
      <point x="506" y="818"/>
      <point x="502" y="818" type="curve" smooth="yes"/>
      <point x="358" y="818" type="line" smooth="yes"/>
      <point x="354" y="818"/>
      <point x="347" y="817"/>
      <point x="343" y="816" type="curve" smooth="yes"/>
      <point x="203" y="781" type="line" smooth="yes"/>
      <point x="196" y="779"/>
      <point x="186" y="774"/>
      <point x="181" y="770" type="curve" smooth="yes"/>
      <point x="78" y="691" type="line" smooth="yes"/>
      <point x="66" y="682"/>
      <point x="56" y="662"/>
      <point x="55" y="647" type="curve" smooth="yes"/>
      <point x="50" y="566" type="line" smooth="yes"/>
      <point x="50" y="560"/>
      <point x="51" y="551"/>
      <point x="52" y="545" type="curve" smooth="yes"/>
      <point x="104" y="365" type="line"/>
      <point x="66" y="285" type="line" smooth="yes"/>
      <point x="59" y="271"/>
      <point x="59" y="249"/>
      <point x="65" y="235" type="curve" smooth="yes"/>
      <point x="98" y="160" type="line"/>
      <point x="68" y="103" type="line" smooth="yes"/>
      <point x="60" y="88"/>
      <point x="59" y="63"/>
      <point x="67" y="48" type="curve" smooth="yes"/>
      <point x="106" y="-32" type="line" smooth="yes"/>
      <point x="113" y="-47"/>
      <point x="132" y="-61"/>
      <point x="147" y="-65" type="curve" smooth="yes"/>
      <point x="318" y="-101" type="line" smooth="yes"/>
      <point x="321" y="-101"/>
      <point x="327" y="-102"/>
    </contour>
    <contour>
      <point x="559" y="446" type="line"/>
      <point x="570" y="498" type="line"/>
      <point x="588" y="499"/>
      <point x="607" y="511"/>
      <point x="617" y="528" type="curve"/>
      <point x="670" y="433" type="line"/>
      <point x="694" y="371" type="line"/>
      <point x="592" y="257" type="line" smooth="yes"/>
      <point x="584" y="248"/>
      <point x="579" y="234"/>
      <point x="578" y="221" type="curve"/>
      <point x="549" y="219" type="line"/>
      <point x="539" y="221" type="line"/>
      <point x="534" y="261" type="line"/>
      <point x="536" y="350" type="line"/>
    </contour>
    <contour>
      <point x="418" y="372" type="line" smooth="yes"/>
      <point x="417" y="369"/>
      <point x="416" y="363"/>
      <point x="416" y="359" type="curve" smooth="yes"/>
      <point x="414" y="259" type="line" smooth="yes"/>
      <point x="414" y="258"/>
      <point x="414" y="257"/>
      <point x="414" y="256" type="curve"/>
      <point x="393" y="262" type="line"/>
      <point x="357" y="312" type="line"/>
      <point x="365" y="330" type="line"/>
      <point x="438" y="455" type="line"/>
    </contour>
  </outline>
</glyph>
<glyph name="A" format="1">
  <advance width="882"/>
  <unicode hex="0041"/>
  <outline>
    <contour>
      <point x="783" y="-13" type="curve" smooth="yes"/>
      <point x="787" y="15" type="line"/>
      <point x="819" y="97" type="line" smooth="yes"/>
      <point x="821" y="102"/>
      <point x="823" y="110"/>
      <point x="823" y="116" type="curve" smooth="yes"/>
      <point x="828" y="237" type="line" smooth="yes"/>
      <point x="828" y="245"/>
      <point x="826" y="257"/>
      <point x="823" y="264" type="curve" smooth="yes"/>
      <point x="779" y="363" type="line"/>
      <point x="778" y="367"/>
      <point x="776" y="372"/>
      <point x="774" y="376" type="curve"/>
      <point x="769" y="386" type="line"/>
      <point x="769" y="501" type="line"/>
      <point x="767" y="575" type="line"/>
      <point x="820" y="641" type="line" smooth="yes"/>
      <point x="837" y="661"/>
      <point x="837" y="695"/>
      <point x="821" y="716" type="curve" smooth="yes"/>
      <point x="759" y="796" type="line" smooth="yes"/>
      <point x="752" y="805"/>
      <point x="738" y="815"/>
      <point x="727" y="818" type="curve" smooth="yes"/>
      <point x="594" y="854" type="line" smooth="yes"/>
      <point x="589" y="855"/>
      <point x="582" y="856"/>
      <point x="578" y="856" type="curve" smooth="yes"/>
      <point x="322" y="856" type="line" smooth="yes"/>
      <point x="318" y="856"/>
      <point x="311" y="855"/>
      <point x="308" y="854" type="curve" smooth="yes"/>
      <point x="165" y="819" type="line" smooth="yes"/>
      <point x="150" y="815"/>
      <point x="133" y="802"/>
      <point x="126" y="789" type="curve" smooth="yes"/>
      <point x="84" y="710" type="line" smooth="yes"/>
      <point x="77" y="698"/>
      <point x="75" y="677"/>
      <point x="79" y="664" type="curve" smooth="yes"/>
      <point x="101" y="590" type="line"/>
      <point x="104" y="501" type="line"/>
      <point x="101" y="406" type="line"/>
      <point x="80" y="314" type="line"/>
      <point x="52" y="213" type="line" smooth="yes"/>
      <point x="48" y="198"/>
      <point x="52" y="174"/>
      <point x="62" y="161" type="curve" smooth="yes"/>
      <point x="115" y="92" type="line"/>
      <point x="91" y="22"/>
      <point x="184" y="-22"/>
      <point x="223" y="42" type="curve" smooth="yes"/>
      <point x="237" y="65" type="line" smooth="yes"/>
      <point x="244" y="76"/>
      <point x="246" y="89"/>
      <point x="245" y="102" type="curve"/>
      <point x="255" y="130" type="line" smooth="yes"/>
      <point x="258" y="140"/>
      <point x="259" y="156"/>
      <point x="256" y="165" type="curve" smooth="yes"/>
      <point x="242" y="220" type="line"/>
      <point x="271" y="261" type="line"/>
      <point x="334" y="286" type="line"/>
      <point x="682" y="286" type="line"/>
      <point x="707" y="228" type="line"/>
      <point x="703" y="131" type="line"/>
      <point x="673" y="52" type="line" smooth="yes"/>
      <point x="672" y="48"/>
      <point x="670" y="42"/>
      <point x="670" y="39" type="curve" smooth="yes"/>
      <point x="665" y="5" type="line" smooth="yes"/>
      <point x="660" y="-27"/>
      <point x="683" y="-59"/>
      <point x="715" y="-63" type="curve" smooth="yes"/>
      <point x="747" y="-68"/>
      <point x="779" y="-45"/>
    </contour>
    <contour>
      <point x="300" y="402" type="curve" smooth="yes"/>
      <point x="216" y="368" type="line"/>
      <point x="219" y="385" type="line" smooth="yes"/>
      <point x="220" y="388"/>
      <point x="221" y="394"/>
      <point x="221" y="397" type="curve" smooth="yes"/>
      <point x="224" y="498" type="line"/>
      <point x="221" y="602" type="line" smooth="yes"/>
      <point x="221" y="606"/>
      <point x="220" y="613"/>
      <point x="219" y="617" type="curve" smooth="yes"/>
      <point x="201" y="675" type="line"/>
      <point x="220" y="709" type="line"/>
      <point x="329" y="736" type="line"/>
      <point x="570" y="736" type="line"/>
      <point x="676" y="707" type="line"/>
      <point x="697" y="680" type="line"/>
      <point x="660" y="634" type="line" smooth="yes"/>
      <point x="652" y="624"/>
      <point x="646" y="607"/>
      <point x="646" y="594" type="curve" smooth="yes"/>
      <point x="649" y="498" type="line"/>
      <point x="649" y="406" type="line"/>
      <point x="322" y="406" type="line" smooth="yes"/>
      <point x="316" y="406"/>
      <point x="306" y="404"/>
    </contour>
  </outline>
</glyph>
<glyph name="B" format="1">
  <advance width="906"/>
  <unicode hex="0042"/>
  <outline>
    <contour>
      <point x="369" y="-56" type="curve" smooth="yes"/>
      <point x="549" y="-56" type="line"/>
      <point x="640" y="-49" type="line" smooth="yes"/>
      <point x="649" y="-48"/>
      <point x="661" y="-44"/>
      <point x="668" y="-39" type="curve" smooth="yes"/>
      <point x="747" y="12" type="line" smooth="yes"/>
      <point x="761" y="21"/>
      <point x="773" y="41"/>
      <point x="775" y="57" type="curve" smooth="yes"/>
      <point x="785" y="180" type="line"/>
      <point x="842" y="249" type="line" smooth="yes"/>
      <point x="864" y="277"/>
      <point x="859" y="316"/>
      <point x="830" y="336" type="curve" smooth="yes"/>
      <point x="722" y="413" type="line"/>
      <point x="734" y="428" type="line" smooth="yes"/>
      <point x="735" y="430"/>
      <point x="738" y="434"/>
      <point x="739" y="436" type="curve" smooth="yes"/>
      <point x="813" y="578" type="line" smooth="yes"/>
      <point x="817" y="586"/>
      <point x="820" y="598"/>
      <point x="820" y="606" type="curve" smooth="yes"/>
      <point x="820" y="689" type="line" smooth="yes"/>
      <point x="819" y="705"/>
      <point x="810" y="725"/>
      <point x="798" y="735" type="curve" smooth="yes"/>
      <point x="704" y="814" type="line" smooth="yes"/>
      <point x="698" y="820"/>
      <point x="686" y="825"/>
      <point x="678" y="827" type="curve" smooth="yes"/>
      <point x="521" y="863" type="line" smooth="yes"/>
      <point x="518" y="863"/>
      <point x="512" y="864"/>
      <point x="508" y="864" type="curve" smooth="yes"/>
      <point x="382" y="864" type="line" smooth="yes"/>
      <point x="377" y="864"/>
      <point x="370" y="863"/>
      <point x="365" y="862" type="curve" smooth="yes"/>
      <point x="245" y="826" type="line" smooth="yes"/>
      <point x="239" y="825"/>
      <point x="232" y="821"/>
      <point x="227" y="818" type="curve" smooth="yes"/>
      <point x="114" y="739" type="line" smooth="yes"/>
      <point x="87" y="720"/>
      <point x="80" y="683"/>
      <point x="99" y="655" type="curve" smooth="yes"/>
      <point x="144" y="592" type="line"/>
      <point x="136" y="528" type="line"/>
      <point x="90" y="460" type="line"/>
      <point x="67" y="452"/>
      <point x="50" y="429"/>
      <point x="50" y="404" type="curve" smooth="yes"/>
      <point x="50" y="384"/>
      <point x="61" y="365"/>
      <point x="77" y="354" type="curve"/>
      <point x="96" y="287" type="line"/>
      <point x="119" y="202" type="line"/>
      <point x="83" y="77" type="line" smooth="yes"/>
      <point x="75" y="45"/>
      <point x="93" y="12"/>
      <point x="124" y="3" type="curve" smooth="yes"/>
      <point x="293" y="-47" type="line" smooth="yes"/>
      <point x="296" y="-48"/>
      <point x="301" y="-49"/>
      <point x="304" y="-49" type="curve" smooth="yes"/>
      <point x="363" y="-56" type="line" smooth="yes"/>
      <point x="364" y="-56"/>
      <point x="367" y="-56"/>
    </contour>
    <contour>
      <point x="244" y="473" type="line" smooth="yes"/>
      <point x="248" y="479"/>
      <point x="253" y="491"/>
      <point x="254" y="499" type="curve" smooth="yes"/>
      <point x="266" y="601" type="line" smooth="yes"/>
      <point x="267" y="614"/>
      <point x="262" y="632"/>
      <point x="255" y="643" type="curve" smooth="yes"/>
      <point x="232" y="675" type="line"/>
      <point x="288" y="714" type="line"/>
      <point x="391" y="744" type="line"/>
      <point x="501" y="744" type="line"/>
      <point x="638" y="713" type="line"/>
      <point x="700" y="661" type="line"/>
      <point x="700" y="621" type="line"/>
      <point x="635" y="496" type="line"/>
      <point x="615" y="470" type="line"/>
      <point x="508" y="464" type="line"/>
      <point x="238" y="464" type="line"/>
    </contour>
    <contour>
      <point x="549" y="64" type="line"/>
      <point x="372" y="64" type="line"/>
      <point x="322" y="69" type="line"/>
      <point x="215" y="101" type="line"/>
      <point x="239" y="186" type="line" smooth="yes"/>
      <point x="241" y="195"/>
      <point x="241" y="209"/>
      <point x="239" y="217" type="curve" smooth="yes"/>
      <point x="212" y="320" type="line"/>
      <point x="205" y="344" type="line"/>
      <point x="586" y="344" type="line"/>
      <point x="652" y="315" type="line"/>
      <point x="708" y="276" type="line"/>
      <point x="681" y="242" type="line" smooth="yes"/>
      <point x="674" y="234"/>
      <point x="668" y="219"/>
      <point x="667" y="209" type="curve" smooth="yes"/>
      <point x="658" y="97" type="line"/>
      <point x="615" y="70" type="line"/>
    </contour>
  </outline>
</glyph>
<glyph name="C" format="1">
  <advance width="888"/>
  <unicode hex="0043"/>
  <outline>
    <contour>
      <point x="406" y="-62" type="curve" smooth="yes"/>
      <point x="571" y="-62" type="line" smooth="yes"/>
      <point x="573" y="-62"/>
      <point x="576" y="-62"/>
      <point x="578" y="-62" type="curve" smooth="yes"/>
      <point x="635" y="-55" type="line" smooth="yes"/>
      <point x="639" y="-54"/>
      <point x="645" y="-53"/>
      <point x="648" y="-51" type="curve" smooth="yes"/>
      <point x="788" y="0" type="line" smooth="yes"/>
      <point x="808" y="7"/>
      <point x="825" y="31"/>
      <point x="827" y="52" type="curve" smooth="yes"/>
      <point x="838" y="193" type="line" smooth="yes"/>
      <point x="840" y="226"/>
      <point x="815" y="255"/>
      <point x="783" y="258" type="curve" smooth="yes"/>
      <point x="750" y="260"/>
      <point x="721" y="235"/>
      <point x="718" y="203" type="curve" smooth="yes"/>
      <point x="710" y="99" type="line"/>
      <point x="613" y="64" type="line"/>
      <point x="567" y="58" type="line"/>
      <point x="408" y="58" type="line"/>
      <point x="312" y="63" type="line"/>
      <point x="254" y="99" type="line"/>
      <point x="172" y="213" type="line"/>
      <point x="177" y="281" type="line"/>
      <point x="222" y="372" type="line" smooth="yes"/>
      <point x="225" y="378"/>
      <point x="227" y="388"/>
      <point x="228" y="394" type="curve" smooth="yes"/>
      <point x="237" y="495" type="line" smooth="yes"/>
      <point x="238" y="506"/>
      <point x="234" y="523"/>
      <point x="228" y="533" type="curve" smooth="yes"/>
      <point x="192" y="590" type="line"/>
      <point x="250" y="638" type="line" smooth="yes"/>
      <point x="266" y="651"/>
      <point x="275" y="679"/>
      <point x="269" y="699" type="curve" smooth="yes"/>
      <point x="263" y="722" type="line"/>
      <point x="319" y="738" type="line"/>
      <point x="578" y="738" type="line"/>
      <point x="701" y="710" type="line"/>
      <point x="716" y="673" type="line"/>
      <point x="710" y="603" type="line" smooth="yes"/>
      <point x="708" y="570"/>
      <point x="733" y="541"/>
      <point x="765" y="538" type="curve" smooth="yes"/>
      <point x="798" y="536"/>
      <point x="827" y="561"/>
      <point x="830" y="593" type="curve" smooth="yes"/>
      <point x="836" y="677" type="line" smooth="yes"/>
      <point x="837" y="684"/>
      <point x="835" y="696"/>
      <point x="833" y="703" type="curve" smooth="yes"/>
      <point x="802" y="783" type="line" smooth="yes"/>
      <point x="796" y="800"/>
      <point x="777" y="817"/>
      <point x="759" y="820" type="curve" smooth="yes"/>
      <point x="598" y="857" type="line" smooth="yes"/>
      <point x="595" y="857"/>
      <point x="589" y="858"/>
      <point x="585" y="858" type="curve" smooth="yes"/>
      <point x="310" y="858" type="line" smooth="yes"/>
      <point x="305" y="858"/>
      <point x="298" y="857"/>
      <point x="293" y="856" type="curve" smooth="yes"/>
      <point x="173" y="820" type="line" smooth="yes"/>
      <point x="143" y="811"/>
      <point x="124" y="779"/>
      <point x="132" y="747" type="curve" smooth="yes"/>
      <point x="143" y="706" type="line"/>
      <point x="75" y="648" type="line" smooth="yes"/>
      <point x="52" y="629"/>
      <point x="47" y="595"/>
      <point x="62" y="570" type="curve" smooth="yes"/>
      <point x="115" y="486" type="line"/>
      <point x="109" y="415" type="line"/>
      <point x="64" y="324" type="line" smooth="yes"/>
      <point x="61" y="318"/>
      <point x="59" y="309"/>
      <point x="58" y="302" type="curve" smooth="yes"/>
      <point x="50" y="201" type="line" smooth="yes"/>
      <point x="49" y="189"/>
      <point x="54" y="171"/>
      <point x="61" y="161" type="curve" smooth="yes"/>
      <point x="164" y="19" type="line" smooth="yes"/>
      <point x="167" y="14"/>
      <point x="175" y="7"/>
      <point x="181" y="3" type="curve" smooth="yes"/>
      <point x="261" y="-47" type="line" smooth="yes"/>
      <point x="269" y="-51"/>
      <point x="281" y="-55"/>
      <point x="290" y="-56" type="curve" smooth="yes"/>
      <point x="403" y="-62" type="line" smooth="yes"/>
      <point x="404" y="-62"/>
      <point x="405" y="-62"/>
    </contour>
  </outline>
</glyph>
<glyph name="D" format="1">
  <advance width="913"/>
  <unicode hex="0044"/>
  <outline>
    <contour>
      <point x="166" y="-61" type="curve" smooth="yes"/>
      <point x="560" y="-61" type="line" smooth="yes"/>
      <point x="562" y="-61"/>
      <point x="564" y="-61"/>
      <point x="566" y="-61" type="curve" smooth="yes"/>
      <point x="636" y="-54" type="line" smooth="yes"/>
      <point x="643" y="-53"/>
      <point x="653" y="-50"/>
      <point x="658" y="-47" type="curve" smooth="yes"/>
      <point x="756" y="4" type="line" smooth="yes"/>
      <point x="767" y="10"/>
      <point x="779" y="24"/>
      <point x="784" y="35" type="curve" smooth="yes"/>
      <point x="840" y="177" type="line" smooth="yes"/>
      <point x="847" y="195"/>
      <point x="843" y="221"/>
      <point x="831" y="236" type="curve" smooth="yes"/>
      <point x="780" y="301" type="line"/>
      <point x="824" y="365" type="line" smooth="yes"/>
      <point x="829" y="371"/>
      <point x="833" y="382"/>
      <point x="834" y="389" type="curve" smooth="yes"/>
      <point x="851" y="489" type="line" smooth="yes"/>
      <point x="855" y="510"/>
      <point x="846" y="532"/>
      <point x="830" y="545" type="curve"/>
      <point x="856" y="556"/>
      <point x="871" y="593"/>
      <point x="858" y="622" type="curve" smooth="yes"/>
      <point x="823" y="706" type="line" smooth="yes"/>
      <point x="820" y="713"/>
      <point x="813" y="722"/>
      <point x="807" y="727" type="curve" smooth="yes"/>
      <point x="716" y="808" type="line" smooth="yes"/>
      <point x="712" y="812"/>
      <point x="704" y="817"/>
      <point x="698" y="819" type="curve" smooth="yes"/>
      <point x="608" y="855" type="line" smooth="yes"/>
      <point x="602" y="857"/>
      <point x="592" y="859"/>
      <point x="586" y="859" type="curve" smooth="yes"/>
      <point x="130" y="859" type="line" smooth="yes"/>
      <point x="82" y="859"/>
      <point x="55" y="816"/>
      <point x="76" y="773" type="curve" smooth="yes"/>
      <point x="109" y="704" type="line"/>
      <point x="60" y="633" type="line" smooth="yes"/>
      <point x="49" y="618"/>
      <point x="47" y="592"/>
      <point x="54" y="575" type="curve" smooth="yes"/>
      <point x="93" y="486" type="line"/>
      <point x="94" y="410" type="line"/>
      <point x="59" y="321" type="line" smooth="yes"/>
      <point x="54" y="307"/>
      <point x="55" y="286"/>
      <point x="61" y="273" type="curve" smooth="yes"/>
      <point x="105" y="181" type="line"/>
      <point x="118" y="98" type="line"/>
      <point x="107" y="7" type="line" smooth="yes"/>
      <point x="102" y="-30"/>
      <point x="129" y="-61"/>
    </contour>
    <contour>
      <point x="238" y="91" type="line" smooth="yes"/>
      <point x="239" y="96"/>
      <point x="239" y="104"/>
      <point x="238" y="108" type="curve" smooth="yes"/>
      <point x="222" y="208" type="line" smooth="yes"/>
      <point x="221" y="213"/>
      <point x="219" y="221"/>
      <point x="217" y="225" type="curve" smooth="yes"/>
      <point x="180" y="301" type="line"/>
      <point x="210" y="377" type="line" smooth="yes"/>
      <point x="212" y="383"/>
      <point x="214" y="393"/>
      <point x="214" y="400" type="curve" smooth="yes"/>
      <point x="213" y="500" type="line" smooth="yes"/>
      <point x="213" y="506"/>
      <point x="211" y="517"/>
      <point x="208" y="523" type="curve" smooth="yes"/>
      <point x="177" y="592" type="line"/>
      <point x="227" y="665" type="line" smooth="yes"/>
      <point x="238" y="681"/>
      <point x="240" y="708"/>
      <point x="232" y="725" type="curve" smooth="yes"/>
      <point x="225" y="739" type="line"/>
      <point x="574" y="739" type="line"/>
      <point x="644" y="711" type="line"/>
      <point x="718" y="646" type="line"/>
      <point x="748" y="576" type="line" smooth="yes"/>
      <point x="752" y="566"/>
      <point x="758" y="558"/>
      <point x="766" y="552" type="curve"/>
      <point x="749" y="544"/>
      <point x="736" y="528"/>
      <point x="733" y="509" type="curve" smooth="yes"/>
      <point x="718" y="422" type="line"/>
      <point x="657" y="333" type="line" smooth="yes"/>
      <point x="643" y="313"/>
      <point x="644" y="281"/>
      <point x="659" y="262" type="curve" smooth="yes"/>
      <point x="716" y="189" type="line"/>
      <point x="680" y="100" type="line"/>
      <point x="613" y="65" type="line"/>
      <point x="557" y="59" type="line"/>
      <point x="234" y="59" type="line"/>
    </contour>
  </outline>
</glyph>
<glyph name="E" format="1">
  <advance width="886"/>
  <unicode hex="0045"/>
  <outline>
    <contour>
      <point x="573" y="-60" type="line" smooth="yes"/>
      <point x="575" y="-60"/>
      <point x="577" y="-60"/>
      <point x="578" y="-60" type="curve"/>
      <point x="587" y="-60"/>
      <point x="595" y="-59"/>
      <point x="603" y="-56" type="curve" smooth="yes"/>
      <point x="694" y="-21" type="line" smooth="yes"/>
      <point x="698" y="-19"/>
      <point x="705" y="-15"/>
      <point x="709" y="-13" type="curve" smooth="yes"/>
      <point x="813" y="66" type="line" smooth="yes"/>
      <point x="828" y="78"/>
      <point x="838" y="102"/>
      <point x="836" y="120" type="curve" smooth="yes"/>
      <point x="828" y="202" type="line" smooth="yes"/>
      <point x="824" y="235"/>
      <point x="794" y="259"/>
      <point x="762" y="256" type="curve" smooth="yes"/>
      <point x="729" y="252"/>
      <point x="705" y="222"/>
      <point x="708" y="190" type="curve" smooth="yes"/>
      <point x="714" y="141" type="line"/>
      <point x="643" y="88" type="line"/>
      <point x="570" y="60" type="line"/>
      <point x="317" y="60" type="line"/>
      <point x="301" y="63" type="line"/>
      <point x="259" y="94" type="line"/>
      <point x="219" y="203" type="line"/>
      <point x="239" y="299" type="line"/>
      <point x="262" y="329" type="line"/>
      <point x="292" y="337" type="line"/>
      <point x="402" y="339" type="line" smooth="yes"/>
      <point x="419" y="339"/>
      <point x="441" y="351"/>
      <point x="450" y="364" type="curve" smooth="yes"/>
      <point x="452" y="366" type="line" smooth="yes"/>
      <point x="482" y="409"/>
      <point x="456" y="460"/>
      <point x="404" y="461" type="curve" smooth="yes"/>
      <point x="365" y="462" type="line"/>
      <point x="235" y="474" type="line"/>
      <point x="190" y="507" type="line"/>
      <point x="172" y="593" type="line"/>
      <point x="193" y="649" type="line"/>
      <point x="251" y="710" type="line"/>
      <point x="356" y="740" type="line"/>
      <point x="555" y="740" type="line"/>
      <point x="599" y="736" type="line"/>
      <point x="625" y="706" type="line"/>
      <point x="726" y="567" type="line" smooth="yes"/>
      <point x="745" y="541"/>
      <point x="784" y="534"/>
      <point x="810" y="553" type="curve" smooth="yes"/>
      <point x="836" y="572"/>
      <point x="843" y="611"/>
      <point x="824" y="637" type="curve" smooth="yes"/>
      <point x="721" y="779" type="line" smooth="yes"/>
      <point x="720" y="780"/>
      <point x="718" y="782"/>
      <point x="717" y="783" type="curve" smooth="yes"/>
      <point x="674" y="833" type="line" smooth="yes"/>
      <point x="665" y="843"/>
      <point x="647" y="852"/>
      <point x="634" y="854" type="curve" smooth="yes"/>
      <point x="563" y="860" type="line" smooth="yes"/>
      <point x="562" y="860"/>
      <point x="559" y="860"/>
      <point x="558" y="860" type="curve" smooth="yes"/>
      <point x="348" y="860" type="line" smooth="yes"/>
      <point x="343" y="860"/>
      <point x="336" y="859"/>
      <point x="332" y="858" type="curve" smooth="yes"/>
      <point x="202" y="821" type="line" smooth="yes"/>
      <point x="193" y="818"/>
      <point x="181" y="811"/>
      <point x="175" y="804" type="curve" smooth="yes"/>
      <point x="98" y="723" type="line" smooth="yes"/>
      <point x="93" y="718"/>
      <point x="87" y="709"/>
      <point x="85" y="702" type="curve" smooth="yes"/>
      <point x="54" y="619" type="line" smooth="yes"/>
      <point x="50" y="610"/>
      <point x="49" y="595"/>
      <point x="51" y="586" type="curve" smooth="yes"/>
      <point x="78" y="460" type="line" smooth="yes"/>
      <point x="80" y="447"/>
      <point x="91" y="431"/>
      <point x="101" y="423" type="curve" smooth="yes"/>
      <point x="154" y="385" type="line"/>
      <point x="135" y="361" type="line" smooth="yes"/>
      <point x="131" y="355"/>
      <point x="126" y="344"/>
      <point x="124" y="337" type="curve" smooth="yes"/>
      <point x="98" y="210" type="line" smooth="yes"/>
      <point x="96" y="201"/>
      <point x="97" y="186"/>
      <point x="101" y="177" type="curve" smooth="yes"/>
      <point x="153" y="36" type="line" smooth="yes"/>
      <point x="156" y="26"/>
      <point x="165" y="14"/>
      <point x="173" y="8" type="curve" smooth="yes"/>
      <point x="241" y="-42" type="line" smooth="yes"/>
      <point x="248" y="-47"/>
      <point x="259" y="-51"/>
      <point x="266" y="-53" type="curve" smooth="yes"/>
      <point x="302" y="-59" type="line" smooth="yes"/>
      <point x="304" y="-60"/>
      <point x="309" y="-60"/>
      <point x="312" y="-60" type="curve" smooth="yes"/>
    </contour>
  </outline>
</glyph>
<glyph name="F" format="1">
  <advance width="858"/>
  <unicode hex="0046"/>
  <outline>
    <contour>
      <point x="178" y="-60" type="curve" smooth="yes"/>
      <point x="211" y="-56"/>
      <point x="235" y="-26"/>
      <point x="232" y="6" type="curve" smooth="yes"/>
      <point x="221" y="105" type="line" smooth="yes"/>
      <point x="221" y="107"/>
      <point x="221" y="109"/>
      <point x="220" y="111" type="curve" smooth="yes"/>
      <point x="203" y="197" type="line"/>
      <point x="228" y="300" type="line"/>
      <point x="244" y="325" type="line"/>
      <point x="336" y="337" type="line"/>
      <point x="414" y="341" type="line" smooth="yes"/>
      <point x="492" y="345"/>
      <point x="491" y="458"/>
      <point x="414" y="461" type="curve" smooth="yes"/>
      <point x="374" y="463" type="line"/>
      <point x="285" y="472" type="line"/>
      <point x="285" y="479" type="line" smooth="yes"/>
      <point x="284" y="490"/>
      <point x="277" y="505"/>
      <point x="269" y="513" type="curve" smooth="yes"/>
      <point x="188" y="601" type="line"/>
      <point x="221" y="642" type="line"/>
      <point x="280" y="709" type="line"/>
      <point x="408" y="740" type="line"/>
      <point x="581" y="740" type="line"/>
      <point x="617" y="736" type="line"/>
      <point x="666" y="706" type="line"/>
      <point x="689" y="590" type="line" smooth="yes"/>
      <point x="696" y="558"/>
      <point x="728" y="537"/>
      <point x="760" y="543" type="curve" smooth="yes"/>
      <point x="792" y="550"/>
      <point x="813" y="582"/>
      <point x="807" y="614" type="curve" smooth="yes"/>
      <point x="778" y="756" type="line" smooth="yes"/>
      <point x="775" y="770"/>
      <point x="763" y="787"/>
      <point x="751" y="795" type="curve" smooth="yes"/>
      <point x="669" y="845" type="line" smooth="yes"/>
      <point x="663" y="849"/>
      <point x="652" y="853"/>
      <point x="645" y="853" type="curve" smooth="yes"/>
      <point x="592" y="860" type="line" smooth="yes"/>
      <point x="590" y="860"/>
      <point x="587" y="860"/>
      <point x="585" y="860" type="curve" smooth="yes"/>
      <point x="401" y="860" type="line" smooth="yes"/>
      <point x="397" y="860"/>
      <point x="391" y="859"/>
      <point x="387" y="858" type="curve" smooth="yes"/>
      <point x="233" y="822" type="line" smooth="yes"/>
      <point x="223" y="819"/>
      <point x="209" y="811"/>
      <point x="202" y="803" type="curve" smooth="yes"/>
      <point x="131" y="721" type="line"/>
      <point x="62" y="636" type="line" smooth="yes"/>
      <point x="44" y="613"/>
      <point x="46" y="578"/>
      <point x="65" y="557" type="curve" smooth="yes"/>
      <point x="167" y="447" type="line"/>
      <point x="170" y="426" type="line"/>
      <point x="165" y="422"/>
      <point x="161" y="418"/>
      <point x="159" y="414" type="curve" smooth="yes"/>
      <point x="121" y="356" type="line" smooth="yes"/>
      <point x="118" y="352"/>
      <point x="115" y="343"/>
      <point x="113" y="338" type="curve" smooth="yes"/>
      <point x="84" y="212" type="line" smooth="yes"/>
      <point x="82" y="205"/>
      <point x="82" y="193"/>
      <point x="83" y="186" type="curve" smooth="yes"/>
      <point x="102" y="90" type="line"/>
      <point x="112" y="-6" type="line" smooth="yes"/>
      <point x="116" y="-39"/>
      <point x="146" y="-63"/>
    </contour>
  </outline>
</glyph>
<glyph name="G" format="1">
  <advance width="897"/>
  <unicode hex="0047"/>
  <outline>
    <contour>
      <point x="332" y="-56" type="curve" smooth="yes"/>
      <point x="543" y="-56" type="line" smooth="yes"/>
      <point x="549" y="-56"/>
      <point x="558" y="-54"/>
      <point x="564" y="-52" type="curve" smooth="yes"/>
      <point x="661" y="-16" type="line" smooth="yes"/>
      <point x="666" y="-14"/>
      <point x="673" y="-10"/>
      <point x="677" y="-7" type="curve" smooth="yes"/>
      <point x="781" y="73" type="line" smooth="yes"/>
      <point x="794" y="84"/>
      <point x="804" y="106"/>
      <point x="804" y="123" type="curve" smooth="yes"/>
      <point x="801" y="196" type="line"/>
      <point x="830" y="286" type="line" smooth="yes"/>
      <point x="831" y="288"/>
      <point x="832" y="293"/>
      <point x="832" y="296" type="curve" smooth="yes"/>
      <point x="846" y="396" type="line" smooth="yes"/>
      <point x="852" y="433"/>
      <point x="825" y="464"/>
      <point x="787" y="464" type="curve" smooth="yes"/>
      <point x="516" y="464" type="line"/>
      <point x="405" y="492" type="line"/>
      <point x="378" y="539" type="line"/>
      <point x="372" y="609" type="line" smooth="yes"/>
      <point x="369" y="641"/>
      <point x="339" y="666"/>
      <point x="307" y="664" type="curve" smooth="yes"/>
      <point x="275" y="661"/>
      <point x="250" y="631"/>
      <point x="252" y="599" type="curve" smooth="yes"/>
      <point x="259" y="516" type="line" smooth="yes"/>
      <point x="260" y="508"/>
      <point x="263" y="497"/>
      <point x="267" y="491" type="curve" smooth="yes"/>
      <point x="313" y="410" type="line" smooth="yes"/>
      <point x="320" y="398"/>
      <point x="337" y="385"/>
      <point x="351" y="382" type="curve" smooth="yes"/>
      <point x="494" y="346" type="line" smooth="yes"/>
      <point x="498" y="345"/>
      <point x="505" y="344"/>
      <point x="509" y="344" type="curve" smooth="yes"/>
      <point x="718" y="344" type="line"/>
      <point x="714" y="317" type="line"/>
      <point x="684" y="222" type="line" smooth="yes"/>
      <point x="682" y="217"/>
      <point x="681" y="208"/>
      <point x="681" y="202" type="curve" smooth="yes"/>
      <point x="683" y="149" type="line"/>
      <point x="611" y="93" type="line"/>
      <point x="532" y="64" type="line"/>
      <point x="338" y="64" type="line"/>
      <point x="241" y="85" type="line"/>
      <point x="246" y="104" type="line" smooth="yes"/>
      <point x="250" y="117"/>
      <point x="248" y="137"/>
      <point x="241" y="149" type="curve" smooth="yes"/>
      <point x="198" y="228" type="line"/>
      <point x="172" y="307" type="line"/>
      <point x="190" y="391" type="line"/>
      <point x="211" y="488" type="line"/>
      <point x="238" y="588" type="line" smooth="yes"/>
      <point x="239" y="591"/>
      <point x="239" y="595"/>
      <point x="240" y="597" type="curve" smooth="yes"/>
      <point x="249" y="678" type="line"/>
      <point x="255" y="724" type="line"/>
      <point x="310" y="744" type="line"/>
      <point x="512" y="744" type="line"/>
      <point x="628" y="714" type="line"/>
      <point x="689" y="656" type="line"/>
      <point x="703" y="591" type="line" smooth="yes"/>
      <point x="710" y="559"/>
      <point x="743" y="538"/>
      <point x="775" y="545" type="curve" smooth="yes"/>
      <point x="807" y="552"/>
      <point x="828" y="585"/>
      <point x="821" y="617" type="curve" smooth="yes"/>
      <point x="802" y="700" type="line" smooth="yes"/>
      <point x="800" y="710"/>
      <point x="792" y="724"/>
      <point x="785" y="731" type="curve" smooth="yes"/>
      <point x="699" y="812" type="line" smooth="yes"/>
      <point x="693" y="817"/>
      <point x="682" y="824"/>
      <point x="673" y="826" type="curve" smooth="yes"/>
      <point x="535" y="862" type="line" smooth="yes"/>
      <point x="531" y="863"/>
      <point x="524" y="864"/>
      <point x="520" y="864" type="curve" smooth="yes"/>
      <point x="299" y="864" type="line" smooth="yes"/>
      <point x="293" y="864"/>
      <point x="284" y="862"/>
      <point x="278" y="860" type="curve" smooth="yes"/>
      <point x="181" y="824" type="line" smooth="yes"/>
      <point x="162" y="817"/>
      <point x="145" y="796"/>
      <point x="142" y="777" type="curve" smooth="yes"/>
      <point x="130" y="696" type="line"/>
      <point x="121" y="615" type="line"/>
      <point x="95" y="520" type="line"/>
      <point x="72" y="417" type="line"/>
      <point x="51" y="316" type="line" smooth="yes"/>
      <point x="49" y="308"/>
      <point x="50" y="294"/>
      <point x="53" y="285" type="curve" smooth="yes"/>
      <point x="86" y="185" type="line" smooth="yes"/>
      <point x="87" y="182"/>
      <point x="89" y="178"/>
      <point x="90" y="175" type="curve" smooth="yes"/>
      <point x="124" y="114" type="line"/>
      <point x="107" y="57" type="line" smooth="yes"/>
      <point x="97" y="23"/>
      <point x="117" y="-11"/>
      <point x="152" y="-19" type="curve" smooth="yes"/>
      <point x="319" y="-55" type="line" smooth="yes"/>
      <point x="323" y="-55"/>
      <point x="328" y="-56"/>
    </contour>
  </outline>
</glyph>
<glyph name="H" format="1">
  <advance width="902"/>
  <unicode hex="0048"/>
  <outline>
    <contour>
      <point x="789" y="-64" type="curve" smooth="yes"/>
      <point x="821" y="-65"/>
      <point x="849" y="-38"/>
      <point x="850" y="-5" type="curve" smooth="yes"/>
      <point x="852" y="95" type="line" smooth="yes"/>
      <point x="852" y="107"/>
      <point x="846" y="124"/>
      <point x="839" y="133" type="curve" smooth="yes"/>
      <point x="779" y="208" type="line"/>
      <point x="803" y="277" type="line" smooth="yes"/>
      <point x="804" y="281"/>
      <point x="806" y="289"/>
      <point x="806" y="294" type="curve" smooth="yes"/>
      <point x="809" y="383" type="line"/>
      <point x="848" y="472" type="line" smooth="yes"/>
      <point x="856" y="491"/>
      <point x="852" y="520"/>
      <point x="838" y="535" type="curve" smooth="yes"/>
      <point x="782" y="600" type="line"/>
      <point x="780" y="608" type="line"/>
      <point x="775" y="699" type="line" smooth="yes"/>
      <point x="774" y="730"/>
      <point x="747" y="756"/>
      <point x="716" y="756" type="curve" smooth="yes"/>
      <point x="704" y="756" type="line" smooth="yes"/>
      <point x="670" y="756"/>
      <point x="643" y="729"/>
      <point x="644" y="695" type="curve" smooth="yes"/>
      <point x="646" y="595" type="line" smooth="yes"/>
      <point x="646" y="583"/>
      <point x="653" y="566"/>
      <point x="661" y="557" type="curve" smooth="yes"/>
      <point x="677" y="538" type="line"/>
      <point x="684" y="518" type="line"/>
      <point x="667" y="486" type="line"/>
      <point x="488" y="456" type="line"/>
      <point x="307" y="456" type="line" smooth="yes"/>
      <point x="302" y="456"/>
      <point x="295" y="455"/>
      <point x="291" y="454" type="curve" smooth="yes"/>
      <point x="186" y="425" type="line"/>
      <point x="206" y="474" type="line" smooth="yes"/>
      <point x="207" y="478"/>
      <point x="209" y="485"/>
      <point x="210" y="489" type="curve" smooth="yes"/>
      <point x="221" y="589" type="line"/>
      <point x="226" y="693" type="line" smooth="yes"/>
      <point x="226" y="700"/>
      <point x="225" y="711"/>
      <point x="222" y="717" type="curve" smooth="yes"/>
      <point x="184" y="817" type="line" smooth="yes"/>
      <point x="173" y="848"/>
      <point x="137" y="864"/>
      <point x="107" y="852" type="curve" smooth="yes"/>
      <point x="76" y="841"/>
      <point x="60" y="805"/>
      <point x="72" y="775" type="curve" smooth="yes"/>
      <point x="105" y="686" type="line"/>
      <point x="101" y="603" type="line"/>
      <point x="91" y="511" type="line"/>
      <point x="54" y="418" type="line" smooth="yes"/>
      <point x="49" y="406"/>
      <point x="49" y="387"/>
      <point x="54" y="375" type="curve" smooth="yes"/>
      <point x="89" y="282" type="line"/>
      <point x="98" y="200" type="line"/>
      <point x="91" y="172" type="line"/>
      <point x="70" y="119" type="line" smooth="yes"/>
      <point x="53" y="76"/>
      <point x="80" y="36"/>
      <point x="125" y="36" type="curve" smooth="yes"/>
      <point x="135" y="36" type="line" smooth="yes"/>
      <point x="161" y="36"/>
      <point x="187" y="57"/>
      <point x="193" y="82" type="curve" smooth="yes"/>
      <point x="206" y="136" type="line"/>
      <point x="220" y="170" type="line"/>
      <point x="260" y="253" type="line" smooth="yes"/>
      <point x="266" y="265"/>
      <point x="267" y="286"/>
      <point x="262" y="299" type="curve" smooth="yes"/>
      <point x="255" y="319" type="line"/>
      <point x="315" y="336" type="line"/>
      <point x="493" y="336" type="line" smooth="yes"/>
      <point x="496" y="336"/>
      <point x="500" y="336"/>
      <point x="503" y="337" type="curve" smooth="yes"/>
      <point x="688" y="368" type="line"/>
      <point x="686" y="307" type="line"/>
      <point x="655" y="215" type="line" smooth="yes"/>
      <point x="649" y="198"/>
      <point x="654" y="173"/>
      <point x="665" y="159" type="curve" smooth="yes"/>
      <point x="732" y="75" type="line"/>
      <point x="730" y="-3" type="line" smooth="yes"/>
      <point x="729" y="-35"/>
      <point x="756" y="-63"/>
    </contour>
  </outline>
</glyph>
<glyph name="I" format="1">
  <advance width="812"/>
  <unicode hex="0049"/>
  <outline>
    <contour>
      <point x="110" y="-61" type="curve" smooth="yes"/>
      <point x="570" y="-61" type="line" smooth="yes"/>
      <point x="642" y="-61"/>
      <point x="657" y="35"/>
      <point x="588" y="56" type="curve" smooth="yes"/>
      <point x="539" y="71" type="line"/>
      <point x="438" y="103" type="line"/>
      <point x="447" y="192" type="line" smooth="yes"/>
      <point x="447" y="198"/>
      <point x="447" y="206"/>
      <point x="446" y="211" type="curve" smooth="yes"/>
      <point x="427" y="296" type="line"/>
      <point x="452" y="382" type="line" smooth="yes"/>
      <point x="456" y="395"/>
      <point x="454" y="415"/>
      <point x="448" y="427" type="curve" smooth="yes"/>
      <point x="398" y="521" type="line"/>
      <point x="379" y="605" type="line"/>
      <point x="386" y="736" type="line" smooth="yes"/>
      <point x="386" y="737"/>
      <point x="386" y="739"/>
      <point x="386" y="739" type="curve"/>
      <point x="702" y="739" type="line" smooth="yes"/>
      <point x="734" y="739"/>
      <point x="762" y="767"/>
      <point x="762" y="799" type="curve" smooth="yes"/>
      <point x="762" y="831"/>
      <point x="734" y="859"/>
      <point x="702" y="859" type="curve" smooth="yes"/>
      <point x="146" y="859" type="line" smooth="yes"/>
      <point x="138" y="859"/>
      <point x="125" y="856"/>
      <point x="118" y="852" type="curve" smooth="yes"/>
      <point x="105" y="845" type="line" smooth="yes"/>
      <point x="47" y="814"/>
      <point x="64" y="736"/>
      <point x="129" y="732" type="curve" smooth="yes"/>
      <point x="226" y="726" type="line"/>
      <point x="264" y="705" type="line"/>
      <point x="259" y="603" type="line" smooth="yes"/>
      <point x="259" y="599"/>
      <point x="259" y="591"/>
      <point x="260" y="587" type="curve" smooth="yes"/>
      <point x="282" y="487" type="line" smooth="yes"/>
      <point x="283" y="482"/>
      <point x="286" y="475"/>
      <point x="288" y="471" type="curve" smooth="yes"/>
      <point x="330" y="392" type="line"/>
      <point x="308" y="316" type="line" smooth="yes"/>
      <point x="305" y="307"/>
      <point x="305" y="294"/>
      <point x="306" y="286" type="curve" smooth="yes"/>
      <point x="326" y="194" type="line"/>
      <point x="314" y="65" type="line" smooth="yes"/>
      <point x="314" y="63"/>
      <point x="314" y="60"/>
      <point x="314" y="59" type="curve"/>
      <point x="110" y="59" type="line" smooth="yes"/>
      <point x="78" y="59"/>
      <point x="50" y="31"/>
      <point x="50" y="-1" type="curve" smooth="yes"/>
      <point x="50" y="-33"/>
      <point x="78" y="-61"/>
    </contour>
  </outline>
</glyph>
<glyph name="J" format="1">
  <advance width="799"/>
  <unicode hex="004A"/>
  <outline>
    <contour>
      <point x="110" y="-61" type="curve" smooth="yes"/>
      <point x="176" y="-61" type="line" smooth="yes"/>
      <point x="180" y="-61"/>
      <point x="186" y="-60"/>
      <point x="189" y="-60" type="curve" smooth="yes"/>
      <point x="349" y="-24" type="line" smooth="yes"/>
      <point x="373" y="-18"/>
      <point x="394" y="6"/>
      <point x="395" y="31" type="curve" smooth="yes"/>
      <point x="400" y="100" type="line"/>
      <point x="434" y="173" type="line" smooth="yes"/>
      <point x="440" y="185"/>
      <point x="441" y="205"/>
      <point x="437" y="218" type="curve" smooth="yes"/>
      <point x="409" y="297" type="line"/>
      <point x="442" y="376" type="line" smooth="yes"/>
      <point x="447" y="389"/>
      <point x="447" y="411"/>
      <point x="441" y="424" type="curve" smooth="yes"/>
      <point x="402" y="509" type="line"/>
      <point x="411" y="590" type="line"/>
      <point x="434" y="730" type="line" smooth="yes"/>
      <point x="435" y="733"/>
      <point x="435" y="737"/>
      <point x="435" y="739" type="curve"/>
      <point x="689" y="739" type="line" smooth="yes"/>
      <point x="721" y="739"/>
      <point x="749" y="767"/>
      <point x="749" y="799" type="curve" smooth="yes"/>
      <point x="749" y="831"/>
      <point x="721" y="859"/>
      <point x="689" y="859" type="curve" smooth="yes"/>
      <point x="176" y="859" type="line" smooth="yes"/>
      <point x="102" y="859"/>
      <point x="90" y="758"/>
      <point x="162" y="741" type="curve" smooth="yes"/>
      <point x="216" y="728" type="line"/>
      <point x="307" y="698" type="line"/>
      <point x="293" y="610" type="line"/>
      <point x="281" y="506" type="line" smooth="yes"/>
      <point x="280" y="497"/>
      <point x="283" y="483"/>
      <point x="286" y="475" type="curve" smooth="yes"/>
      <point x="321" y="398" type="line"/>
      <point x="289" y="321" type="line" smooth="yes"/>
      <point x="285" y="310"/>
      <point x="284" y="291"/>
      <point x="288" y="279" type="curve" smooth="yes"/>
      <point x="315" y="201" type="line"/>
      <point x="287" y="140" type="line" smooth="yes"/>
      <point x="284" y="135"/>
      <point x="282" y="125"/>
      <point x="281" y="119" type="curve" smooth="yes"/>
      <point x="279" y="84" type="line"/>
      <point x="169" y="59" type="line"/>
      <point x="110" y="59" type="line" smooth="yes"/>
      <point x="78" y="59"/>
      <point x="50" y="31"/>
      <point x="50" y="-1" type="curve" smooth="yes"/>
      <point x="50" y="-33"/>
      <point x="78" y="-61"/>
    </contour>
  </outline>
</glyph>
<glyph name="K" format="1">
  <advance width="901"/>
  <unicode hex="004B"/>
  <outline>
    <contour>
      <point x="831" y="-7" type="curve" smooth="yes"/>
      <point x="850" y="94" type="line" smooth="yes"/>
      <point x="852" y="105"/>
      <point x="850" y="121"/>
      <point x="845" y="131" type="curve" smooth="yes"/>
      <point x="801" y="223" type="line"/>
      <point x="786" y="354" type="line" smooth="yes"/>
      <point x="784" y="372"/>
      <point x="769" y="393"/>
      <point x="753" y="401" type="curve" smooth="yes"/>
      <point x="750" y="403" type="line"/>
      <point x="761" y="416"/>
      <point x="766" y="435"/>
      <point x="762" y="453" type="curve" smooth="yes"/>
      <point x="747" y="524" type="line"/>
      <point x="751" y="582" type="line"/>
      <point x="817" y="668" type="line" smooth="yes"/>
      <point x="822" y="674"/>
      <point x="827" y="685"/>
      <point x="828" y="693" type="curve" smooth="yes"/>
      <point x="848" y="793" type="line" smooth="yes"/>
      <point x="854" y="824"/>
      <point x="832" y="857"/>
      <point x="800" y="863" type="curve" smooth="yes"/>
      <point x="769" y="869"/>
      <point x="736" y="847"/>
      <point x="730" y="815" type="curve" smooth="yes"/>
      <point x="713" y="729" type="line"/>
      <point x="645" y="640" type="line" smooth="yes"/>
      <point x="639" y="633"/>
      <point x="634" y="619"/>
      <point x="633" y="609" type="curve" smooth="yes"/>
      <point x="626" y="525" type="line" smooth="yes"/>
      <point x="626" y="521"/>
      <point x="627" y="513"/>
      <point x="628" y="508" type="curve" smooth="yes"/>
      <point x="633" y="484" type="line"/>
      <point x="553" y="464" type="line"/>
      <point x="552" y="464"/>
      <point x="551" y="464"/>
      <point x="550" y="464" type="curve" smooth="yes"/>
      <point x="306" y="464" type="line" smooth="yes"/>
      <point x="299" y="464"/>
      <point x="287" y="461"/>
      <point x="281" y="458" type="curve" smooth="yes"/>
      <point x="236" y="437" type="line"/>
      <point x="187" y="513" type="line"/>
      <point x="209" y="587" type="line" smooth="yes"/>
      <point x="210" y="590"/>
      <point x="212" y="596"/>
      <point x="212" y="599" type="curve" smooth="yes"/>
      <point x="219" y="693" type="line"/>
      <point x="246" y="788" type="line" smooth="yes"/>
      <point x="255" y="819"/>
      <point x="235" y="853"/>
      <point x="204" y="862" type="curve" smooth="yes"/>
      <point x="173" y="871"/>
      <point x="139" y="851"/>
      <point x="130" y="820" type="curve" smooth="yes"/>
      <point x="102" y="720" type="line" smooth="yes"/>
      <point x="101" y="717"/>
      <point x="100" y="712"/>
      <point x="100" y="709" type="curve" smooth="yes"/>
      <point x="93" y="615" type="line"/>
      <point x="65" y="521" type="line" smooth="yes"/>
      <point x="60" y="507"/>
      <point x="63" y="484"/>
      <point x="71" y="472" type="curve" smooth="yes"/>
      <point x="113" y="407" type="line"/>
      <point x="61" y="341" type="line" smooth="yes"/>
      <point x="48" y="323"/>
      <point x="46" y="293"/>
      <point x="57" y="274" type="curve" smooth="yes"/>
      <point x="80" y="234" type="line"/>
      <point x="92" y="193" type="line"/>
      <point x="101" y="98" type="line" smooth="yes"/>
      <point x="104" y="68"/>
      <point x="130" y="44"/>
      <point x="161" y="44" type="curve" smooth="yes"/>
      <point x="191" y="44" type="line" smooth="yes"/>
      <point x="232" y="44"/>
      <point x="259" y="79"/>
      <point x="249" y="119" type="curve" smooth="yes"/>
      <point x="224" y="219" type="line" smooth="yes"/>
      <point x="223" y="223"/>
      <point x="220" y="230"/>
      <point x="218" y="234" type="curve" smooth="yes"/>
      <point x="199" y="268" type="line"/>
      <point x="260" y="316" type="line"/>
      <point x="319" y="344" type="line"/>
      <point x="547" y="344" type="line"/>
      <point x="608" y="339" type="line"/>
      <point x="671" y="308" type="line"/>
      <point x="683" y="199" type="line" smooth="yes"/>
      <point x="684" y="194"/>
      <point x="686" y="185"/>
      <point x="689" y="180" type="curve" smooth="yes"/>
      <point x="728" y="97" type="line"/>
      <point x="713" y="15" type="line" smooth="yes"/>
      <point x="707" y="-17"/>
      <point x="729" y="-49"/>
      <point x="761" y="-55" type="curve" smooth="yes"/>
      <point x="793" y="-61"/>
      <point x="825" y="-39"/>
    </contour>
  </outline>
</glyph>
<glyph name="L" format="1">
  <advance width="813"/>
  <unicode hex="004C"/>
  <outline>
    <contour>
      <point x="347" y="-60" type="curve" smooth="yes"/>
      <point x="703" y="-60" type="line" smooth="yes"/>
      <point x="735" y="-60"/>
      <point x="763" y="-32"/>
      <point x="763" y="0" type="curve" smooth="yes"/>
      <point x="763" y="32"/>
      <point x="735" y="60"/>
      <point x="703" y="60" type="curve" smooth="yes"/>
      <point x="349" y="60" type="line"/>
      <point x="281" y="65" type="line"/>
      <point x="253" y="88" type="line"/>
      <point x="245" y="204" type="line" smooth="yes"/>
      <point x="244" y="213"/>
      <point x="240" y="226"/>
      <point x="235" y="233" type="curve" smooth="yes"/>
      <point x="193" y="297" type="line"/>
      <point x="245" y="363" type="line" smooth="yes"/>
      <point x="262" y="384"/>
      <point x="261" y="419"/>
      <point x="243" y="439" type="curve" smooth="yes"/>
      <point x="175" y="518" type="line"/>
      <point x="186" y="591" type="line" smooth="yes"/>
      <point x="187" y="596"/>
      <point x="187" y="605"/>
      <point x="186" y="610" type="curve" smooth="yes"/>
      <point x="170" y="705" type="line"/>
      <point x="170" y="800" type="line" smooth="yes"/>
      <point x="170" y="832"/>
      <point x="142" y="860"/>
      <point x="110" y="860" type="curve" smooth="yes"/>
      <point x="78" y="860"/>
      <point x="50" y="832"/>
      <point x="50" y="800" type="curve" smooth="yes"/>
      <point x="50" y="700" type="line" smooth="yes"/>
      <point x="50" y="697"/>
      <point x="50" y="693"/>
      <point x="51" y="690" type="curve" smooth="yes"/>
      <point x="66" y="600" type="line"/>
      <point x="52" y="509" type="line" smooth="yes"/>
      <point x="49" y="494"/>
      <point x="56" y="472"/>
      <point x="66" y="461" type="curve" smooth="yes"/>
      <point x="120" y="398" type="line"/>
      <point x="72" y="337" type="line" smooth="yes"/>
      <point x="57" y="318"/>
      <point x="56" y="287"/>
      <point x="69" y="267" type="curve" smooth="yes"/>
      <point x="126" y="180" type="line"/>
      <point x="135" y="54" type="line" smooth="yes"/>
      <point x="136" y="40"/>
      <point x="146" y="21"/>
      <point x="157" y="12" type="curve" smooth="yes"/>
      <point x="219" y="-39" type="line" smooth="yes"/>
      <point x="228" y="-46"/>
      <point x="243" y="-52"/>
      <point x="253" y="-53" type="curve" smooth="yes"/>
      <point x="342" y="-60" type="line" smooth="yes"/>
      <point x="344" y="-60"/>
      <point x="346" y="-60"/>
    </contour>
  </outline>
</glyph>
<glyph name="M" format="1">
  <advance width="887"/>
  <unicode hex="004D"/>
  <outline>
    <contour>
      <point x="146" y="-60" type="curve" smooth="yes"/>
      <point x="178" y="-55"/>
      <point x="201" y="-23"/>
      <point x="195" y="9" type="curve" smooth="yes"/>
      <point x="180" y="100" type="line"/>
      <point x="193" y="190" type="line" smooth="yes"/>
      <point x="194" y="192"/>
      <point x="194" y="196"/>
      <point x="194" y="198" type="curve" smooth="yes"/>
      <point x="196" y="298" type="line" smooth="yes"/>
      <point x="196" y="302"/>
      <point x="195" y="310"/>
      <point x="194" y="314" type="curve" smooth="yes"/>
      <point x="175" y="387" type="line"/>
      <point x="231" y="464" type="line" smooth="yes"/>
      <point x="240" y="477"/>
      <point x="244" y="501"/>
      <point x="239" y="517" type="curve" smooth="yes"/>
      <point x="210" y="612" type="line"/>
      <point x="200" y="692" type="line"/>
      <point x="217" y="739" type="line"/>
      <point x="279" y="739" type="line"/>
      <point x="298" y="736" type="line"/>
      <point x="336" y="704" type="line"/>
      <point x="384" y="589" type="line"/>
      <point x="379" y="510" type="line"/>
      <point x="378" y="506"/>
      <point x="378" y="502"/>
      <point x="378" y="498" type="curve" smooth="yes"/>
      <point x="379" y="398" type="line" smooth="yes"/>
      <point x="380" y="365"/>
      <point x="407" y="339"/>
      <point x="439" y="339" type="curve" smooth="yes"/>
      <point x="441" y="339" type="line" smooth="yes"/>
      <point x="475" y="339"/>
      <point x="501" y="367"/>
      <point x="501" y="400" type="curve" smooth="yes"/>
      <point x="499" y="491" type="line"/>
      <point x="530" y="579" type="line" smooth="yes"/>
      <point x="530" y="581"/>
      <point x="531" y="584"/>
      <point x="532" y="586" type="curve" smooth="yes"/>
      <point x="557" y="701" type="line"/>
      <point x="618" y="734" type="line"/>
      <point x="653" y="739" type="line"/>
      <point x="668" y="739" type="line"/>
      <point x="662" y="711" type="line" smooth="yes"/>
      <point x="660" y="701"/>
      <point x="662" y="684"/>
      <point x="666" y="674" type="curve" smooth="yes"/>
      <point x="707" y="583" type="line"/>
      <point x="715" y="516" type="line"/>
      <point x="654" y="435" type="line" smooth="yes"/>
      <point x="644" y="422"/>
      <point x="640" y="399"/>
      <point x="644" y="383" type="curve" smooth="yes"/>
      <point x="669" y="294" type="line"/>
      <point x="659" y="206" type="line" smooth="yes"/>
      <point x="659" y="199"/>
      <point x="659" y="189"/>
      <point x="661" y="183" type="curve" smooth="yes"/>
      <point x="689" y="86" type="line"/>
      <point x="712" y="-14" type="line" smooth="yes"/>
      <point x="719" y="-46"/>
      <point x="752" y="-67"/>
      <point x="783" y="-59" type="curve" smooth="yes"/>
      <point x="815" y="-52"/>
      <point x="836" y="-19"/>
      <point x="828" y="12" type="curve" smooth="yes"/>
      <point x="805" y="112" type="line"/>
      <point x="780" y="204" type="line"/>
      <point x="790" y="292" type="line" smooth="yes"/>
      <point x="790" y="299"/>
      <point x="790" y="309"/>
      <point x="788" y="315" type="curve" smooth="yes"/>
      <point x="768" y="387" type="line"/>
      <point x="825" y="463" type="line" smooth="yes"/>
      <point x="833" y="473"/>
      <point x="838" y="493"/>
      <point x="837" y="506" type="curve" smooth="yes"/>
      <point x="826" y="606" type="line" smooth="yes"/>
      <point x="825" y="611"/>
      <point x="823" y="619"/>
      <point x="821" y="624" type="curve" smooth="yes"/>
      <point x="784" y="706" type="line"/>
      <point x="801" y="787" type="line" smooth="yes"/>
      <point x="809" y="826"/>
      <point x="782" y="859"/>
      <point x="742" y="859" type="curve" smooth="yes"/>
      <point x="649" y="859" type="line" smooth="yes"/>
      <point x="647" y="859"/>
      <point x="643" y="859"/>
      <point x="641" y="858" type="curve" smooth="yes"/>
      <point x="590" y="851" type="line" smooth="yes"/>
      <point x="584" y="851"/>
      <point x="575" y="848"/>
      <point x="570" y="845" type="curve" smooth="yes"/>
      <point x="476" y="793" type="line" smooth="yes"/>
      <point x="463" y="786"/>
      <point x="449" y="768"/>
      <point x="446" y="754" type="curve" smooth="yes"/>
      <point x="446" y="752" type="line"/>
      <point x="441" y="764" type="line" smooth="yes"/>
      <point x="437" y="771"/>
      <point x="430" y="781"/>
      <point x="424" y="787" type="curve" smooth="yes"/>
      <point x="363" y="838" type="line" smooth="yes"/>
      <point x="356" y="844"/>
      <point x="343" y="850"/>
      <point x="334" y="851" type="curve" smooth="yes"/>
      <point x="294" y="858" type="line" smooth="yes"/>
      <point x="291" y="859"/>
      <point x="287" y="859"/>
      <point x="284" y="859" type="curve" smooth="yes"/>
      <point x="175" y="859" type="line" smooth="yes"/>
      <point x="152" y="859"/>
      <point x="126" y="841"/>
      <point x="119" y="819" type="curve" smooth="yes"/>
      <point x="83" y="719" type="line" smooth="yes"/>
      <point x="80" y="712"/>
      <point x="78" y="700"/>
      <point x="79" y="692" type="curve" smooth="yes"/>
      <point x="91" y="592" type="line" smooth="yes"/>
      <point x="92" y="589"/>
      <point x="93" y="584"/>
      <point x="94" y="581" type="curve" smooth="yes"/>
      <point x="116" y="510" type="line"/>
      <point x="61" y="434" type="line" smooth="yes"/>
      <point x="52" y="421"/>
      <point x="48" y="399"/>
      <point x="52" y="384" type="curve" smooth="yes"/>
      <point x="76" y="292" type="line"/>
      <point x="74" y="204" type="line"/>
      <point x="60" y="108" type="line" smooth="yes"/>
      <point x="59" y="103"/>
      <point x="59" y="94"/>
      <point x="60" y="89" type="curve" smooth="yes"/>
      <point x="77" y="-11" type="line" smooth="yes"/>
      <point x="82" y="-43"/>
      <point x="114" y="-66"/>
    </contour>
  </outline>
</glyph>
<glyph name="N" format="1">
  <advance width="904"/>
  <unicode hex="004E"/>
  <outline>
    <contour>
      <point x="657" y="-61" type="line"/>
      <point x="704" y="-61" type="line" smooth="yes"/>
      <point x="736" y="-61"/>
      <point x="763" y="-35"/>
      <point x="764" y="-3" type="curve" smooth="yes"/>
      <point x="767" y="84" type="line"/>
      <point x="810" y="173" type="line" smooth="yes"/>
      <point x="815" y="183"/>
      <point x="817" y="201"/>
      <point x="814" y="212" type="curve" smooth="yes"/>
      <point x="795" y="295" type="line"/>
      <point x="825" y="379" type="line" smooth="yes"/>
      <point x="826" y="380"/>
      <point x="827" y="382"/>
      <point x="827" y="384" type="curve" smooth="yes"/>
      <point x="853" y="484" type="line" smooth="yes"/>
      <point x="857" y="501"/>
      <point x="852" y="525"/>
      <point x="841" y="538" type="curve" smooth="yes"/>
      <point x="781" y="608" type="line"/>
      <point x="814" y="672" type="line" smooth="yes"/>
      <point x="815" y="675"/>
      <point x="817" y="680"/>
      <point x="818" y="683" type="curve" smooth="yes"/>
      <point x="845" y="783" type="line" smooth="yes"/>
      <point x="853" y="815"/>
      <point x="834" y="848"/>
      <point x="803" y="857" type="curve" smooth="yes"/>
      <point x="771" y="865"/>
      <point x="738" y="846"/>
      <point x="729" y="815" type="curve" smooth="yes"/>
      <point x="704" y="720" type="line"/>
      <point x="656" y="626" type="line" smooth="yes"/>
      <point x="647" y="606"/>
      <point x="650" y="577"/>
      <point x="664" y="560" type="curve" smooth="yes"/>
      <point x="729" y="484" type="line"/>
      <point x="712" y="417" type="line"/>
      <point x="677" y="319" type="line" smooth="yes"/>
      <point x="673" y="310"/>
      <point x="672" y="295"/>
      <point x="675" y="286" type="curve" smooth="yes"/>
      <point x="693" y="206" type="line"/>
      <point x="653" y="125" type="line" smooth="yes"/>
      <point x="650" y="119"/>
      <point x="647" y="108"/>
      <point x="647" y="101" type="curve" smooth="yes"/>
      <point x="646" y="60" type="line"/>
      <point x="549" y="65" type="line"/>
      <point x="525" y="91" type="line"/>
      <point x="475" y="202" type="line"/>
      <point x="501" y="276" type="line"/>
      <point x="548" y="373" type="line" smooth="yes"/>
      <point x="553" y="383"/>
      <point x="555" y="402"/>
      <point x="552" y="414" type="curve" smooth="yes"/>
      <point x="527" y="514" type="line"/>
      <point x="501" y="614" type="line" smooth="yes"/>
      <point x="500" y="618"/>
      <point x="498" y="623"/>
      <point x="496" y="627" type="curve" smooth="yes"/>
      <point x="423" y="768" type="line" smooth="yes"/>
      <point x="422" y="770"/>
      <point x="421" y="773"/>
      <point x="419" y="774" type="curve" smooth="yes"/>
      <point x="385" y="826" type="line" smooth="yes"/>
      <point x="376" y="839"/>
      <point x="356" y="850"/>
      <point x="340" y="852" type="curve" smooth="yes"/>
      <point x="262" y="859" type="line" smooth="yes"/>
      <point x="261" y="859"/>
      <point x="258" y="859"/>
      <point x="257" y="859" type="curve" smooth="yes"/>
      <point x="198" y="859" type="line" smooth="yes"/>
      <point x="165" y="859"/>
      <point x="138" y="832"/>
      <point x="138" y="798" type="curve" smooth="yes"/>
      <point x="139" y="720" type="line"/>
      <point x="72" y="636" type="line" smooth="yes"/>
      <point x="66" y="629"/>
      <point x="60" y="614"/>
      <point x="59" y="604" type="curve" smooth="yes"/>
      <point x="50" y="504" type="line" smooth="yes"/>
      <point x="50" y="502"/>
      <point x="50" y="498"/>
      <point x="50" y="495" type="curve" smooth="yes"/>
      <point x="56" y="399" type="line"/>
      <point x="51" y="302" type="line" smooth="yes"/>
      <point x="50" y="288"/>
      <point x="57" y="269"/>
      <point x="67" y="259" type="curve" smooth="yes"/>
      <point x="130" y="189" type="line"/>
      <point x="100" y="125" type="line" smooth="yes"/>
      <point x="98" y="121"/>
      <point x="96" y="114"/>
      <point x="95" y="110" type="curve" smooth="yes"/>
      <point x="77" y="10" type="line" smooth="yes"/>
      <point x="71" y="-22"/>
      <point x="93" y="-54"/>
      <point x="125" y="-60" type="curve" smooth="yes"/>
      <point x="157" y="-66"/>
      <point x="189" y="-44"/>
      <point x="195" y="-12" type="curve" smooth="yes"/>
      <point x="212" y="80" type="line"/>
      <point x="256" y="173" type="line" smooth="yes"/>
      <point x="266" y="193"/>
      <point x="261" y="223"/>
      <point x="246" y="239" type="curve" smooth="yes"/>
      <point x="172" y="321" type="line"/>
      <point x="176" y="396" type="line" smooth="yes"/>
      <point x="176" y="398"/>
      <point x="176" y="401"/>
      <point x="176" y="403" type="curve" smooth="yes"/>
      <point x="170" y="498" type="line"/>
      <point x="177" y="576" type="line"/>
      <point x="246" y="662" type="line" smooth="yes"/>
      <point x="253" y="671"/>
      <point x="259" y="688"/>
      <point x="259" y="700" type="curve" smooth="yes"/>
      <point x="259" y="739" type="line"/>
      <point x="301" y="735" type="line"/>
      <point x="318" y="710" type="line"/>
      <point x="387" y="577" type="line"/>
      <point x="411" y="484" type="line"/>
      <point x="430" y="406" type="line"/>
      <point x="391" y="325" type="line" smooth="yes"/>
      <point x="390" y="323"/>
      <point x="389" y="320"/>
      <point x="388" y="318" type="curve" smooth="yes"/>
      <point x="354" y="218" type="line" smooth="yes"/>
      <point x="350" y="206"/>
      <point x="351" y="186"/>
      <point x="356" y="175" type="curve" smooth="yes"/>
      <point x="419" y="33" type="line" smooth="yes"/>
      <point x="421" y="28"/>
      <point x="426" y="21"/>
      <point x="430" y="17" type="curve" smooth="yes"/>
      <point x="478" y="-35" type="line" smooth="yes"/>
      <point x="487" y="-45"/>
      <point x="505" y="-53"/>
      <point x="519" y="-54" type="curve" smooth="yes"/>
    </contour>
  </outline>
</glyph>
<glyph name="O" format="1">
  <advance width="883"/>
  <unicode hex="004F"/>
  <outline>
    <contour>
      <point x="309" y="-61" type="curve" smooth="yes"/>
      <point x="408" y="-61" type="line" smooth="yes"/>
      <point x="440" y="-61"/>
      <point x="468" y="-33"/>
      <point x="468" y="-1" type="curve" smooth="yes"/>
      <point x="468" y="31"/>
      <point x="440" y="59"/>
      <point x="408" y="59" type="curve" smooth="yes"/>
      <point x="322" y="59" type="line"/>
      <point x="258" y="87" type="line"/>
      <point x="200" y="134" type="line"/>
      <point x="218" y="175" type="line" smooth="yes"/>
      <point x="220" y="180"/>
      <point x="222" y="188"/>
      <point x="223" y="194" type="curve" smooth="yes"/>
      <point x="232" y="294" type="line" smooth="yes"/>
      <point x="233" y="305"/>
      <point x="229" y="322"/>
      <point x="223" y="331" type="curve" smooth="yes"/>
      <point x="176" y="405" type="line"/>
      <point x="206" y="476" type="line" smooth="yes"/>
      <point x="209" y="486"/>
      <point x="211" y="501"/>
      <point x="209" y="511" type="curve" smooth="yes"/>
      <point x="193" y="588" type="line"/>
      <point x="230" y="651" type="line" smooth="yes"/>
      <point x="235" y="661"/>
      <point x="239" y="677"/>
      <point x="238" y="688" type="curve" smooth="yes"/>
      <point x="234" y="720" type="line"/>
      <point x="294" y="739" type="line"/>
      <point x="492" y="739" type="line"/>
      <point x="597" y="707" type="line"/>
      <point x="706" y="647" type="line"/>
      <point x="707" y="618" type="line"/>
      <point x="646" y="534" type="line" smooth="yes"/>
      <point x="632" y="514"/>
      <point x="632" y="482"/>
      <point x="648" y="462" type="curve" smooth="yes"/>
      <point x="700" y="395" type="line"/>
      <point x="659" y="331" type="line" smooth="yes"/>
      <point x="648" y="314"/>
      <point x="648" y="285"/>
      <point x="659" y="268" type="curve" smooth="yes"/>
      <point x="694" y="209" type="line"/>
      <point x="641" y="159" type="line" smooth="yes"/>
      <point x="633" y="152"/>
      <point x="624" y="136"/>
      <point x="623" y="125" type="curve" smooth="yes"/>
      <point x="616" y="82" type="line"/>
      <point x="531" y="56" type="line" smooth="yes"/>
      <point x="500" y="47"/>
      <point x="481" y="13"/>
      <point x="491" y="-18" type="curve" smooth="yes"/>
      <point x="500" y="-49"/>
      <point x="534" y="-68"/>
      <point x="565" y="-58" type="curve" smooth="yes"/>
      <point x="686" y="-22" type="line" smooth="yes"/>
      <point x="706" y="-16"/>
      <point x="725" y="5"/>
      <point x="728" y="26" type="curve" smooth="yes"/>
      <point x="738" y="86" type="line"/>
      <point x="812" y="155" type="line" smooth="yes"/>
      <point x="832" y="174"/>
      <point x="836" y="207"/>
      <point x="822" y="230" type="curve" smooth="yes"/>
      <point x="781" y="298" type="line"/>
      <point x="824" y="367" type="line" smooth="yes"/>
      <point x="836" y="387"/>
      <point x="835" y="418"/>
      <point x="820" y="436" type="curve" smooth="yes"/>
      <point x="770" y="500" type="line"/>
      <point x="816" y="564" type="line" smooth="yes"/>
      <point x="822" y="573"/>
      <point x="827" y="589"/>
      <point x="827" y="600" type="curve" smooth="yes"/>
      <point x="826" y="683" type="line" smooth="yes"/>
      <point x="825" y="703"/>
      <point x="811" y="726"/>
      <point x="795" y="735" type="curve" smooth="yes"/>
      <point x="649" y="815" type="line" smooth="yes"/>
      <point x="646" y="817"/>
      <point x="641" y="819"/>
      <point x="638" y="820" type="curve" smooth="yes"/>
      <point x="518" y="856" type="line" smooth="yes"/>
      <point x="514" y="858"/>
      <point x="506" y="859"/>
      <point x="501" y="859" type="curve" smooth="yes"/>
      <point x="285" y="859" type="line" smooth="yes"/>
      <point x="280" y="859"/>
      <point x="272" y="858"/>
      <point x="267" y="856" type="curve" smooth="yes"/>
      <point x="151" y="820" type="line" smooth="yes"/>
      <point x="126" y="812"/>
      <point x="107" y="783"/>
      <point x="110" y="756" type="curve" smooth="yes"/>
      <point x="116" y="695" type="line"/>
      <point x="77" y="630" type="line" smooth="yes"/>
      <point x="71" y="619"/>
      <point x="68" y="599"/>
      <point x="70" y="587" type="curve" smooth="yes"/>
      <point x="87" y="505" type="line"/>
      <point x="53" y="422" type="line" smooth="yes"/>
      <point x="47" y="406"/>
      <point x="49" y="381"/>
      <point x="58" y="367" type="curve" smooth="yes"/>
      <point x="110" y="284" type="line"/>
      <point x="104" y="214" type="line"/>
      <point x="72" y="140" type="line" smooth="yes"/>
      <point x="61" y="116"/>
      <point x="69" y="85"/>
      <point x="89" y="69" type="curve" smooth="yes"/>
      <point x="189" y="-12" type="line" smooth="yes"/>
      <point x="193" y="-14"/>
      <point x="199" y="-18"/>
      <point x="203" y="-20" type="curve" smooth="yes"/>
      <point x="285" y="-56" type="line" smooth="yes"/>
      <point x="291" y="-59"/>
      <point x="302" y="-61"/>
    </contour>
  </outline>
</glyph>
<glyph name="P" format="1">
  <advance width="888"/>
  <unicode hex="0050"/>
  <outline>
    <contour>
      <point x="185" y="-22" type="curve" smooth="yes"/>
      <point x="230" y="78" type="line" smooth="yes"/>
      <point x="232" y="84"/>
      <point x="235" y="95"/>
      <point x="235" y="101" type="curve" smooth="yes"/>
      <point x="238" y="201" type="line" smooth="yes"/>
      <point x="238" y="207"/>
      <point x="237" y="214"/>
      <point x="235" y="221" type="curve"/>
      <point x="370" y="247" type="line"/>
      <point x="589" y="247" type="line" smooth="yes"/>
      <point x="593" y="247"/>
      <point x="600" y="248"/>
      <point x="604" y="249" type="curve" smooth="yes"/>
      <point x="742" y="285" type="line" smooth="yes"/>
      <point x="758" y="289"/>
      <point x="775" y="304"/>
      <point x="782" y="318" type="curve" smooth="yes"/>
      <point x="818" y="399" type="line" smooth="yes"/>
      <point x="825" y="415"/>
      <point x="824" y="439"/>
      <point x="815" y="454" type="curve" smooth="yes"/>
      <point x="774" y="523" type="line"/>
      <point x="774" y="583" type="line"/>
      <point x="826" y="650" type="line" smooth="yes"/>
      <point x="843" y="671"/>
      <point x="842" y="705"/>
      <point x="824" y="726" type="curve" smooth="yes"/>
      <point x="753" y="806" type="line" smooth="yes"/>
      <point x="747" y="814"/>
      <point x="733" y="822"/>
      <point x="723" y="825" type="curve" smooth="yes"/>
      <point x="585" y="861" type="line" smooth="yes"/>
      <point x="581" y="862"/>
      <point x="574" y="863"/>
      <point x="570" y="863" type="curve" smooth="yes"/>
      <point x="341" y="863" type="line" smooth="yes"/>
      <point x="337" y="863"/>
      <point x="331" y="862"/>
      <point x="327" y="861" type="curve" smooth="yes"/>
      <point x="172" y="825" type="line" smooth="yes"/>
      <point x="149" y="820"/>
      <point x="128" y="796"/>
      <point x="126" y="773" type="curve" smooth="yes"/>
      <point x="118" y="692" type="line"/>
      <point x="106" y="621" type="line"/>
      <point x="63" y="528" type="line" smooth="yes"/>
      <point x="57" y="514"/>
      <point x="57" y="492"/>
      <point x="63" y="478" type="curve" smooth="yes"/>
      <point x="97" y="405" type="line"/>
      <point x="56" y="332" type="line" smooth="yes"/>
      <point x="47" y="314"/>
      <point x="48" y="286"/>
      <point x="60" y="269" type="curve" smooth="yes"/>
      <point x="95" y="217" type="line"/>
      <point x="92" y="194" type="line" smooth="yes"/>
      <point x="91" y="191"/>
      <point x="91" y="187"/>
      <point x="91" y="184" type="curve" smooth="yes"/>
      <point x="92" y="98" type="line" smooth="yes"/>
      <point x="92" y="90"/>
      <point x="94" y="83"/>
      <point x="97" y="76" type="curve"/>
      <point x="75" y="28" type="line" smooth="yes"/>
      <point x="62" y="-2"/>
      <point x="76" y="-38"/>
      <point x="105" y="-52" type="curve" smooth="yes"/>
      <point x="135" y="-65"/>
      <point x="171" y="-51"/>
    </contour>
    <contour>
      <point x="353" y="366" type="curve" smooth="yes"/>
      <point x="196" y="336" type="line"/>
      <point x="217" y="374" type="line" smooth="yes"/>
      <point x="225" y="389"/>
      <point x="225" y="413"/>
      <point x="219" y="428" type="curve" smooth="yes"/>
      <point x="184" y="503" type="line"/>
      <point x="219" y="578" type="line" smooth="yes"/>
      <point x="220" y="582"/>
      <point x="223" y="589"/>
      <point x="223" y="594" type="curve" smooth="yes"/>
      <point x="237" y="680" type="line"/>
      <point x="241" y="718" type="line"/>
      <point x="348" y="743" type="line"/>
      <point x="562" y="743" type="line"/>
      <point x="675" y="714" type="line"/>
      <point x="701" y="684" type="line"/>
      <point x="667" y="640" type="line" smooth="yes"/>
      <point x="660" y="631"/>
      <point x="654" y="614"/>
      <point x="654" y="603" type="curve" smooth="yes"/>
      <point x="654" y="507" type="line" smooth="yes"/>
      <point x="654" y="498"/>
      <point x="658" y="484"/>
      <point x="662" y="476" type="curve" smooth="yes"/>
      <point x="696" y="420" type="line"/>
      <point x="684" y="394" type="line"/>
      <point x="581" y="367" type="line"/>
      <point x="364" y="367" type="line" smooth="yes"/>
      <point x="361" y="367"/>
      <point x="356" y="367"/>
    </contour>
  </outline>
</glyph>
<glyph name="Q" format="1">
  <advance width="917"/>
  <unicode hex="0051"/>
  <outline>
    <contour>
      <point x="311" y="-61" type="curve" smooth="yes"/>
      <point x="413" y="-61" type="line" smooth="yes"/>
      <point x="445" y="-61"/>
      <point x="473" y="-33"/>
      <point x="473" y="-1" type="curve" smooth="yes"/>
      <point x="473" y="31"/>
      <point x="445" y="59"/>
      <point x="413" y="59" type="curve" smooth="yes"/>
      <point x="333" y="59" type="line"/>
      <point x="289" y="95" type="line"/>
      <point x="225" y="226" type="line" smooth="yes"/>
      <point x="224" y="227"/>
      <point x="223" y="229"/>
      <point x="222" y="231" type="curve" smooth="yes"/>
      <point x="182" y="295" type="line"/>
      <point x="234" y="362" type="line" smooth="yes"/>
      <point x="246" y="377"/>
      <point x="250" y="404"/>
      <point x="243" y="422" type="curve" smooth="yes"/>
      <point x="203" y="519" type="line"/>
      <point x="171" y="608" type="line"/>
      <point x="173" y="652" type="line"/>
      <point x="244" y="708" type="line"/>
      <point x="354" y="739" type="line"/>
      <point x="549" y="739" type="line"/>
      <point x="650" y="713" type="line"/>
      <point x="660" y="677" type="line"/>
      <point x="653" y="604" type="line" smooth="yes"/>
      <point x="653" y="596"/>
      <point x="654" y="584"/>
      <point x="657" y="577" type="curve" smooth="yes"/>
      <point x="688" y="499" type="line"/>
      <point x="656" y="422" type="line" smooth="yes"/>
      <point x="648" y="402"/>
      <point x="654" y="373"/>
      <point x="669" y="358" type="curve" smooth="yes"/>
      <point x="731" y="292" type="line"/>
      <point x="706" y="255" type="line"/>
      <point x="682" y="251" type="line" smooth="yes"/>
      <point x="671" y="250"/>
      <point x="655" y="242"/>
      <point x="647" y="234" type="curve" smooth="yes"/>
      <point x="598" y="182" type="line" smooth="yes"/>
      <point x="594" y="178"/>
      <point x="589" y="171"/>
      <point x="587" y="166" type="curve" smooth="yes"/>
      <point x="521" y="24" type="line" smooth="yes"/>
      <point x="507" y="-5"/>
      <point x="520" y="-42"/>
      <point x="550" y="-55" type="curve" smooth="yes"/>
      <point x="579" y="-69"/>
      <point x="616" y="-56"/>
      <point x="629" y="-26" type="curve" smooth="yes"/>
      <point x="691" y="106" type="line"/>
      <point x="719" y="135" type="line"/>
      <point x="749" y="140" type="line" smooth="yes"/>
      <point x="764" y="142"/>
      <point x="783" y="153"/>
      <point x="791" y="166" type="curve" smooth="yes"/>
      <point x="857" y="266" type="line" smooth="yes"/>
      <point x="872" y="288"/>
      <point x="869" y="321"/>
      <point x="850" y="340" type="curve" smooth="yes"/>
      <point x="782" y="412" type="line"/>
      <point x="809" y="476" type="line" smooth="yes"/>
      <point x="814" y="489"/>
      <point x="814" y="509"/>
      <point x="809" y="521" type="curve" smooth="yes"/>
      <point x="774" y="608" type="line"/>
      <point x="780" y="677" type="line" smooth="yes"/>
      <point x="781" y="683"/>
      <point x="780" y="693"/>
      <point x="778" y="698" type="curve" smooth="yes"/>
      <point x="756" y="779" type="line" smooth="yes"/>
      <point x="751" y="798"/>
      <point x="732" y="816"/>
      <point x="713" y="821" type="curve" smooth="yes"/>
      <point x="571" y="857" type="line" smooth="yes"/>
      <point x="567" y="858"/>
      <point x="560" y="859"/>
      <point x="556" y="859" type="curve" smooth="yes"/>
      <point x="346" y="859" type="line" smooth="yes"/>
      <point x="341" y="859"/>
      <point x="334" y="858"/>
      <point x="330" y="857" type="curve" smooth="yes"/>
      <point x="200" y="820" type="line" smooth="yes"/>
      <point x="194" y="819"/>
      <point x="184" y="814"/>
      <point x="179" y="810" type="curve" smooth="yes"/>
      <point x="77" y="729" type="line" smooth="yes"/>
      <point x="65" y="720"/>
      <point x="55" y="700"/>
      <point x="54" y="684" type="curve" smooth="yes"/>
      <point x="51" y="601" type="line" smooth="yes"/>
      <point x="51" y="595"/>
      <point x="52" y="585"/>
      <point x="54" y="579" type="curve" smooth="yes"/>
      <point x="89" y="479" type="line"/>
      <point x="118" y="408" type="line"/>
      <point x="62" y="336" type="line" smooth="yes"/>
      <point x="47" y="318"/>
      <point x="46" y="287"/>
      <point x="58" y="267" type="curve" smooth="yes"/>
      <point x="118" y="170" type="line"/>
      <point x="187" y="31" type="line" smooth="yes"/>
      <point x="190" y="24"/>
      <point x="197" y="16"/>
      <point x="203" y="11" type="curve" smooth="yes"/>
      <point x="273" y="-47" type="line" smooth="yes"/>
      <point x="282" y="-55"/>
      <point x="299" y="-61"/>
    </contour>
  </outline>
</glyph>
<glyph name="R" format="1">
  <advance width="908"/>
  <unicode hex="0052"/>
  <outline>
    <contour>
      <point x="820" y="-60" type="curve" smooth="yes"/>
      <point x="850" y="-48"/>
      <point x="866" y="-12"/>
      <point x="854" y="18" type="curve" smooth="yes"/>
      <point x="815" y="113" type="line"/>
      <point x="797" y="248" type="line" smooth="yes"/>
      <point x="795" y="265"/>
      <point x="781" y="285"/>
      <point x="765" y="293" type="curve"/>
      <point x="768" y="297" type="line" smooth="yes"/>
      <point x="828" y="377" type="line" smooth="yes"/>
      <point x="838" y="391"/>
      <point x="842" y="415"/>
      <point x="836" y="431" type="curve" smooth="yes"/>
      <point x="810" y="511" type="line"/>
      <point x="791" y="608" type="line"/>
      <point x="779" y="674" type="line"/>
      <point x="803" y="740" type="line" smooth="yes"/>
      <point x="816" y="777"/>
      <point x="794" y="813"/>
      <point x="756" y="819" type="curve" smooth="yes"/>
      <point x="533" y="855" type="line" smooth="yes"/>
      <point x="530" y="856"/>
      <point x="526" y="856"/>
      <point x="523" y="856" type="curve" smooth="yes"/>
      <point x="386" y="856" type="line" smooth="yes"/>
      <point x="383" y="856"/>
      <point x="378" y="856"/>
      <point x="375" y="855" type="curve" smooth="yes"/>
      <point x="177" y="819" type="line" smooth="yes"/>
      <point x="156" y="815"/>
      <point x="134" y="795"/>
      <point x="129" y="774" type="curve" smooth="yes"/>
      <point x="112" y="704" type="line"/>
      <point x="60" y="630" type="line" smooth="yes"/>
      <point x="49" y="615"/>
      <point x="47" y="589"/>
      <point x="54" y="571" type="curve" smooth="yes"/>
      <point x="89" y="495" type="line"/>
      <point x="57" y="419" type="line" smooth="yes"/>
      <point x="54" y="412"/>
      <point x="52" y="399"/>
      <point x="52" y="391" type="curve" smooth="yes"/>
      <point x="60" y="295" type="line"/>
      <point x="55" y="199" type="line" smooth="yes"/>
      <point x="55" y="197"/>
      <point x="55" y="193"/>
      <point x="55" y="191" type="curve" smooth="yes"/>
      <point x="64" y="91" type="line" smooth="yes"/>
      <point x="65" y="85"/>
      <point x="67" y="75"/>
      <point x="70" y="70" type="curve" smooth="yes"/>
      <point x="118" y="-30" type="line" smooth="yes"/>
      <point x="132" y="-59"/>
      <point x="169" y="-72"/>
      <point x="198" y="-58" type="curve" smooth="yes"/>
      <point x="227" y="-44"/>
      <point x="240" y="-7"/>
      <point x="226" y="22" type="curve" smooth="yes"/>
      <point x="183" y="112" type="line"/>
      <point x="175" y="197" type="line"/>
      <point x="180" y="293" type="line" smooth="yes"/>
      <point x="180" y="295"/>
      <point x="180" y="299"/>
      <point x="180" y="301" type="curve" smooth="yes"/>
      <point x="173" y="386" type="line"/>
      <point x="209" y="473" type="line" smooth="yes"/>
      <point x="215" y="486"/>
      <point x="215" y="507"/>
      <point x="209" y="521" type="curve" smooth="yes"/>
      <point x="178" y="589" type="line"/>
      <point x="216" y="644" type="line" smooth="yes"/>
      <point x="220" y="650"/>
      <point x="224" y="658"/>
      <point x="225" y="664" type="curve" smooth="yes"/>
      <point x="236" y="708" type="line"/>
      <point x="391" y="736" type="line"/>
      <point x="518" y="736" type="line"/>
      <point x="665" y="712" type="line"/>
      <point x="661" y="700" type="line" smooth="yes"/>
      <point x="658" y="691"/>
      <point x="657" y="678"/>
      <point x="658" y="669" type="curve" smooth="yes"/>
      <point x="673" y="584" type="line"/>
      <point x="693" y="484" type="line" smooth="yes"/>
      <point x="694" y="482"/>
      <point x="694" y="479"/>
      <point x="695" y="477" type="curve" smooth="yes"/>
      <point x="713" y="423" type="line"/>
      <point x="685" y="386" type="line"/>
      <point x="549" y="356" type="line"/>
      <point x="224" y="356" type="line"/>
      <point x="224" y="236" type="line"/>
      <point x="570" y="236" type="line"/>
      <point x="618" y="231" type="line"/>
      <point x="683" y="200" type="line"/>
      <point x="698" y="90" type="line" smooth="yes"/>
      <point x="698" y="86"/>
      <point x="700" y="79"/>
      <point x="701" y="76" type="curve" smooth="yes"/>
      <point x="742" y="-26" type="line" smooth="yes"/>
      <point x="754" y="-56"/>
      <point x="790" y="-72"/>
    </contour>
  </outline>
</glyph>
<glyph name="S" format="1">
  <advance width="828"/>
  <unicode hex="0053"/>
  <outline>
    <contour>
      <point x="347" y="-56" type="curve" smooth="yes"/>
      <point x="516" y="-56" type="line" smooth="yes"/>
      <point x="520" y="-56"/>
      <point x="526" y="-55"/>
      <point x="530" y="-54" type="curve" smooth="yes"/>
      <point x="682" y="-18" type="line" smooth="yes"/>
      <point x="696" y="-14"/>
      <point x="713" y="-1"/>
      <point x="720" y="11" type="curve" smooth="yes"/>
      <point x="767" y="93" type="line" smooth="yes"/>
      <point x="771" y="100"/>
      <point x="775" y="112"/>
      <point x="775" y="121" type="curve" smooth="yes"/>
      <point x="778" y="204" type="line" smooth="yes"/>
      <point x="778" y="206"/>
      <point x="778" y="209"/>
      <point x="778" y="211" type="curve" smooth="yes"/>
      <point x="767" y="352" type="line" smooth="yes"/>
      <point x="766" y="362"/>
      <point x="761" y="376"/>
      <point x="755" y="383" type="curve" smooth="yes"/>
      <point x="717" y="434" type="line" smooth="yes"/>
      <point x="708" y="446"/>
      <point x="687" y="457"/>
      <point x="672" y="458" type="curve" smooth="yes"/>
      <point x="497" y="464" type="line" smooth="yes"/>
      <point x="497" y="464"/>
      <point x="496" y="464"/>
      <point x="495" y="464" type="curve" smooth="yes"/>
      <point x="388" y="464" type="line"/>
      <point x="307" y="470" type="line"/>
      <point x="217" y="501" type="line"/>
      <point x="241" y="588" type="line" smooth="yes"/>
      <point x="246" y="605"/>
      <point x="240" y="630"/>
      <point x="228" y="644" type="curve" smooth="yes"/>
      <point x="188" y="688" type="line"/>
      <point x="211" y="715" type="line"/>
      <point x="311" y="744" type="line"/>
      <point x="510" y="744" type="line"/>
      <point x="609" y="715" type="line"/>
      <point x="654" y="666" type="line"/>
      <point x="651" y="607" type="line" smooth="yes"/>
      <point x="649" y="575"/>
      <point x="675" y="546"/>
      <point x="708" y="544" type="curve" smooth="yes"/>
      <point x="740" y="542"/>
      <point x="769" y="568"/>
      <point x="771" y="601" type="curve" smooth="yes"/>
      <point x="775" y="684" type="line" smooth="yes"/>
      <point x="776" y="698"/>
      <point x="769" y="718"/>
      <point x="760" y="728" type="curve" smooth="yes"/>
      <point x="686" y="808" type="line" smooth="yes"/>
      <point x="680" y="815"/>
      <point x="668" y="823"/>
      <point x="659" y="826" type="curve" smooth="yes"/>
      <point x="536" y="862" type="line" smooth="yes"/>
      <point x="531" y="863"/>
      <point x="524" y="864"/>
      <point x="519" y="864" type="curve" smooth="yes"/>
      <point x="303" y="864" type="line" smooth="yes"/>
      <point x="298" y="864"/>
      <point x="291" y="863"/>
      <point x="286" y="862" type="curve" smooth="yes"/>
      <point x="160" y="825" type="line" smooth="yes"/>
      <point x="150" y="823"/>
      <point x="137" y="814"/>
      <point x="130" y="806" type="curve" smooth="yes"/>
      <point x="63" y="725" type="line" smooth="yes"/>
      <point x="45" y="703"/>
      <point x="45" y="668"/>
      <point x="64" y="647" type="curve" smooth="yes"/>
      <point x="117" y="588" type="line"/>
      <point x="86" y="478" type="line" smooth="yes"/>
      <point x="78" y="448"/>
      <point x="95" y="416"/>
      <point x="125" y="406" type="curve" smooth="yes"/>
      <point x="275" y="354" type="line" smooth="yes"/>
      <point x="279" y="353"/>
      <point x="286" y="351"/>
      <point x="290" y="351" type="curve" smooth="yes"/>
      <point x="381" y="344" type="line" smooth="yes"/>
      <point x="383" y="344"/>
      <point x="385" y="344"/>
      <point x="386" y="344" type="curve" smooth="yes"/>
      <point x="494" y="344" type="line"/>
      <point x="639" y="339" type="line"/>
      <point x="648" y="326" type="line"/>
      <point x="658" y="205" type="line"/>
      <point x="656" y="140" type="line"/>
      <point x="629" y="93" type="line"/>
      <point x="509" y="64" type="line"/>
      <point x="351" y="64" type="line"/>
      <point x="313" y="69" type="line"/>
      <point x="225" y="107" type="line"/>
      <point x="179" y="226" type="line" smooth="yes"/>
      <point x="167" y="256"/>
      <point x="131" y="272"/>
      <point x="101" y="260" type="curve" smooth="yes"/>
      <point x="71" y="248"/>
      <point x="55" y="212"/>
      <point x="67" y="182" type="curve" smooth="yes"/>
      <point x="122" y="41" type="line" smooth="yes"/>
      <point x="127" y="28"/>
      <point x="142" y="13"/>
      <point x="154" y="7" type="curve" smooth="yes"/>
      <point x="273" y="-44" type="line" smooth="yes"/>
      <point x="277" y="-46"/>
      <point x="284" y="-48"/>
      <point x="288" y="-48" type="curve" smooth="yes"/>
      <point x="339" y="-55" type="line" smooth="yes"/>
      <point x="341" y="-56"/>
      <point x="345" y="-56"/>
    </contour>
  </outline>
</glyph>
<glyph name="T" format="1">
  <advance width="741"/>
  <unicode hex="0054"/>
  <outline>
    <contour>
      <point x="432" y="-56" type="curve" smooth="yes"/>
      <point x="463" y="-45"/>
      <point x="479" y="-10"/>
      <point x="468" y="20" type="curve" smooth="yes"/>
      <point x="440" y="99" type="line"/>
      <point x="472" y="178" type="line" smooth="yes"/>
      <point x="477" y="192"/>
      <point x="476" y="214"/>
      <point x="469" y="227" type="curve" smooth="yes"/>
      <point x="427" y="310" type="line"/>
      <point x="440" y="391" type="line"/>
      <point x="462" y="487" type="line" smooth="yes"/>
      <point x="464" y="492"/>
      <point x="464" y="500"/>
      <point x="464" y="505" type="curve" smooth="yes"/>
      <point x="456" y="605" type="line"/>
      <point x="452" y="667" type="line"/>
      <point x="473" y="704" type="line"/>
      <point x="639" y="734" type="line" smooth="yes"/>
      <point x="711" y="747"/>
      <point x="707" y="847"/>
      <point x="634" y="853" type="curve" smooth="yes"/>
      <point x="552" y="860" type="line" smooth="yes"/>
      <point x="551" y="860"/>
      <point x="548" y="860"/>
      <point x="547" y="860" type="curve" smooth="yes"/>
      <point x="110" y="860" type="line" smooth="yes"/>
      <point x="78" y="860"/>
      <point x="50" y="832"/>
      <point x="50" y="800" type="curve" smooth="yes"/>
      <point x="50" y="768"/>
      <point x="78" y="740"/>
      <point x="110" y="740" type="curve" smooth="yes"/>
      <point x="355" y="740" type="line"/>
      <point x="339" y="710" type="line" smooth="yes"/>
      <point x="334" y="702"/>
      <point x="331" y="687"/>
      <point x="332" y="678" type="curve" smooth="yes"/>
      <point x="336" y="595" type="line"/>
      <point x="343" y="504" type="line"/>
      <point x="322" y="409" type="line"/>
      <point x="306" y="309" type="line" smooth="yes"/>
      <point x="304" y="299"/>
      <point x="307" y="282"/>
      <point x="312" y="273" type="curve" smooth="yes"/>
      <point x="350" y="197" type="line"/>
      <point x="320" y="122" type="line" smooth="yes"/>
      <point x="316" y="111"/>
      <point x="315" y="92"/>
      <point x="320" y="80" type="curve" smooth="yes"/>
      <point x="356" y="-20" type="line" smooth="yes"/>
      <point x="367" y="-51"/>
      <point x="402" y="-67"/>
    </contour>
  </outline>
</glyph>
<glyph name="U" format="1">
  <advance width="910"/>
  <unicode hex="0055"/>
  <outline>
    <contour>
      <point x="357" y="-61" type="curve" smooth="yes"/>
      <point x="587" y="-61" type="line" smooth="yes"/>
      <point x="592" y="-61"/>
      <point x="600" y="-60"/>
      <point x="605" y="-58" type="curve" smooth="yes"/>
      <point x="721" y="-22" type="line" smooth="yes"/>
      <point x="731" y="-19"/>
      <point x="743" y="-11"/>
      <point x="749" y="-4" type="curve" smooth="yes"/>
      <point x="818" y="77" type="line" smooth="yes"/>
      <point x="824" y="85"/>
      <point x="831" y="100"/>
      <point x="832" y="110" type="curve" smooth="yes"/>
      <point x="839" y="194" type="line" smooth="yes"/>
      <point x="839" y="196"/>
      <point x="839" y="200"/>
      <point x="839" y="203" type="curve" smooth="yes"/>
      <point x="833" y="303" type="line" smooth="yes"/>
      <point x="832" y="311"/>
      <point x="828" y="324"/>
      <point x="824" y="331" type="curve" smooth="yes"/>
      <point x="784" y="393" type="line"/>
      <point x="844" y="459" type="line" smooth="yes"/>
      <point x="854" y="469"/>
      <point x="861" y="489"/>
      <point x="860" y="504" type="curve" smooth="yes"/>
      <point x="852" y="600" type="line"/>
      <point x="856" y="697" type="line" smooth="yes"/>
      <point x="856" y="707"/>
      <point x="852" y="723"/>
      <point x="846" y="732" type="curve" smooth="yes"/>
      <point x="779" y="832" type="line" smooth="yes"/>
      <point x="761" y="859"/>
      <point x="723" y="867"/>
      <point x="696" y="849" type="curve" smooth="yes"/>
      <point x="669" y="831"/>
      <point x="661" y="793"/>
      <point x="679" y="766" type="curve" smooth="yes"/>
      <point x="735" y="682" type="line"/>
      <point x="732" y="601" type="line" smooth="yes"/>
      <point x="732" y="599"/>
      <point x="732" y="596"/>
      <point x="732" y="594" type="curve" smooth="yes"/>
      <point x="738" y="520" type="line"/>
      <point x="665" y="439" type="line" smooth="yes"/>
      <point x="648" y="421"/>
      <point x="645" y="388"/>
      <point x="658" y="367" type="curve" smooth="yes"/>
      <point x="714" y="280" type="line"/>
      <point x="719" y="200" type="line"/>
      <point x="714" y="140" type="line"/>
      <point x="669" y="87" type="line"/>
      <point x="578" y="59" type="line"/>
      <point x="366" y="59" type="line"/>
      <point x="286" y="85" type="line"/>
      <point x="249" y="146" type="line" smooth="yes"/>
      <point x="247" y="149"/>
      <point x="244" y="154"/>
      <point x="241" y="156" type="curve" smooth="yes"/>
      <point x="193" y="208" type="line"/>
      <point x="228" y="270" type="line" smooth="yes"/>
      <point x="230" y="275"/>
      <point x="233" y="282"/>
      <point x="234" y="287" type="curve" smooth="yes"/>
      <point x="254" y="387" type="line" smooth="yes"/>
      <point x="257" y="401"/>
      <point x="253" y="421"/>
      <point x="245" y="432" type="curve" smooth="yes"/>
      <point x="195" y="508" type="line"/>
      <point x="217" y="581" type="line" smooth="yes"/>
      <point x="219" y="586"/>
      <point x="220" y="594"/>
      <point x="220" y="600" type="curve" smooth="yes"/>
      <point x="219" y="700" type="line" smooth="yes"/>
      <point x="219" y="707"/>
      <point x="216" y="719"/>
      <point x="213" y="725" type="curve" smooth="yes"/>
      <point x="164" y="825" type="line" smooth="yes"/>
      <point x="150" y="854"/>
      <point x="113" y="867"/>
      <point x="84" y="853" type="curve" smooth="yes"/>
      <point x="55" y="839"/>
      <point x="42" y="802"/>
      <point x="56" y="773" type="curve" smooth="yes"/>
      <point x="99" y="685" type="line"/>
      <point x="100" y="608" type="line"/>
      <point x="72" y="517" type="line" smooth="yes"/>
      <point x="67" y="502"/>
      <point x="70" y="479"/>
      <point x="79" y="466" type="curve" smooth="yes"/>
      <point x="131" y="387" type="line"/>
      <point x="118" y="320" type="line"/>
      <point x="67" y="228" type="line" smooth="yes"/>
      <point x="56" y="207"/>
      <point x="60" y="176"/>
      <point x="76" y="158" type="curve" smooth="yes"/>
      <point x="149" y="79" type="line"/>
      <point x="194" y="4" type="line" smooth="yes"/>
      <point x="201" y="-6"/>
      <point x="216" y="-18"/>
      <point x="227" y="-22" type="curve" smooth="yes"/>
      <point x="338" y="-58" type="line" smooth="yes"/>
      <point x="343" y="-60"/>
      <point x="352" y="-61"/>
    </contour>
  </outline>
</glyph>
<glyph name="V" format="1">
  <advance width="911"/>
  <unicode hex="0056"/>
  <outline>
    <contour>
      <point x="302" y="-60" type="curve" smooth="yes"/>
      <point x="597" y="-60" type="line" smooth="yes"/>
      <point x="602" y="-60"/>
      <point x="611" y="-59"/>
      <point x="616" y="-57" type="curve" smooth="yes"/>
      <point x="728" y="-21" type="line" smooth="yes"/>
      <point x="736" y="-18"/>
      <point x="746" y="-12"/>
      <point x="752" y="-6" type="curve" smooth="yes"/>
      <point x="832" y="74" type="line" smooth="yes"/>
      <point x="847" y="89"/>
      <point x="853" y="116"/>
      <point x="847" y="135" type="curve" smooth="yes"/>
      <point x="821" y="218" type="line"/>
      <point x="796" y="291" type="line"/>
      <point x="847" y="366" type="line" smooth="yes"/>
      <point x="853" y="374"/>
      <point x="858" y="388"/>
      <point x="858" y="398" type="curve" smooth="yes"/>
      <point x="861" y="498" type="line" smooth="yes"/>
      <point x="861" y="504"/>
      <point x="860" y="514"/>
      <point x="858" y="519" type="curve" smooth="yes"/>
      <point x="824" y="619" type="line" smooth="yes"/>
      <point x="823" y="622"/>
      <point x="821" y="627"/>
      <point x="819" y="630" type="curve" smooth="yes"/>
      <point x="770" y="714" type="line"/>
      <point x="776" y="796" type="line" smooth="yes"/>
      <point x="778" y="828"/>
      <point x="753" y="858"/>
      <point x="720" y="860" type="curve" smooth="yes"/>
      <point x="688" y="862"/>
      <point x="658" y="837"/>
      <point x="656" y="804" type="curve" smooth="yes"/>
      <point x="649" y="704" type="line" smooth="yes"/>
      <point x="648" y="694"/>
      <point x="652" y="679"/>
      <point x="657" y="670" type="curve" smooth="yes"/>
      <point x="712" y="575" type="line"/>
      <point x="741" y="491" type="line"/>
      <point x="739" y="419" type="line"/>
      <point x="680" y="334" type="line" smooth="yes"/>
      <point x="670" y="320"/>
      <point x="667" y="296"/>
      <point x="672" y="280" type="curve" smooth="yes"/>
      <point x="707" y="182" type="line"/>
      <point x="722" y="134" type="line"/>
      <point x="677" y="89" type="line"/>
      <point x="588" y="60" type="line"/>
      <point x="388" y="60" type="line"/>
      <point x="409" y="120" type="line" smooth="yes"/>
      <point x="420" y="150"/>
      <point x="405" y="184"/>
      <point x="376" y="196" type="curve" smooth="yes"/>
      <point x="253" y="248" type="line" smooth="yes"/>
      <point x="248" y="250"/>
      <point x="240" y="252"/>
      <point x="234" y="252" type="curve" smooth="yes"/>
      <point x="185" y="256" type="line"/>
      <point x="171" y="305" type="line"/>
      <point x="179" y="380" type="line"/>
      <point x="234" y="468" type="line" smooth="yes"/>
      <point x="246" y="487"/>
      <point x="245" y="517"/>
      <point x="231" y="535" type="curve" smooth="yes"/>
      <point x="172" y="617" type="line"/>
      <point x="179" y="681" type="line"/>
      <point x="231" y="770" type="line" smooth="yes"/>
      <point x="247" y="798"/>
      <point x="237" y="836"/>
      <point x="209" y="852" type="curve" smooth="yes"/>
      <point x="181" y="868"/>
      <point x="143" y="858"/>
      <point x="127" y="830" type="curve" smooth="yes"/>
      <point x="69" y="730" type="line" smooth="yes"/>
      <point x="66" y="724"/>
      <point x="62" y="714"/>
      <point x="61" y="707" type="curve" smooth="yes"/>
      <point x="50" y="607" type="line" smooth="yes"/>
      <point x="49" y="594"/>
      <point x="54" y="575"/>
      <point x="62" y="565" type="curve" smooth="yes"/>
      <point x="111" y="497" type="line"/>
      <point x="70" y="432" type="line" smooth="yes"/>
      <point x="66" y="425"/>
      <point x="62" y="414"/>
      <point x="61" y="407" type="curve" smooth="yes"/>
      <point x="50" y="307" type="line" smooth="yes"/>
      <point x="50" y="300"/>
      <point x="51" y="290"/>
      <point x="52" y="283" type="curve" smooth="yes"/>
      <point x="81" y="183" type="line" smooth="yes"/>
      <point x="88" y="161"/>
      <point x="111" y="142"/>
      <point x="134" y="140" type="curve" smooth="yes"/>
      <point x="215" y="134" type="line"/>
      <point x="277" y="108" type="line"/>
      <point x="246" y="20" type="line" smooth="yes"/>
      <point x="230" y="-21"/>
      <point x="258" y="-60"/>
    </contour>
  </outline>
</glyph>
